/* XPM */
static char *result[] = {
/* columns rows colors chars-per-pixel */
"128 128 4 1 ",
"  c #505456",
". c #707679",
"X c #98A1A6",
"o c #ABB6BC",
/* pixels */
"oooooooooooooooooooooooooooooooooooooooooooooooooooooooooooooooooooooooooooooooooooooooooooooooooooooooooooooooooooooooooooooooo",
"oooooooooooooooooooooooooooooooooooooooooooooooooooooooooooooooooooooooooooooooooooooooooooooooooooooooooooooooooooooooooooooooo",
"oooooooooooooooooooooooooooooooooooooooooooooooooooooooooooooooooooooooooooooooooooooooooooooooooooooooooooooooooooooooooooooooo",
"oooooooooooooooooooooooooooooooooooooooooooooooooooooooooooooooooooooooooooooooooooooooooooooooooooooooooooooooooooooooooooooooo",
"oooooooooooooooooooooooooooooooooooooooooooooooooooooooooooooooooooooooooooooooooooooooooooooooooooooooooooooooooooooooooooooooo",
"ooooo.......................................................................................................................oooo",
"ooooo.......................................................................................................................oooo",
"ooooo.......................................................................................................................oooo",
"ooooo.......................................................................................................................oooo",
"ooooo.......................................................................................................................oooo",
"ooooo.......................................................................................................................oooo",
"ooooo................ooooooXXXXX.................................oooooXXXXXX................................oooooXXXXX......oooo",
"ooooo................ooooooXXXXX.................................oooooXXXXXX................................oooooXXXXX......oooo",
"ooooo................ooooooXXXXX.................................oooooXXXXXX................................oooooXXXXX......oooo",
"ooooo................ooooooXXXXX.................................oooooXXXXXX................................oooooXXXXX......oooo",
"ooooo................ooooooXXXXX.................................oooooXXXXXX................................oooooXXXXX......oooo",
"ooooo...........oooooXXXXXXXXXXX...........................ooooooXXXXXXXXXXX..........................ooooooXXXXXXXXXX......oooo",
"ooooo...........oooooXXXXXXXXXXX...........................ooooooXXXXXXXXXXX..........................ooooooXXXXXXXXXX......oooo",
"ooooo...........oooooXXXXXXXXXXX...........................ooooooXXXXXXXXXXX..........................ooooooXXXXXXXXXX......oooo",
"ooooo...........oooooXXXXXXXXXXX...........................ooooooXXXXXXXXXXX..........................ooooooXXXXXXXXXX......oooo",
"ooooo...........oooooXXXXXXXXXXX...........................ooooooXXXXXXXXXXX..........................ooooooXXXXXXXXXX......oooo",
"ooooo......oooooXXXXXXXXXXX     .....................ooooooXXXXXXXXXXX      .....................oooooXXXXXXXXXXX     ......oooo",
"ooooo......oooooXXXXXXXXXXX     .....................ooooooXXXXXXXXXXX      .....................oooooXXXXXXXXXXX     ......oooo",
"ooooo......oooooXXXXXXXXXXX     .....................ooooooXXXXXXXXXXX      .....................oooooXXXXXXXXXXX     ......oooo",
"ooooo......oooooXXXXXXXXXXX     .....................ooooooXXXXXXXXXXX      .....................oooooXXXXXXXXXXX     ......oooo",
"ooooo......oooooXXXXXXXXXXX     .....................ooooooXXXXXXXXXXX      .....................oooooXXXXXXXXXXX     ......oooo",
"ooooo......oooooXXXXXXXXXXX     .....................ooooooXXXXXXXXXXX      .....................oooooXXXXXXXXXXX     ......oooo",
"ooooo......XXXXXXXXXX      ..........................XXXXXXXXXXXX     ...........................XXXXXXXXXXX     ...........oooo",
"ooooo......XXXXXXXXXX      ..........................XXXXXXXXXXXX     ...........................XXXXXXXXXXX     ...........oooo",
"ooooo......XXXXXXXXXX      ..........................XXXXXXXXXXXX     ...........................XXXXXXXXXXX     ...........oooo",
"ooooo......XXXXXXXXXX      ..........................XXXXXXXXXXXX     ...........................XXXXXXXXXXX     ...........oooo",
"ooooo......XXXXXXXXXX      ..........................XXXXXXXXXXXX     ...........................XXXXXXXXXXX     ...........oooo",
"ooooo......          ................................            ................................           ................oooo",
"ooooo......          ................................            ................................           ................oooo",
"ooooo......          ................................            ................................           ................oooo",
"ooooo......          ................................            ................................           ................oooo",
"ooooo......          ................................            ................................           ................oooo",
"ooooo.......................................................................................................................oooo",
"ooooo.......................................................................................................................oooo",
"ooooo.......................................................................................................................oooo",
"ooooo.......................................................................................................................oooo",
"ooooo.......................................................................................................................oooo",
"ooooo.......................................................................................................................oooo",
"ooooo.......................................................................................................................oooo",
"ooooo.......................................................................................................................oooo",
"ooooo.......................................................................................................................oooo",
"ooooo.......................................................................................................................oooo",
"ooooo.......................................................................................................................oooo",
"ooooo................ooooooXXXXX.................................oooooXXXXXX................................oooooXXXXX......oooo",
"ooooo................ooooooXXXXX.................................oooooXXXXXX................................oooooXXXXX......oooo",
"ooooo................ooooooXXXXX.................................oooooXXXXXX................................oooooXXXXX......oooo",
"ooooo................ooooooXXXXX.................................oooooXXXXXX................................oooooXXXXX......oooo",
"ooooo................ooooooXXXXX.................................oooooXXXXXX................................oooooXXXXX......oooo",
"ooooo...........oooooXXXXXXXXXXX...........................ooooooXXXXXXXXXXX..........................ooooooXXXXXXXXXX......oooo",
"ooooo...........oooooXXXXXXXXXXX...........................ooooooXXXXXXXXXXX..........................ooooooXXXXXXXXXX......oooo",
"ooooo...........oooooXXXXXXXXXXX...........................ooooooXXXXXXXXXXX..........................ooooooXXXXXXXXXX......oooo",
"ooooo...........oooooXXXXXXXXXXX...........................ooooooXXXXXXXXXXX..........................ooooooXXXXXXXXXX......oooo",
"ooooo...........oooooXXXXXXXXXXX...........................ooooooXXXXXXXXXXX..........................ooooooXXXXXXXXXX......oooo",
"ooooo...........oooooXXXXXXXXXXX...........................ooooooXXXXXXXXXXX..........................ooooooXXXXXXXXXX......oooo",
"ooooo......oooooXXXXXXXXXXX     .....................ooooooXXXXXXXXXXX      .....................oooooXXXXXXXXXXX     ......oooo",
"ooooo......oooooXXXXXXXXXXX     .....................ooooooXXXXXXXXXXX      .....................oooooXXXXXXXXXXX     ......oooo",
"ooooo......oooooXXXXXXXXXXX     .....................ooooooXXXXXXXXXXX      .....................oooooXXXXXXXXXXX     ......oooo",
"ooooo......oooooXXXXXXXXXXX     .....................ooooooXXXXXXXXXXX      .....................oooooXXXXXXXXXXX     ......oooo",
"ooooo......oooooXXXXXXXXXXX     .....................ooooooXXXXXXXXXXX      .....................oooooXXXXXXXXXXX     ......oooo",
"ooooo......oooooXXXXXXXXXXX     .....................ooooooXXXXXXXXXXX      .....................oooooXXXXXXXXXXX     ......oooo",
"ooooo......XXXXXXXXXX      ..........................XXXXXXXXXXXX     ...........................XXXXXXXXXXX     ...........oooo",
"ooooo......XXXXXXXXXX      ..........................XXXXXXXXXXXX     ...........................XXXXXXXXXXX     ...........oooo",
"ooooo......XXXXXXXXXX      ..........................XXXXXXXXXXXX     ...........................XXXXXXXXXXX     ...........oooo",
"ooooo......XXXXXXXXXX      ..........................XXXXXXXXXXXX     ...........................XXXXXXXXXXX     ...........oooo",
"ooooo......XXXXXXXXXX      ..........................XXXXXXXXXXXX     ...........................XXXXXXXXXXX     ...........oooo",
"ooooo......          ................................            ................................           ................oooo",
"ooooo......          ................................            ................................           ................oooo",
"ooooo......          ................................            ................................           ................oooo",
"ooooo......          ................................            ................................           ................oooo",
"ooooo......          ................................            ................................           ................oooo",
"ooooo......          ................................            ................................           ................oooo",
"ooooo.......................................................................................................................oooo",
"ooooo.......................................................................................................................oooo",
"ooooo.......................................................................................................................oooo",
"ooooo.......................................................................................................................oooo",
"ooooo.......................................................................................................................oooo",
"ooooo.......................................................................................................................oooo",
"ooooo.......................................................................................................................oooo",
"ooooo.......................................................................................................................oooo",
"ooooo.......................................................................................................................oooo",
"ooooo.......................................................................................................................oooo",
"ooooo.......................................................................................................................oooo",
"ooooo.......................................................................................................................oooo",
"ooooo.......................................................................................................................oooo",
"ooooo.......................................................................................................................oooo",
"ooooo.......................................................................................................................oooo",
"ooooo.......................................................................................................................oooo",
"ooooo................ooooooXXXXX.................................oooooXXXXXX................................oooooXXXXX......oooo",
"ooooo................ooooooXXXXX.................................oooooXXXXXX................................oooooXXXXX......oooo",
"ooooo................ooooooXXXXX.................................oooooXXXXXX................................oooooXXXXX......oooo",
"ooooo................ooooooXXXXX.................................oooooXXXXXX................................oooooXXXXX......oooo",
"ooooo................ooooooXXXXX.................................oooooXXXXXX................................oooooXXXXX......oooo",
"ooooo...........oooooXXXXXXXXXXX...........................ooooooXXXXXXXXXXX..........................ooooooXXXXXXXXXX......oooo",
"ooooo...........oooooXXXXXXXXXXX...........................ooooooXXXXXXXXXXX..........................ooooooXXXXXXXXXX......oooo",
"ooooo...........oooooXXXXXXXXXXX...........................ooooooXXXXXXXXXXX..........................ooooooXXXXXXXXXX......oooo",
"ooooo...........oooooXXXXXXXXXXX...........................ooooooXXXXXXXXXXX..........................ooooooXXXXXXXXXX......oooo",
"ooooo...........oooooXXXXXXXXXXX...........................ooooooXXXXXXXXXXX..........................ooooooXXXXXXXXXX......oooo",
"ooooo......oooooXXXXXXXXXXX     .....................ooooooXXXXXXXXXXX      .....................oooooXXXXXXXXXXX     ......oooo",
"ooooo......oooooXXXXXXXXXXX     .....................ooooooXXXXXXXXXXX      .....................oooooXXXXXXXXXXX     ......oooo",
"ooooo......oooooXXXXXXXXXXX     .....................ooooooXXXXXXXXXXX      .....................oooooXXXXXXXXXXX     ......oooo",
"ooooo......oooooXXXXXXXXXXX     .....................ooooooXXXXXXXXXXX      .....................oooooXXXXXXXXXXX     ......oooo",
"ooooo......oooooXXXXXXXXXXX     .....................ooooooXXXXXXXXXXX      .....................oooooXXXXXXXXXXX     ......oooo",
"ooooo......oooooXXXXXXXXXXX     .....................ooooooXXXXXXXXXXX      .....................oooooXXXXXXXXXXX     ......oooo",
"ooooo......XXXXXXXXXX      ..........................XXXXXXXXXXXX     ...........................XXXXXXXXXXX     ...........oooo",
"ooooo......XXXXXXXXXX      ..........................XXXXXXXXXXXX     ...........................XXXXXXXXXXX     ...........oooo",
"ooooo......XXXXXXXXXX      ..........................XXXXXXXXXXXX     ...........................XXXXXXXXXXX     ...........oooo",
"ooooo......XXXXXXXXXX      ..........................XXXXXXXXXXXX     ...........................XXXXXXXXXXX     ...........oooo",
"ooooo......XXXXXXXXXX      ..........................XXXXXXXXXXXX     ...........................XXXXXXXXXXX     ...........oooo",
"ooooo......          ................................            ................................           ................oooo",
"ooooo......          ................................            ................................           ................oooo",
"ooooo......          ................................            ................................           ................oooo",
"ooooo......          ................................            ................................           ................oooo",
"ooooo......          ................................            ................................           ................oooo",
"ooooo.......................................................................................................................oooo",
"ooooo.......................................................................................................................oooo",
"ooooo.......................................................................................................................oooo",
"ooooo.......................................................................................................................oooo",
"ooooo.......................................................................................................................oooo",
"ooooo.......................................................................................................................oooo",
"oooooooooooooooooooooooooooooooooooooooooooooooooooooooooooooooooooooooooooooooooooooooooooooooooooooooooooooooooooooooooooooooo",
"oooooooooooooooooooooooooooooooooooooooooooooooooooooooooooooooooooooooooooooooooooooooooooooooooooooooooooooooooooooooooooooooo",
"oooooooooooooooooooooooooooooooooooooooooooooooooooooooooooooooooooooooooooooooooooooooooooooooooooooooooooooooooooooooooooooooo",
"oooooooooooooooooooooooooooooooooooooooooooooooooooooooooooooooooooooooooooooooooooooooooooooooooooooooooooooooooooooooooooooooo"
};
