/* XPM */
static char *result[] = {
/* columns rows colors chars-per-pixel */
"128 128 3 1 ",
"  c #4B4B4B",
". c #838184",
"X c gray63",
/* pixels */
"XXXXXXXXXXXXXXXXXXXXXXXXXXXXXXXXXXXXXXXXXXXXXXXXXXXXXXXXXXXXXXXXXXXXXXXXXXXXXXXXXXXXXXXXXXXXXXXXXXXXXXXXXXXXXXXXXXXXXXXXXXXX....",
"XXXXXXXXXXXXXXXXXXXXXXXXXXXXXXXXXXXXXXXXXXXXXXXXXXXXXXXXXXXXXXXXXXXXXXXXXXXXXXXXXXXXXXXXXXXXXXXXXXXXXXXXXXXXXXXXXXXXXXXXXXXX....",
"XXXXXXXXXXXXXXXXXXXXXXXXXXXXXXXXXXXXXXXXXXXXXXXXXXXXXXXXXXXXXXXXXXXXXXXXXXXXXXXXXXXXXXXXXXXXXXXXXXXXXXXXXXXXXXXXXXXXXXXXXXXX....",
"XXXXXXXXXXXXXXXXXXXXXXXXXXXXXXXXXXXXXXXXXXXXXXXXXXXXXXXXXXXXXXXXXXXXXXXXXXXXXXXXXXXXXXXXXXXXXXXXXXXXXXXXXXXXXXXXXXXXXXXXXXXX....",
"XXXXXXXXXXXXXXXXXXXXXXXXXXXXXXXXXXXXXXXXXXXXXXXXXXXXXXXXXXXXXXXXXXXXXXXXXXXXXXXXXXXXXXXXXXXXXXXXXXXXXXXXXXXXXXXXXXXXXXXXXXXX....",
"XXXXXXXXXXXXXXXXXXXXXXXXXXXXXXXXXXXXXXXXXXXXXXXXXXXXXXXXXXXXXXXXXXXXXXXXXXXXXXXXXXXXXXXXXXXXXXXXXXXXXXXXXXXXXXXXXXXXXX......    ",
"XXXXXXXXXXXXXXXXXXXXXXXXXXXXXXXXXXXXXXXXXXXXXXXXXXXXXXXXXXXXXXXXXXXXXXXXXXXXXXXXXXXXXXXXXXXXXXXXXXXXXXXXXXXXXXXXXXXXXX......    ",
"XXXXXXXXXXXXXXXXXXXXXXXXXXXXXXXXXXXXXXXXXXXXXXXXXXXXXXXXXXXXXXXXXXXXXXXXXXXXXXXXXXXXXXXXXXXXXXXXXXXXXXXXXXXXXXXXXXXXXX......    ",
"XXXXXXXXXXXXXXXXXXXXXXXXXXXXXXXXXXXXXXXXXXXXXXXXXXXXXXXXXXXXXXXXXXXXXXXXXXXXXXXXXXXXXXXXXXXXXXXXXXXXXXXXXXXXXXXXXXXXXX......    ",
"XXXXXXXXXXXXXXXXXXXXXXXXXXXXXXXXXXXXXXXXXXXXXXXXXXXXXXXXXXXXXXXXXXXXXXXXXXXXXXXXXXXXXXXXXXXXXXXXXXXXXXXXXXXXXXXXXXXXXX......    ",
"XXXXXXXXXXXXXXXXXXXXXXXXXXXXXXXXXXXXXXXXXXXXXXXXXXXXXXXXXXXXXXXXXXXXXXXXXXXXXXXXXXXXXXXXXXXXXXXXXXXXXXXXXXXXXXXXXXXXXX......    ",
"XXXXXXXXXXX...........................................................................................................          ",
"XXXXXXXXXXX...........................................................................................................          ",
"XXXXXXXXXXX...........................................................................................................          ",
"XXXXXXXXXXX...........................................................................................................          ",
"XXXXXXXXXXX...........................................................................................................          ",
"XXXXXXXXXXX.....                                                                                                 .....          ",
"XXXXXXXXXXX.....                                                                                                 .....          ",
"XXXXXXXXXXX.....                                                                                                 .....          ",
"XXXXXXXXXXX.....                                                                                                 .....          ",
"XXXXXXXXXXX.....                                                                                                 .....          ",
"XXXXXXXXXXX.....     .......................................................................................XXXXX.....          ",
"XXXXXXXXXXX.....     .......................................................................................XXXXX.....          ",
"XXXXXXXXXXX.....     .......................................................................................XXXXX.....          ",
"XXXXXXXXXXX.....     .......................................................................................XXXXX.....          ",
"XXXXXXXXXXX.....     .......................................................................................XXXXX.....          ",
"XXXXXXXXXXX.....     .......................................................................................XXXXX.....          ",
"XXXXXXXXXXX.....     ......                                ...........                                ......XXXXX.....          ",
"XXXXXXXXXXX.....     ......                                ...........                                ......XXXXX.....          ",
"XXXXXXXXXXX.....     ......                                ...........                                ......XXXXX.....          ",
"XXXXXXXXXXX.....     ......                                ...........                                ......XXXXX.....          ",
"XXXXXXXXXXX.....     ......                                ...........                                ......XXXXX.....          ",
"XXXXXXXXXXX.....     ......     .....................XXXXXX...........      .....................XXXXX......XXXXX.....          ",
"XXXXXXXXXXX.....     ......     .....................XXXXXX...........      .....................XXXXX......XXXXX.....          ",
"XXXXXXXXXXX.....     ......     .....................XXXXXX...........      .....................XXXXX......XXXXX.....          ",
"XXXXXXXXXXX.....     ......     .....................XXXXXX...........      .....................XXXXX......XXXXX.....          ",
"XXXXXXXXXXX.....     ......     .....................XXXXXX...........      .....................XXXXX......XXXXX.....          ",
"XXXXXXXXXXX.....     ......     .....           .....XXXXXX...........      .....           .....XXXXX......XXXXX.....          ",
"XXXXXXXXXXX.....     ......     .....           .....XXXXXX...........      .....           .....XXXXX......XXXXX.....          ",
"XXXXXXXXXXX.....     ......     .....           .....XXXXXX...........      .....           .....XXXXX......XXXXX.....          ",
"XXXXXXXXXXX.....     ......     .....           .....XXXXXX...........      .....           .....XXXXX......XXXXX.....          ",
"XXXXXXXXXXX.....     ......     .....           .....XXXXXX...........      .....           .....XXXXX......XXXXX.....          ",
"XXXXXXXXXXX.....     ......     .....           .....XXXXXX...........      .....           .....XXXXX......XXXXX.....          ",
"XXXXXXXXXXX.....     ......     .....      XXXXX.....XXXXXX...........      .....     XXXXXX.....XXXXX......XXXXX.....          ",
"XXXXXXXXXXX.....     ......     .....      XXXXX.....XXXXXX...........      .....     XXXXXX.....XXXXX......XXXXX.....          ",
"XXXXXXXXXXX.....     ......     .....      XXXXX.....XXXXXX...........      .....     XXXXXX.....XXXXX......XXXXX.....          ",
"XXXXXXXXXXX.....     ......     .....      XXXXX.....XXXXXX...........      .....     XXXXXX.....XXXXX......XXXXX.....          ",
"XXXXXXXXXXX.....     ......     .....      XXXXX.....XXXXXX...........      .....     XXXXXX.....XXXXX......XXXXX.....          ",
"XXXXXXXXXXX.....     ......     .....................XXXXXX...........      .....................XXXXX......XXXXX.....          ",
"XXXXXXXXXXX.....     ......     .....................XXXXXX...........      .....................XXXXX......XXXXX.....          ",
"XXXXXXXXXXX.....     ......     .....................XXXXXX...........      .....................XXXXX......XXXXX.....          ",
"XXXXXXXXXXX.....     ......     .....................XXXXXX...........      .....................XXXXX......XXXXX.....          ",
"XXXXXXXXXXX.....     ......     .....................XXXXXX...........      .....................XXXXX......XXXXX.....          ",
"XXXXXXXXXXX.....     ......     XXXXXXXXXXXXXXXXXXXXXXXXXXX...........      XXXXXXXXXXXXXXXXXXXXXXXXXX......XXXXX.....          ",
"XXXXXXXXXXX.....     ......     XXXXXXXXXXXXXXXXXXXXXXXXXXX...........      XXXXXXXXXXXXXXXXXXXXXXXXXX......XXXXX.....          ",
"XXXXXXXXXXX.....     ......     XXXXXXXXXXXXXXXXXXXXXXXXXXX...........      XXXXXXXXXXXXXXXXXXXXXXXXXX......XXXXX.....          ",
"XXXXXXXXXXX.....     ......     XXXXXXXXXXXXXXXXXXXXXXXXXXX...........      XXXXXXXXXXXXXXXXXXXXXXXXXX......XXXXX.....          ",
"XXXXXXXXXXX.....     ......     XXXXXXXXXXXXXXXXXXXXXXXXXXX...........      XXXXXXXXXXXXXXXXXXXXXXXXXX......XXXXX.....          ",
"XXXXXXXXXXX.....     ......     XXXXXXXXXXXXXXXXXXXXXXXXXXX...........      XXXXXXXXXXXXXXXXXXXXXXXXXX......XXXXX.....          ",
"XXXXXXXXXXX.....     .......................................................................................XXXXX.....          ",
"XXXXXXXXXXX.....     .......................................................................................XXXXX.....          ",
"XXXXXXXXXXX.....     .......................................................................................XXXXX.....          ",
"XXXXXXXXXXX.....     .......................................................................................XXXXX.....          ",
"XXXXXXXXXXX.....     .......................................................................................XXXXX.....          ",
"XXXXXXXXXXX.....     .......................................................................................XXXXX.....          ",
"XXXXXXXXXXX.....     .......................................................................................XXXXX.....          ",
"XXXXXXXXXXX.....     .......................................................................................XXXXX.....          ",
"XXXXXXXXXXX.....     .......................................................................................XXXXX.....          ",
"XXXXXXXXXXX.....     .......................................................................................XXXXX.....          ",
"XXXXXXXXXXX.....     .......................................................................................XXXXX.....          ",
"XXXXXXXXXXX.....     ......                                ...........                                ......XXXXX.....          ",
"XXXXXXXXXXX.....     ......                                ...........                                ......XXXXX.....          ",
"XXXXXXXXXXX.....     ......                                ...........                                ......XXXXX.....          ",
"XXXXXXXXXXX.....     ......                                ...........                                ......XXXXX.....          ",
"XXXXXXXXXXX.....     ......                                ...........                                ......XXXXX.....          ",
"XXXXXXXXXXX.....     ......                                ...........                                ......XXXXX.....          ",
"XXXXXXXXXXX.....     ......     .....................XXXXXX...........      .....................XXXXX......XXXXX.....          ",
"XXXXXXXXXXX.....     ......     .....................XXXXXX...........      .....................XXXXX......XXXXX.....          ",
"XXXXXXXXXXX.....     ......     .....................XXXXXX...........      .....................XXXXX......XXXXX.....          ",
"XXXXXXXXXXX.....     ......     .....................XXXXXX...........      .....................XXXXX......XXXXX.....          ",
"XXXXXXXXXXX.....     ......     .....................XXXXXX...........      .....................XXXXX......XXXXX.....          ",
"XXXXXXXXXXX.....     ......     .....           .....XXXXXX...........      .....           .....XXXXX......XXXXX.....          ",
"XXXXXXXXXXX.....     ......     .....           .....XXXXXX...........      .....           .....XXXXX......XXXXX.....          ",
"XXXXXXXXXXX.....     ......     .....           .....XXXXXX...........      .....           .....XXXXX......XXXXX.....          ",
"XXXXXXXXXXX.....     ......     .....           .....XXXXXX...........      .....           .....XXXXX......XXXXX.....          ",
"XXXXXXXXXXX.....     ......     .....           .....XXXXXX...........      .....           .....XXXXX......XXXXX.....          ",
"XXXXXXXXXXX.....     ......     .....      XXXXX.....XXXXXX...........      .....     XXXXXX.....XXXXX......XXXXX.....          ",
"XXXXXXXXXXX.....     ......     .....      XXXXX.....XXXXXX...........      .....     XXXXXX.....XXXXX......XXXXX.....          ",
"XXXXXXXXXXX.....     ......     .....      XXXXX.....XXXXXX...........      .....     XXXXXX.....XXXXX......XXXXX.....          ",
"XXXXXXXXXXX.....     ......     .....      XXXXX.....XXXXXX...........      .....     XXXXXX.....XXXXX......XXXXX.....          ",
"XXXXXXXXXXX.....     ......     .....      XXXXX.....XXXXXX...........      .....     XXXXXX.....XXXXX......XXXXX.....          ",
"XXXXXXXXXXX.....     ......     .....      XXXXX.....XXXXXX...........      .....     XXXXXX.....XXXXX......XXXXX.....          ",
"XXXXXXXXXXX.....     ......     .....................XXXXXX...........      .....................XXXXX......XXXXX.....          ",
"XXXXXXXXXXX.....     ......     .....................XXXXXX...........      .....................XXXXX......XXXXX.....          ",
"XXXXXXXXXXX.....     ......     .....................XXXXXX...........      .....................XXXXX......XXXXX.....          ",
"XXXXXXXXXXX.....     ......     .....................XXXXXX...........      .....................XXXXX......XXXXX.....          ",
"XXXXXXXXXXX.....     ......     .....................XXXXXX...........      .....................XXXXX......XXXXX.....          ",
"XXXXXXXXXXX.....     ......     XXXXXXXXXXXXXXXXXXXXXXXXXXX...........      XXXXXXXXXXXXXXXXXXXXXXXXXX......XXXXX.....          ",
"XXXXXXXXXXX.....     ......     XXXXXXXXXXXXXXXXXXXXXXXXXXX...........      XXXXXXXXXXXXXXXXXXXXXXXXXX......XXXXX.....          ",
"XXXXXXXXXXX.....     ......     XXXXXXXXXXXXXXXXXXXXXXXXXXX...........      XXXXXXXXXXXXXXXXXXXXXXXXXX......XXXXX.....          ",
"XXXXXXXXXXX.....     ......     XXXXXXXXXXXXXXXXXXXXXXXXXXX...........      XXXXXXXXXXXXXXXXXXXXXXXXXX......XXXXX.....          ",
"XXXXXXXXXXX.....     ......     XXXXXXXXXXXXXXXXXXXXXXXXXXX...........      XXXXXXXXXXXXXXXXXXXXXXXXXX......XXXXX.....          ",
"XXXXXXXXXXX.....     .......................................................................................XXXXX.....          ",
"XXXXXXXXXXX.....     .......................................................................................XXXXX.....          ",
"XXXXXXXXXXX.....     .......................................................................................XXXXX.....          ",
"XXXXXXXXXXX.....     .......................................................................................XXXXX.....          ",
"XXXXXXXXXXX.....     .......................................................................................XXXXX.....          ",
"XXXXXXXXXXX.....     .......................................................................................XXXXX.....          ",
"XXXXXXXXXXX.....     XXXXXXXXXXXXXXXXXXXXXXXXXXXXXXXXXXXXXXXXXXXXXXXXXXXXXXXXXXXXXXXXXXXXXXXXXXXXXXXXXXXXXXXXXXXX.....          ",
"XXXXXXXXXXX.....     XXXXXXXXXXXXXXXXXXXXXXXXXXXXXXXXXXXXXXXXXXXXXXXXXXXXXXXXXXXXXXXXXXXXXXXXXXXXXXXXXXXXXXXXXXXX.....          ",
"XXXXXXXXXXX.....     XXXXXXXXXXXXXXXXXXXXXXXXXXXXXXXXXXXXXXXXXXXXXXXXXXXXXXXXXXXXXXXXXXXXXXXXXXXXXXXXXXXXXXXXXXXX.....          ",
"XXXXXXXXXXX.....     XXXXXXXXXXXXXXXXXXXXXXXXXXXXXXXXXXXXXXXXXXXXXXXXXXXXXXXXXXXXXXXXXXXXXXXXXXXXXXXXXXXXXXXXXXXX.....          ",
"XXXXXXXXXXX.....     XXXXXXXXXXXXXXXXXXXXXXXXXXXXXXXXXXXXXXXXXXXXXXXXXXXXXXXXXXXXXXXXXXXXXXXXXXXXXXXXXXXXXXXXXXXX.....          ",
"XXXXXXXXXXX...........................................................................................................          ",
"XXXXXXXXXXX...........................................................................................................          ",
"XXXXXXXXXXX...........................................................................................................          ",
"XXXXXXXXXXX...........................................................................................................          ",
"XXXXXXXXXXX...........................................................................................................          ",
"XXXXX......                                                                                                                     ",
"XXXXX......                                                                                                                     ",
"XXXXX......                                                                                                                     ",
"XXXXX......                                                                                                                     ",
"XXXXX......                                                                                                                     ",
"XXXXX......                                                                                                                     ",
".....                                                                                                                           ",
".....                                                                                                                           ",
".....                                                                                                                           ",
".....                                                                                                                           "
};
