/* XPM */
static char *result[] = {
/* columns rows colors chars-per-pixel */
"128 128 7 1 ",
"  c #323236",
". c #433927",
"X c #3A136E",
"o c #4B4B4B",
"O c #FBF236",
"+ c #838184",
"@ c gray63",
/* pixels */
"++++++++++++++++++++++++++++++++ooooo@@@@@@+++++++++++++++++++++++++++++++++ooooo@@@@@++++++++++++++++++++++ooooo+++++oooooo@@@@",
"++++++++++++++++++++++++++++++++ooooo@@@@@@+++++++++++++++++++++++++++++++++ooooo@@@@@++++++++++++++++++++++ooooo+++++oooooo@@@@",
"++++++++++++++++++++++++++++++++ooooo@@@@@@+++++++++++++++++++++++++++++++++ooooo@@@@@++++++++++++++++++++++ooooo+++++oooooo@@@@",
"++++++++++++++++++++++++++++++++ooooo@@@@@@+++++++++++++++++++++++++++++++++ooooo@@@@@++++++++++++++++++++++ooooo+++++oooooo@@@@",
"++++++++++++++++++++++++++++++++ooooo@@@@@@+++++++++++++++++++++++++++++++++ooooo@@@@@++++++++++++++++++++++ooooo+++++oooooo@@@@",
"+++++++++++++++++++++++++++++++++++++@@@@@@++++++++++                       ooooo@@@@@++++++++++++++++++++++@@@@@+++++oooooo@@@@",
"+++++++++++++++++++++++++++++++++++++@@@@@@++++++++++                       ooooo@@@@@++++++++++++++++++++++@@@@@+++++oooooo@@@@",
"+++++++++++++++++++++++++++++++++++++@@@@@@++++++++++                       ooooo@@@@@++++++++++++++++++++++@@@@@+++++oooooo@@@@",
"+++++++++++++++++++++++++++++++++++++@@@@@@++++++++++                       ooooo@@@@@++++++++++++++++++++++@@@@@+++++oooooo@@@@",
"+++++++++++++++++++++++++++++++++++++@@@@@@++++++++++                       ooooo@@@@@++++++++++++++++++++++@@@@@+++++oooooo@@@@",
"+++++++++++++++++++++++++++++++++++++@@@@@@++++++++++                       ooooo@@@@@++++++++++++++++++++++@@@@@+++++oooooo@@@@",
"++++++++++++++++ooooo+++++++++++ooooo@@@@@@+++++     +++++++++++++++++++++++     @@@@@++++++++++++++++++++++++++++++++oooooo@@@@",
"++++++++++++++++ooooo+++++++++++ooooo@@@@@@+++++     +++++++++++++++++++++++     @@@@@++++++++++++++++++++++++++++++++oooooo@@@@",
"++++++++++++++++ooooo+++++++++++ooooo@@@@@@+++++     +++++++++++++++++++++++     @@@@@++++++++++++++++++++++++++++++++oooooo@@@@",
"++++++++++++++++ooooo+++++++++++ooooo@@@@@@+++++     +++++++++++++++++++++++     @@@@@++++++++++++++++++++++++++++++++oooooo@@@@",
"++++++++++++++++ooooo+++++++++++ooooo@@@@@@+++++     +++++++++++++++++++++++     @@@@@++++++++++++++++++++++++++++++++oooooo@@@@",
"+++++++++++ooooo@@@@@+++++++++++ooooo@@@@@@     ++++++++++++++++++++++++++++ooooo     ++++++++++++++++++++++++++++++++oooooo@@@@",
"+++++++++++ooooo@@@@@+++++++++++ooooo@@@@@@     ++++++++++++++++++++++++++++ooooo     ++++++++++++++++++++++++++++++++oooooo@@@@",
"+++++++++++ooooo@@@@@+++++++++++ooooo@@@@@@     ++++++++++++++++++++++++++++ooooo     ++++++++++++++++++++++++++++++++oooooo@@@@",
"+++++++++++ooooo@@@@@+++++++++++ooooo@@@@@@     ++++++++++++++++++++++++++++ooooo     ++++++++++++++++++++++++++++++++oooooo@@@@",
"+++++++++++ooooo@@@@@+++++++++++ooooo@@@@@@     ++++++++++++++++++++++++++++ooooo     ++++++++++++++++++++++++++++++++oooooo@@@@",
"+++++++++++@@@@@++++++++++++++++ooooo      +++++++++++++++++++++++++++++++++ooooo@@@@@      ++++++++++++++++++++++++++oooooo@@@@",
"+++++++++++@@@@@++++++++++++++++ooooo      +++++++++++++++++++++++++++++++++ooooo@@@@@      ++++++++++++++++++++++++++oooooo@@@@",
"+++++++++++@@@@@++++++++++++++++ooooo      +++++++++++++++++++++++++++++++++ooooo@@@@@      ++++++++++++++++++++++++++oooooo@@@@",
"+++++++++++@@@@@++++++++++++++++ooooo      +++++++++++++++++++++++++++++++++ooooo@@@@@      ++++++++++++++++++++++++++oooooo@@@@",
"+++++++++++@@@@@++++++++++++++++ooooo      +++++++++++++++++++++++++++++++++ooooo@@@@@      ++++++++++++++++++++++++++oooooo@@@@",
"+++++++++++@@@@@++++++++++++++++ooooo      +++++++++++++++++++++++++++++++++ooooo@@@@@      ++++++++++++++++++++++++++oooooo@@@@",
"++++++++++++++++++++++++++++++++.................................................................+++++++++++++++++++++oooooo@@@@",
"++++++++++++++++++++++++++++++++.................................................................+++++++++++++++++++++oooooo@@@@",
"++++++++++++++++++++++++++++++++.................................................................+++++++++++++++++++++oooooo@@@@",
"++++++++++++++++++++++++++++++++.................................................................+++++++++++++++++++++oooooo@@@@",
"++++++++++++++++++++++++++++++++.................................................................+++++++++++++++++++++oooooo@@@@",
"++++++++++++++++++++++++++++++++oooooXXXXXXXXXXXXXXXXXXXXXXXXXXXXXXXXXXXXXXXXXXXXXXXXXXXXXXX++++++++++++++++++++++++++oooooo@@@@",
"++++++++++++++++++++++++++++++++oooooXXXXXXXXXXXXXXXXXXXXXXXXXXXXXXXXXXXXXXXXXXXXXXXXXXXXXXX++++++++++++++++++++++++++oooooo@@@@",
"++++++++++++++++++++++++++++++++oooooXXXXXXXXXXXXXXXXXXXXXXXXXXXXXXXXXXXXXXXXXXXXXXXXXXXXXXX++++++++++++++++++++++++++oooooo@@@@",
"++++++++++++++++++++++++++++++++oooooXXXXXXXXXXXXXXXXXXXXXXXXXXXXXXXXXXXXXXXXXXXXXXXXXXXXXXX++++++++++++++++++++++++++oooooo@@@@",
"++++++++++++++++++++++++++++++++oooooXXXXXXXXXXXXXXXXXXXXXXXXXXXXXXXXXXXXXXXXXXXXXXXXXXXXXXX++++++++++++++++++++++++++oooooo@@@@",
"++++++++++++++++++++++++++++++++oooooXXXXXXXXXXXXXXXXXXXXXXXXXXXXXXXXXXXXXXXXXXXXXXXXXXXXXXXoooooooooo++++++++++++++++oooooo@@@@",
"++++++++++++++++++++++++++++++++oooooXXXXXXXXXXXXXXXXXXXXXXXXXXXXXXXXXXXXXXXXXXXXXXXXXXXXXXXoooooooooo++++++++++++++++oooooo@@@@",
"++++++++++++++++++++++++++++++++oooooXXXXXXXXXXXXXXXXXXXXXXXXXXXXXXXXXXXXXXXXXXXXXXXXXXXXXXXoooooooooo++++++++++++++++oooooo@@@@",
"++++++++++++++++++++++++++++++++oooooXXXXXXXXXXXXXXXXXXXXXXXXXXXXXXXXXXXXXXXXXXXXXXXXXXXXXXXoooooooooo++++++++++++++++oooooo@@@@",
"++++++++++++++++++++++++++++++++oooooXXXXXXXXXXXXXXXXXXXXXXXXXXXXXXXXXXXXXXXXXXXXXXXXXXXXXXXoooooooooo++++++++++++++++oooooo@@@@",
"++++++++++++++++++++++++++++++++oooooXXXXXXXXXXXXXXXXXXXXXXXXXXXXXXXXXXXXXXXXXXXXXXXXXXXXXXXoooooooooo++++++++++++++++oooooo@@@@",
"oooooooooooooooooooooooooooooooooooooXXXXXXXXXXXOOOOOOOOOOOOOOOOOOOOOOOOOOOOOOOOOXXXXXXXXXXX@@@@@@@@@@++++++++++++++++oooooooooo",
"oooooooooooooooooooooooooooooooooooooXXXXXXXXXXXOOOOOOOOOOOOOOOOOOOOOOOOOOOOOOOOOXXXXXXXXXXX@@@@@@@@@@++++++++++++++++oooooooooo",
"oooooooooooooooooooooooooooooooooooooXXXXXXXXXXXOOOOOOOOOOOOOOOOOOOOOOOOOOOOOOOOOXXXXXXXXXXX@@@@@@@@@@++++++++++++++++oooooooooo",
"oooooooooooooooooooooooooooooooooooooXXXXXXXXXXXOOOOOOOOOOOOOOOOOOOOOOOOOOOOOOOOOXXXXXXXXXXX@@@@@@@@@@++++++++++++++++oooooooooo",
"oooooooooooooooooooooooooooooooooooooXXXXXXXXXXXOOOOOOOOOOOOOOOOOOOOOOOOOOOOOOOOOXXXXXXXXXXX@@@@@@@@@@++++++++++++++++oooooooooo",
"@@@@@@@@@@@@@@@@+++++@@@@@@@@@@@@@@@@XXXXXXXXXXXXXXXXOOOOOOXXXXXXOOOOOXXXXXXXXXXXXXXXXXXXXXX++++++++++++++++++++++++++oooooo@@@@",
"@@@@@@@@@@@@@@@@+++++@@@@@@@@@@@@@@@@XXXXXXXXXXXXXXXXOOOOOOXXXXXXOOOOOXXXXXXXXXXXXXXXXXXXXXX++++++++++++++++++++++++++oooooo@@@@",
"@@@@@@@@@@@@@@@@+++++@@@@@@@@@@@@@@@@XXXXXXXXXXXXXXXXOOOOOOXXXXXXOOOOOXXXXXXXXXXXXXXXXXXXXXX++++++++++++++++++++++++++oooooo@@@@",
"@@@@@@@@@@@@@@@@+++++@@@@@@@@@@@@@@@@XXXXXXXXXXXXXXXXOOOOOOXXXXXXOOOOOXXXXXXXXXXXXXXXXXXXXXX++++++++++++++++++++++++++oooooo@@@@",
"@@@@@@@@@@@@@@@@+++++@@@@@@@@@@@@@@@@XXXXXXXXXXXXXXXXOOOOOOXXXXXXOOOOOXXXXXXXXXXXXXXXXXXXXXX++++++++++++++++++++++++++oooooo@@@@",
"++++++++++++++++++++++++++++++++@@@@@XXXXXXXXXXXXXXXXXXXXXXXXXXXXXXXXXXXXXXXOOOOOXXXXXXXXXXXooooo+++++oooooooooooooooooooooo@@@@",
"++++++++++++++++++++++++++++++++@@@@@XXXXXXXXXXXXXXXXXXXXXXXXXXXXXXXXXXXXXXXOOOOOXXXXXXXXXXXooooo+++++oooooooooooooooooooooo@@@@",
"++++++++++++++++++++++++++++++++@@@@@XXXXXXXXXXXXXXXXXXXXXXXXXXXXXXXXXXXXXXXOOOOOXXXXXXXXXXXooooo+++++oooooooooooooooooooooo@@@@",
"++++++++++++++++++++++++++++++++@@@@@XXXXXXXXXXXXXXXXXXXXXXXXXXXXXXXXXXXXXXXOOOOOXXXXXXXXXXXooooo+++++oooooooooooooooooooooo@@@@",
"++++++++++++++++++++++++++++++++@@@@@XXXXXXXXXXXXXXXXXXXXXXXXXXXXXXXXXXXXXXXOOOOOXXXXXXXXXXXooooo+++++oooooooooooooooooooooo@@@@",
"++++++++++++++++++++++++++++++++@@@@@XXXXXXXXXXXXXXXXXXXXXXXXXXXXXXXXXXXXXXXOOOOOXXXXXXXXXXXooooo+++++oooooooooooooooooooooo@@@@",
"++++++++++++++++++++++++++++++++@@@@@XXXXXXXXXXXOOOOOXXXXXXOOOOOOXXXXXOOOOOOOOOOOXXXXXXXXXXX@@@@@@@@@@++++++@@@@@@@@@@oooooo@@@@",
"++++++++++++++++++++++++++++++++@@@@@XXXXXXXXXXXOOOOOXXXXXXOOOOOOXXXXXOOOOOOOOOOOXXXXXXXXXXX@@@@@@@@@@++++++@@@@@@@@@@oooooo@@@@",
"++++++++++++++++++++++++++++++++@@@@@XXXXXXXXXXXOOOOOXXXXXXOOOOOOXXXXXOOOOOOOOOOOXXXXXXXXXXX@@@@@@@@@@++++++@@@@@@@@@@oooooo@@@@",
"++++++++++++++++++++++++++++++++@@@@@XXXXXXXXXXXOOOOOXXXXXXOOOOOOXXXXXOOOOOOOOOOOXXXXXXXXXXX@@@@@@@@@@++++++@@@@@@@@@@oooooo@@@@",
"++++++++++++++++++++++++++++++++@@@@@XXXXXXXXXXXOOOOOXXXXXXOOOOOOXXXXXOOOOOOOOOOOXXXXXXXXXXX@@@@@@@@@@++++++@@@@@@@@@@oooooo@@@@",
"++++++++++++++++++++++++++++++++@@@@@XXXXXXXXXXXOOOOOXXXXXXOOOOOOXXXXXOOOOOOOOOOOXXXXXXXXXXX@@@@@@@@@@++++++@@@@@@@@@@oooooo@@@@",
"+++++ooooooooooo++++++++++++++++oooooXXXXXXXXXXXXXXXXXXXXXXOOOOOOXXXXXXXXXXXOOOOOXXXXXXXXXXX++++++++++++++++++++++++++++++++@@@@",
"+++++ooooooooooo++++++++++++++++oooooXXXXXXXXXXXXXXXXXXXXXXOOOOOOXXXXXXXXXXXOOOOOXXXXXXXXXXX++++++++++++++++++++++++++++++++@@@@",
"+++++ooooooooooo++++++++++++++++oooooXXXXXXXXXXXXXXXXXXXXXXOOOOOOXXXXXXXXXXXOOOOOXXXXXXXXXXX++++++++++++++++++++++++++++++++@@@@",
"+++++ooooooooooo++++++++++++++++oooooXXXXXXXXXXXXXXXXXXXXXXOOOOOOXXXXXXXXXXXOOOOOXXXXXXXXXXX++++++++++++++++++++++++++++++++@@@@",
"+++++ooooooooooo++++++++++++++++oooooXXXXXXXXXXXXXXXXXXXXXXOOOOOOXXXXXXXXXXXOOOOOXXXXXXXXXXX++++++++++++++++++++++++++++++++@@@@",
"+++++@@@@@@@@@@@++++++++++++++++oooooXXXXXXXXXXXOOOOOXXXXXXOOOOOOOOOOOXXXXXXOOOOOXXXXXXXXXXX++++++++++++++++++++++++++++++++++++",
"+++++@@@@@@@@@@@++++++++++++++++oooooXXXXXXXXXXXOOOOOXXXXXXOOOOOOOOOOOXXXXXXOOOOOXXXXXXXXXXX++++++++++++++++++++++++++++++++++++",
"+++++@@@@@@@@@@@++++++++++++++++oooooXXXXXXXXXXXOOOOOXXXXXXOOOOOOOOOOOXXXXXXOOOOOXXXXXXXXXXX++++++++++++++++++++++++++++++++++++",
"+++++@@@@@@@@@@@++++++++++++++++oooooXXXXXXXXXXXOOOOOXXXXXXOOOOOOOOOOOXXXXXXOOOOOXXXXXXXXXXX++++++++++++++++++++++++++++++++++++",
"+++++@@@@@@@@@@@++++++++++++++++oooooXXXXXXXXXXXOOOOOXXXXXXOOOOOOOOOOOXXXXXXOOOOOXXXXXXXXXXX++++++++++++++++++++++++++++++++++++",
"+++++@@@@@@@@@@@++++++++++++++++oooooXXXXXXXXXXXOOOOOXXXXXXOOOOOOOOOOOXXXXXXOOOOOXXXXXXXXXXX++++++++++++++++++++++++++++++++++++",
"++++++++++++++++++++++++++++++++oooooXXXXXXXXXXXOOOOOXXXXXXXXXXXXXXXXXXXXXXXXXXXXXXXXXXXXXXX+++++ooooooooooo++++++++++++++++++++",
"++++++++++++++++++++++++++++++++oooooXXXXXXXXXXXOOOOOXXXXXXXXXXXXXXXXXXXXXXXXXXXXXXXXXXXXXXX+++++ooooooooooo++++++++++++++++++++",
"++++++++++++++++++++++++++++++++oooooXXXXXXXXXXXOOOOOXXXXXXXXXXXXXXXXXXXXXXXXXXXXXXXXXXXXXXX+++++ooooooooooo++++++++++++++++++++",
"++++++++++++++++++++++++++++++++oooooXXXXXXXXXXXOOOOOXXXXXXXXXXXXXXXXXXXXXXXXXXXXXXXXXXXXXXX+++++ooooooooooo++++++++++++++++++++",
"++++++++++++++++++++++++++++++++oooooXXXXXXXXXXXOOOOOXXXXXXXXXXXXXXXXXXXXXXXXXXXXXXXXXXXXXXX+++++ooooooooooo++++++++++++++++++++",
"++++++++++++++++++++++++++++++++oooooXXXXXXXXXXXOOOOOXXXXXXOOOOOOXXXXXXXXXXXOOOOOXXXXXXXXXXX+++++@@@@@@@@@@@ooooo+++++++++++@@@@",
"++++++++++++++++++++++++++++++++oooooXXXXXXXXXXXOOOOOXXXXXXOOOOOOXXXXXXXXXXXOOOOOXXXXXXXXXXX+++++@@@@@@@@@@@ooooo+++++++++++@@@@",
"++++++++++++++++++++++++++++++++oooooXXXXXXXXXXXOOOOOXXXXXXOOOOOOXXXXXXXXXXXOOOOOXXXXXXXXXXX+++++@@@@@@@@@@@ooooo+++++++++++@@@@",
"++++++++++++++++++++++++++++++++oooooXXXXXXXXXXXOOOOOXXXXXXOOOOOOXXXXXXXXXXXOOOOOXXXXXXXXXXX+++++@@@@@@@@@@@ooooo+++++++++++@@@@",
"++++++++++++++++++++++++++++++++oooooXXXXXXXXXXXOOOOOXXXXXXOOOOOOXXXXXXXXXXXOOOOOXXXXXXXXXXX+++++@@@@@@@@@@@ooooo+++++++++++@@@@",
"oooooooooooooooooooooooooooooooooooooXXXXXXXXXXXOOOOOXXXXXXOOOOOOOOOOOOOOOOOOOOOOXXXXXXXXXXX++++++++++++++++@@@@@+++++oooooooooo",
"oooooooooooooooooooooooooooooooooooooXXXXXXXXXXXOOOOOXXXXXXOOOOOOOOOOOOOOOOOOOOOOXXXXXXXXXXX++++++++++++++++@@@@@+++++oooooooooo",
"oooooooooooooooooooooooooooooooooooooXXXXXXXXXXXOOOOOXXXXXXOOOOOOOOOOOOOOOOOOOOOOXXXXXXXXXXX++++++++++++++++@@@@@+++++oooooooooo",
"oooooooooooooooooooooooooooooooooooooXXXXXXXXXXXOOOOOXXXXXXOOOOOOOOOOOOOOOOOOOOOOXXXXXXXXXXX++++++++++++++++@@@@@+++++oooooooooo",
"oooooooooooooooooooooooooooooooooooooXXXXXXXXXXXOOOOOXXXXXXOOOOOOOOOOOOOOOOOOOOOOXXXXXXXXXXX++++++++++++++++@@@@@+++++oooooooooo",
"oooooooooooooooooooooooooooooooooooooXXXXXXXXXXXOOOOOXXXXXXOOOOOOOOOOOOOOOOOOOOOOXXXXXXXXXXX++++++++++++++++@@@@@+++++oooooooooo",
"@@@@@@@@@@@@@@@@ooooo@@@@@@@@@@@oooooXXXXXXXXXXXXXXXXXXXXXXXXXXXXXXXXXXXXXXXXXXXXXXXXXXXXXXX++++++++++++++++++++++++++oooooo@@@@",
"@@@@@@@@@@@@@@@@ooooo@@@@@@@@@@@oooooXXXXXXXXXXXXXXXXXXXXXXXXXXXXXXXXXXXXXXXXXXXXXXXXXXXXXXX++++++++++++++++++++++++++oooooo@@@@",
"@@@@@@@@@@@@@@@@ooooo@@@@@@@@@@@oooooXXXXXXXXXXXXXXXXXXXXXXXXXXXXXXXXXXXXXXXXXXXXXXXXXXXXXXX++++++++++++++++++++++++++oooooo@@@@",
"@@@@@@@@@@@@@@@@ooooo@@@@@@@@@@@oooooXXXXXXXXXXXXXXXXXXXXXXXXXXXXXXXXXXXXXXXXXXXXXXXXXXXXXXX++++++++++++++++++++++++++oooooo@@@@",
"@@@@@@@@@@@@@@@@ooooo@@@@@@@@@@@oooooXXXXXXXXXXXXXXXXXXXXXXXXXXXXXXXXXXXXXXXXXXXXXXXXXXXXXXX++++++++++++++++++++++++++oooooo@@@@",
"++++++++++++++++@@@@@+++++++++++oooooXXXXXXXXXXXXXXXXXXXXXXXXXXXXXXXXXXXXXXXXXXXXXXXXXXXXXXX++++++++++++++++++++++++++oooooo@@@@",
"++++++++++++++++@@@@@+++++++++++oooooXXXXXXXXXXXXXXXXXXXXXXXXXXXXXXXXXXXXXXXXXXXXXXXXXXXXXXX++++++++++++++++++++++++++oooooo@@@@",
"++++++++++++++++@@@@@+++++++++++oooooXXXXXXXXXXXXXXXXXXXXXXXXXXXXXXXXXXXXXXXXXXXXXXXXXXXXXXX++++++++++++++++++++++++++oooooo@@@@",
"++++++++++++++++@@@@@+++++++++++oooooXXXXXXXXXXXXXXXXXXXXXXXXXXXXXXXXXXXXXXXXXXXXXXXXXXXXXXX++++++++++++++++++++++++++oooooo@@@@",
"++++++++++++++++@@@@@+++++++++++oooooXXXXXXXXXXXXXXXXXXXXXXXXXXXXXXXXXXXXXXXXXXXXXXXXXXXXXXX++++++++++++++++++++++++++oooooo@@@@",
"+++++++++++++++++++++++++++++++++++++@@@@@@XXXXXXXXXXXXXXXXXXXXXXXXXXXXXXXXXXXXXXXXXXX@@@@@@++++++++++++++++++++++++++oooooo@@@@",
"+++++++++++++++++++++++++++++++++++++@@@@@@XXXXXXXXXXXXXXXXXXXXXXXXXXXXXXXXXXXXXXXXXXX@@@@@@++++++++++++++++++++++++++oooooo@@@@",
"+++++++++++++++++++++++++++++++++++++@@@@@@XXXXXXXXXXXXXXXXXXXXXXXXXXXXXXXXXXXXXXXXXXX@@@@@@++++++++++++++++++++++++++oooooo@@@@",
"+++++++++++++++++++++++++++++++++++++@@@@@@XXXXXXXXXXXXXXXXXXXXXXXXXXXXXXXXXXXXXXXXXXX@@@@@@++++++++++++++++++++++++++oooooo@@@@",
"+++++++++++++++++++++++++++++++++++++@@@@@@XXXXXXXXXXXXXXXXXXXXXXXXXXXXXXXXXXXXXXXXXXX@@@@@@++++++++++++++++++++++++++oooooo@@@@",
"+++++++++++++++++++++++++++++++++++++@@@@@@XXXXXXXXXXXXXXXXXXXXXXXXXXXXXXXXXXXXXXXXXXX@@@@@@++++++++++++++++++++++++++oooooo@@@@",
"ooooo++++++oooooooooo++++++oooooooooo@@@@@@+++++XXXXXXXXXXXXXXXXXXXXXXXXXXXXXXXXX@@@@@++++++++++++++++++++++++++++++++oooooooooo",
"ooooo++++++oooooooooo++++++oooooooooo@@@@@@+++++XXXXXXXXXXXXXXXXXXXXXXXXXXXXXXXXX@@@@@++++++++++++++++++++++++++++++++oooooooooo",
"ooooo++++++oooooooooo++++++oooooooooo@@@@@@+++++XXXXXXXXXXXXXXXXXXXXXXXXXXXXXXXXX@@@@@++++++++++++++++++++++++++++++++oooooooooo",
"ooooo++++++oooooooooo++++++oooooooooo@@@@@@+++++XXXXXXXXXXXXXXXXXXXXXXXXXXXXXXXXX@@@@@++++++++++++++++++++++++++++++++oooooooooo",
"ooooo++++++oooooooooo++++++oooooooooo@@@@@@+++++XXXXXXXXXXXXXXXXXXXXXXXXXXXXXXXXX@@@@@++++++++++++++++++++++++++++++++oooooooooo",
"@@@@@++++++@@@@@@@@@@@@@@@@@@@@@ooooo@@@@@@++++++++++XXXXXXXXXXXXXXXXXXXXXXXooooo@@@@@+++++++++++ooooo++++++++++++++++oooooo@@@@",
"@@@@@++++++@@@@@@@@@@@@@@@@@@@@@ooooo@@@@@@++++++++++XXXXXXXXXXXXXXXXXXXXXXXooooo@@@@@+++++++++++ooooo++++++++++++++++oooooo@@@@",
"@@@@@++++++@@@@@@@@@@@@@@@@@@@@@ooooo@@@@@@++++++++++XXXXXXXXXXXXXXXXXXXXXXXooooo@@@@@+++++++++++ooooo++++++++++++++++oooooo@@@@",
"@@@@@++++++@@@@@@@@@@@@@@@@@@@@@ooooo@@@@@@++++++++++XXXXXXXXXXXXXXXXXXXXXXXooooo@@@@@+++++++++++ooooo++++++++++++++++oooooo@@@@",
"@@@@@++++++@@@@@@@@@@@@@@@@@@@@@ooooo@@@@@@++++++++++XXXXXXXXXXXXXXXXXXXXXXXooooo@@@@@+++++++++++ooooo++++++++++++++++oooooo@@@@",
"++++++++++++++++++++++++++++++++oooooooooooooooooooooooooooXXXXXXXXXXXooooooooooo@@@@@+++++++++++@@@@@++++++++++++++++oooooo@@@@",
"++++++++++++++++++++++++++++++++oooooooooooooooooooooooooooXXXXXXXXXXXooooooooooo@@@@@+++++++++++@@@@@++++++++++++++++oooooo@@@@",
"++++++++++++++++++++++++++++++++oooooooooooooooooooooooooooXXXXXXXXXXXooooooooooo@@@@@+++++++++++@@@@@++++++++++++++++oooooo@@@@",
"++++++++++++++++++++++++++++++++oooooooooooooooooooooooooooXXXXXXXXXXXooooooooooo@@@@@+++++++++++@@@@@++++++++++++++++oooooo@@@@",
"++++++++++++++++++++++++++++++++oooooooooooooooooooooooooooXXXXXXXXXXXooooooooooo@@@@@+++++++++++@@@@@++++++++++++++++oooooo@@@@",
"++++++++++++++++++++++++++++++++oooooooooooooooooooooooooooXXXXXXXXXXXooooooooooo@@@@@+++++++++++@@@@@++++++++++++++++oooooo@@@@",
"++++++++++++++++++++++++++++++++ooooo@@@@@@@@@@@@@@@@@@@@@@@@@@@@@@@@@@@@@@@ooooo@@@@@++++++++++++++++++++++++++++++++oooooo@@@@",
"++++++++++++++++++++++++++++++++ooooo@@@@@@@@@@@@@@@@@@@@@@@@@@@@@@@@@@@@@@@ooooo@@@@@++++++++++++++++++++++++++++++++oooooo@@@@",
"++++++++++++++++++++++++++++++++ooooo@@@@@@@@@@@@@@@@@@@@@@@@@@@@@@@@@@@@@@@ooooo@@@@@++++++++++++++++++++++++++++++++oooooo@@@@",
"++++++++++++++++++++++++++++++++ooooo@@@@@@@@@@@@@@@@@@@@@@@@@@@@@@@@@@@@@@@ooooo@@@@@++++++++++++++++++++++++++++++++oooooo@@@@"
};
