/* XPM */
static char *result[] = {
/* columns rows colors chars-per-pixel */
"128 128 3 1 ",
"  c #4B4B4B",
". c #838184",
"X c gray63",
/* pixels */
"................................     XXXXXX.................................     XXXXX................................      XXXX",
"................................     XXXXXX.................................     XXXXX................................      XXXX",
"................................     XXXXXX.................................     XXXXX................................      XXXX",
"................................     XXXXXX.................................     XXXXX................................      XXXX",
"................................     XXXXXX.................................     XXXXX................................      XXXX",
".....................      .....     XXXXXX......................     ......     XXXXX................      ..........      XXXX",
".....................      .....     XXXXXX......................     ......     XXXXX................      ..........      XXXX",
".....................      .....     XXXXXX......................     ......     XXXXX................      ..........      XXXX",
".....................      .....     XXXXXX......................     ......     XXXXX................      ..........      XXXX",
".....................      .....     XXXXXX......................     ......     XXXXX................      ..........      XXXX",
".....................      .....     XXXXXX......................     ......     XXXXX................      ..........      XXXX",
"................     XXXXXX.....     XXXXXX......................XXXXX......     XXXXX......................     .....      XXXX",
"................     XXXXXX.....     XXXXXX......................XXXXX......     XXXXX......................     .....      XXXX",
"................     XXXXXX.....     XXXXXX......................XXXXX......     XXXXX......................     .....      XXXX",
"................     XXXXXX.....     XXXXXX......................XXXXX......     XXXXX......................     .....      XXXX",
"................     XXXXXX.....     XXXXXX......................XXXXX......     XXXXX......................     .....      XXXX",
"...........     XXXXX...........     XXXXXX.................................     XXXXX...........XXXXX      ..........      XXXX",
"...........     XXXXX...........     XXXXXX.................................     XXXXX...........XXXXX      ..........      XXXX",
"...........     XXXXX...........     XXXXXX.................................     XXXXX...........XXXXX      ..........      XXXX",
"...........     XXXXX...........     XXXXXX.................................     XXXXX...........XXXXX      ..........      XXXX",
"...........     XXXXX...........     XXXXXX.................................     XXXXX...........XXXXX      ..........      XXXX",
"...........XXXXX................     XXXXXX.................................     XXXXX................................      XXXX",
"...........XXXXX................     XXXXXX.................................     XXXXX................................      XXXX",
"...........XXXXX................     XXXXXX.................................     XXXXX................................      XXXX",
"...........XXXXX................     XXXXXX.................................     XXXXX................................      XXXX",
"...........XXXXX................     XXXXXX.................................     XXXXX................................      XXXX",
"...........XXXXX................     XXXXXX.................................     XXXXX................................      XXXX",
"................................     XXXXXX.................................     XXXXX................................      XXXX",
"................................     XXXXXX.................................     XXXXX................................      XXXX",
"................................     XXXXXX.................................     XXXXX................................      XXXX",
"................................     XXXXXX.................................     XXXXX................................      XXXX",
"................................     XXXXXX.................................     XXXXX................................      XXXX",
"................................                .................                XXXXX................................      XXXX",
"................................                .................                XXXXX................................      XXXX",
"................................                .................                XXXXX................................      XXXX",
"................................                .................                XXXXX................................      XXXX",
"................................                .................                XXXXX................................      XXXX",
"................................     XXXXXXXXXXX.................XXXXXXXXXXX     XXXXX................................      XXXX",
"................................     XXXXXXXXXXX.................XXXXXXXXXXX     XXXXX................................      XXXX",
"................................     XXXXXXXXXXX.................XXXXXXXXXXX     XXXXX................................      XXXX",
"................................     XXXXXXXXXXX.................XXXXXXXXXXX     XXXXX................................      XXXX",
"................................     XXXXXXXXXXX.................XXXXXXXXXXX     XXXXX................................      XXXX",
"................................     XXXXXXXXXXX.................XXXXXXXXXXX     XXXXX................................      XXXX",
"                                     XXXXXX......................................XXXXX................................          ",
"                                     XXXXXX......................................XXXXX................................          ",
"                                     XXXXXX......................................XXXXX................................          ",
"                                     XXXXXX......................................XXXXX................................          ",
"                                     XXXXXX......................................XXXXX................................          ",
"XXXXXXXXXXXXXXXXXXXXXXXXXXXXXXXX............................................     .....................................      XXXX",
"XXXXXXXXXXXXXXXXXXXXXXXXXXXXXXXX............................................     .....................................      XXXX",
"XXXXXXXXXXXXXXXXXXXXXXXXXXXXXXXX............................................     .....................................      XXXX",
"XXXXXXXXXXXXXXXXXXXXXXXXXXXXXXXX............................................     .....................................      XXXX",
"XXXXXXXXXXXXXXXXXXXXXXXXXXXXXXXX............................................     .....................................      XXXX",
"................................     XXXXXX..........      .................                                                XXXX",
"................................     XXXXXX..........      .................                                                XXXX",
"................................     XXXXXX..........      .................                                                XXXX",
"................................     XXXXXX..........      .................                                                XXXX",
"................................     XXXXXX..........      .................                                                XXXX",
"................................     XXXXXX..........      .................                                                XXXX",
"................................     XXXXXX.....     XXXXXX.................     XXXXXXXXXXXXXXXXXXXXXXXXXXXXXXXXXXXXX      XXXX",
"................................     XXXXXX.....     XXXXXX.................     XXXXXXXXXXXXXXXXXXXXXXXXXXXXXXXXXXXXX      XXXX",
"................................     XXXXXX.....     XXXXXX.................     XXXXXXXXXXXXXXXXXXXXXXXXXXXXXXXXXXXXX      XXXX",
"................................     XXXXXX.....     XXXXXX.................     XXXXXXXXXXXXXXXXXXXXXXXXXXXXXXXXXXXXX      XXXX",
"................................     XXXXXX.....     XXXXXX.................     XXXXXXXXXXXXXXXXXXXXXXXXXXXXXXXXXXXXX      XXXX",
"................................     XXXXXX.....     XXXXXX.................     XXXXXXXXXXXXXXXXXXXXXXXXXXXXXXXXXXXXX      XXXX",
"................     ...........     XXXXXX.....XXXXX.......................     ...........................................XXXX",
"................     ...........     XXXXXX.....XXXXX.......................     ...........................................XXXX",
"................     ...........     XXXXXX.....XXXXX.......................     ...........................................XXXX",
"................     ...........     XXXXXX.....XXXXX.......................     ...........................................XXXX",
"................     ...........     XXXXXX.....XXXXX.......................     ...........................................XXXX",
"...........     XXXXX      .....     XXXXXX.................................     XXXXX...........                ...............",
"...........     XXXXX      .....     XXXXXX.................................     XXXXX...........                ...............",
"...........     XXXXX      .....     XXXXXX.................................     XXXXX...........                ...............",
"...........     XXXXX      .....     XXXXXX.................................     XXXXX...........                ...............",
"...........     XXXXX      .....     XXXXXX.................................     XXXXX...........                ...............",
"...........     XXXXX      .....     XXXXXX.................................     XXXXX...........                ...............",
"...........XXXXX.....XXXXXX.....                                                 XXXXX...........     XXXXXXXXXXX.....      ....",
"...........XXXXX.....XXXXXX.....                                                 XXXXX...........     XXXXXXXXXXX.....      ....",
"...........XXXXX.....XXXXXX.....                                                 XXXXX...........     XXXXXXXXXXX.....      ....",
"...........XXXXX.....XXXXXX.....                                                 XXXXX...........     XXXXXXXXXXX.....      ....",
"...........XXXXX.....XXXXXX.....                                                 XXXXX...........     XXXXXXXXXXX.....      ....",
"................................     XXXXXXXXXXXXXXXXXXXXXXXXXXXXXXXXXXXXXXX     XXXXX...........XXXXX................      XXXX",
"................................     XXXXXXXXXXXXXXXXXXXXXXXXXXXXXXXXXXXXXXX     XXXXX...........XXXXX................      XXXX",
"................................     XXXXXXXXXXXXXXXXXXXXXXXXXXXXXXXXXXXXXXX     XXXXX...........XXXXX................      XXXX",
"................................     XXXXXXXXXXXXXXXXXXXXXXXXXXXXXXXXXXXXXXX     XXXXX...........XXXXX................      XXXX",
"................................     XXXXXXXXXXXXXXXXXXXXXXXXXXXXXXXXXXXXXXX     XXXXX...........XXXXX................      XXXX",
"                                     XXXXXX.................................     XXXXX................................          ",
"                                     XXXXXX.................................     XXXXX................................          ",
"                                     XXXXXX.................................     XXXXX................................          ",
"                                     XXXXXX.................................     XXXXX................................          ",
"                                     XXXXXX.................................     XXXXX................................          ",
"                                     XXXXXX.................................     XXXXX................................          ",
"XXXXXXXXXXX     XXXXXXXXXXXXXXXX     XXXXXX................      ...........                                                XXXX",
"XXXXXXXXXXX     XXXXXXXXXXXXXXXX     XXXXXX................      ...........                                                XXXX",
"XXXXXXXXXXX     XXXXXXXXXXXXXXXX     XXXXXX................      ...........                                                XXXX",
"XXXXXXXXXXX     XXXXXXXXXXXXXXXX     XXXXXX................      ...........                                                XXXX",
"XXXXXXXXXXX     XXXXXXXXXXXXXXXX     XXXXXX................      ...........                                                XXXX",
"...........     ................     XXXXXX................XXXXXX...........     XXXXXXXXXXXXXXXXXXXXXXXXXXXXXXXXXXXXX      XXXX",
"...........     ................     XXXXXX................XXXXXX...........     XXXXXXXXXXXXXXXXXXXXXXXXXXXXXXXXXXXXX      XXXX",
"...........     ................     XXXXXX................XXXXXX...........     XXXXXXXXXXXXXXXXXXXXXXXXXXXXXXXXXXXXX      XXXX",
"...........     ................     XXXXXX................XXXXXX...........     XXXXXXXXXXXXXXXXXXXXXXXXXXXXXXXXXXXXX      XXXX",
"...........     ................     XXXXXX................XXXXXX...........     XXXXXXXXXXXXXXXXXXXXXXXXXXXXXXXXXXXXX      XXXX",
"................................     XXXXXX.................................     XXXXX................................      XXXX",
"................................     XXXXXX.................................     XXXXX................................      XXXX",
"................................     XXXXXX.................................     XXXXX................................      XXXX",
"................................     XXXXXX.................................     XXXXX................................      XXXX",
"................................     XXXXXX.................................     XXXXX................................      XXXX",
"................................     XXXXXX.................................     XXXXX................................      XXXX",
"                                     XXXXXX.................................     XXXXX................      ..........          ",
"                                     XXXXXX.................................     XXXXX................      ..........          ",
"                                     XXXXXX.................................     XXXXX................      ..........          ",
"                                     XXXXXX.................................     XXXXX................      ..........          ",
"                                     XXXXXX.................................     XXXXX................      ..........          ",
"XXXXXXXXXXXXXXXXXXXXXXXXXXXXXXXX     XXXXXX.................................     XXXXX................XXXXXX................XXXX",
"XXXXXXXXXXXXXXXXXXXXXXXXXXXXXXXX     XXXXXX.................................     XXXXX................XXXXXX................XXXX",
"XXXXXXXXXXXXXXXXXXXXXXXXXXXXXXXX     XXXXXX.................................     XXXXX................XXXXXX................XXXX",
"XXXXXXXXXXXXXXXXXXXXXXXXXXXXXXXX     XXXXXX.................................     XXXXX................XXXXXX................XXXX",
"XXXXXXXXXXXXXXXXXXXXXXXXXXXXXXXX     XXXXXX.................................     XXXXX................XXXXXX................XXXX",
"................................                                                 XXXXX................................      XXXX",
"................................                                                 XXXXX................................      XXXX",
"................................                                                 XXXXX................................      XXXX",
"................................                                                 XXXXX................................      XXXX",
"................................                                                 XXXXX................................      XXXX",
"................................                                                 XXXXX................................      XXXX",
"................................     XXXXXXXXXXXXXXXXXXXXXXXXXXXXXXXXXXXXXXX     XXXXX................................      XXXX",
"................................     XXXXXXXXXXXXXXXXXXXXXXXXXXXXXXXXXXXXXXX     XXXXX................................      XXXX",
"................................     XXXXXXXXXXXXXXXXXXXXXXXXXXXXXXXXXXXXXXX     XXXXX................................      XXXX",
"................................     XXXXXXXXXXXXXXXXXXXXXXXXXXXXXXXXXXXXXXX     XXXXX................................      XXXX"
};
