/* XPM */
static char *result[] = {
/* columns rows colors chars-per-pixel */
"128 128 5 1 ",
"  c #3D4B16",
". c #4B4B4B",
"X c #668154",
"o c #838184",
"O c gray63",
/* pixels */
"OOOOOOOOOOOOOOOO           OOOOOOOOOOOOOOOOXXXXXOOOOOXXXXXXOOOOOOOOOOOOOOOOOOOOOOOOOOOOOOOOOOOOOOOOOOOOOOOOOOOOOOOOOOOOOOOOOoooo",
"OOOOOOOOOOOOOOOO           OOOOOOOOOOOOOOOOXXXXXOOOOOXXXXXXOOOOOOOOOOOOOOOOOOOOOOOOOOOOOOOOOOOOOOOOOOOOOOOOOOOOOOOOOOOOOOOOOoooo",
"OOOOOOOOOOOOOOOO           OOOOOOOOOOOOOOOOXXXXXOOOOOXXXXXXOOOOOOOOOOOOOOOOOOOOOOOOOOOOOOOOOOOOOOOOOOOOOOOOOOOOOOOOOOOOOOOOOoooo",
"OOOOOOOOOOOOOOOO           OOOOOOOOOOOOOOOOXXXXXOOOOOXXXXXXOOOOOOOOOOOOOOOOOOOOOOOOOOOOOOOOOOOOOOOOOOOOOOOOOOOOOOOOOOOOOOOOOoooo",
"OOOOOOOOOOOOOOOO           OOOOOOOOOOOOOOOOXXXXXOOOOOXXXXXXOOOOOOOOOOOOOOOOOOOOOOOOOOOOOOOOOOOOOOOOOOOOOOOOOOOOOOOOOOOOOOOOOoooo",
"OOOOOOOOOOOOOOOOXXXXXXXXXXX     OOOOOXXXXXX                      XXXXXOOOOOOOOOOOOOOOOOOOOOOOOOOOOOOOOOOOOOOOOOOOOOOOOoooooo....",
"OOOOOOOOOOOOOOOOXXXXXXXXXXX     OOOOOXXXXXX                      XXXXXOOOOOOOOOOOOOOOOOOOOOOOOOOOOOOOOOOOOOOOOOOOOOOOOoooooo....",
"OOOOOOOOOOOOOOOOXXXXXXXXXXX     OOOOOXXXXXX                      XXXXXOOOOOOOOOOOOOOOOOOOOOOOOOOOOOOOOOOOOOOOOOOOOOOOOoooooo....",
"OOOOOOOOOOOOOOOOXXXXXXXXXXX     OOOOOXXXXXX                      XXXXXOOOOOOOOOOOOOOOOOOOOOOOOOOOOOOOOOOOOOOOOOOOOOOOOoooooo....",
"OOOOOOOOOOOOOOOOXXXXXXXXXXX     OOOOOXXXXXX                      XXXXXOOOOOOOOOOOOOOOOOOOOOOOOOOOOOOOOOOOOOOOOOOOOOOOOoooooo....",
"OOOOOOOOOOOOOOOOXXXXXXXXXXX     OOOOOXXXXXX                      XXXXXOOOOOOOOOOOOOOOOOOOOOOOOOOOOOOOOOOOOOOOOOOOOOOOOoooooo....",
"OOOOOOOOOOOooooooooooooooooooooo           ooooooooooXXXXXXoooooo           oooooooooooooooooooooooooooooooooooooooooo......XXXX",
"OOOOOOOOOOOooooooooooooooooooooo           ooooooooooXXXXXXoooooo           oooooooooooooooooooooooooooooooooooooooooo......XXXX",
"OOOOOOOOOOOooooooooooooooooooooo           ooooooooooXXXXXXoooooo           oooooooooooooooooooooooooooooooooooooooooo......XXXX",
"OOOOOOOOOOOooooooooooooooooooooo           ooooooooooXXXXXXoooooo           oooooooooooooooooooooooooooooooooooooooooo......XXXX",
"OOOOOOOOOOOooooooooooooooooooooo           ooooooooooXXXXXXoooooo           oooooooooooooooooooooooooooooooooooooooooo......XXXX",
"OOOOOOOOOOOooooo......................................................XXXXXX     XXXXX...........................oooooXXXXXX    ",
"OOOOOOOOOOOooooo......................................................XXXXXX     XXXXX...........................oooooXXXXXX    ",
"OOOOOOOOOOOooooo......................................................XXXXXX     XXXXX...........................oooooXXXXXX    ",
"OOOOOOOOOOOooooo......................................................XXXXXX     XXXXX...........................oooooXXXXXX    ",
"OOOOOOOOOOOooooo......................................................XXXXXX     XXXXX...........................oooooXXXXXX    ",
"OOOOOOOOOOOoooooXXXXXoooooooooooooooooooooooooooooooooooooooooooooooooooooooooooo     ooooooooooooooooooooooOOOOOooooo      ....",
"OOOOOOOOOOOoooooXXXXXoooooooooooooooooooooooooooooooooooooooooooooooooooooooooooo     ooooooooooooooooooooooOOOOOooooo      ....",
"OOOOOOOOOOOoooooXXXXXoooooooooooooooooooooooooooooooooooooooooooooooooooooooooooo     ooooooooooooooooooooooOOOOOooooo      ....",
"OOOOOOOOOOOoooooXXXXXoooooooooooooooooooooooooooooooooooooooooooooooooooooooooooo     ooooooooooooooooooooooOOOOOooooo      ....",
"OOOOOOOOOOOoooooXXXXXoooooooooooooooooooooooooooooooooooooooooooooooooooooooooooo     ooooooooooooooooooooooOOOOOooooo      ....",
"OOOOOOOOOOOoooooXXXXXoooooooooooooooooooooooooooooooooooooooooooooooooooooooooooo     ooooooooooooooooooooooOOOOOooooo      ....",
"OOOOOOOOOOOooooo     oooooo................................ooooooooooo......XXXXXXXXXX................ooooooOOOOOXXXXX      XXXX",
"OOOOOOOOOOOooooo     oooooo................................ooooooooooo......XXXXXXXXXX................ooooooOOOOOXXXXX      XXXX",
"OOOOOOOOOOOooooo     oooooo................................ooooooooooo......XXXXXXXXXX................ooooooOOOOOXXXXX      XXXX",
"OOOOOOOOOOOooooo     oooooo................................ooooooooooo......XXXXXXXXXX................ooooooOOOOOXXXXX      XXXX",
"OOOOOOOOOOOooooo     oooooo................................ooooooooooo......XXXXXXXXXX................ooooooOOOOOXXXXX      XXXX",
"OOOOOOOOOOOooooo     oooooo.....oooooooooooooooooooooOOOOOOooooooooooo......oooooXXXXXoooooooooooOOOOOooooooXXXXX     ..........",
"OOOOOOOOOOOooooo     oooooo.....oooooooooooooooooooooOOOOOOooooooooooo......oooooXXXXXoooooooooooOOOOOooooooXXXXX     ..........",
"OOOOOOOOOOOooooo     oooooo.....oooooooooooooooooooooOOOOOOooooooooooo......oooooXXXXXoooooooooooOOOOOooooooXXXXX     ..........",
"OOOOOOOOOOOooooo     oooooo.....oooooooooooooooooooooOOOOOOooooooooooo......oooooXXXXXoooooooooooOOOOOooooooXXXXX     ..........",
"OOOOOOOOOOOooooo     oooooo.....oooooooooooooooooooooOOOOOOooooooooooo......oooooXXXXXoooooooooooOOOOOooooooXXXXX     ..........",
"OOOOOOOOOOOooooo     XXXXXX.....ooooo...........oooooOOOOOOooooooooooo......ooooo     ......oooooOOOOOooooooOOOOO     XXXXXX....",
"OOOOOOOOOOOooooo     XXXXXX.....ooooo...........oooooOOOOOOooooooooooo......ooooo     ......oooooOOOOOooooooOOOOO     XXXXXX....",
"OOOOOOOOOOOooooo     XXXXXX.....ooooo...........oooooOOOOOOooooooooooo......ooooo     ......oooooOOOOOooooooOOOOO     XXXXXX....",
"OOOOOOOOOOOooooo     XXXXXX.....ooooo...........oooooOOOOOOooooooooooo......ooooo     ......oooooOOOOOooooooOOOOO     XXXXXX....",
"OOOOOOOOOOOooooo     XXXXXX.....ooooo...........oooooOOOOOOooooooooooo......ooooo     ......oooooOOOOOooooooOOOOO     XXXXXX....",
"OOOOOOOOOOOooooo     XXXXXX.....ooooo...........oooooOOOOOOooooooooooo......ooooo     ......oooooOOOOOooooooOOOOO     XXXXXX....",
"OOOOOOOOOOOooooo.....      XXXXXooooo......OOOOOoooooOOOOOOooooooooooo......XXXXX     OOOOOOoooooOOOOOooooooOOOOOooooo      ....",
"OOOOOOOOOOOooooo.....      XXXXXooooo......OOOOOoooooOOOOOOooooooooooo......XXXXX     OOOOOOoooooOOOOOooooooOOOOOooooo      ....",
"OOOOOOOOOOOooooo.....      XXXXXooooo......OOOOOoooooOOOOOOooooooooooo......XXXXX     OOOOOOoooooOOOOOooooooOOOOOooooo      ....",
"OOOOOOOOOOOooooo.....      XXXXXooooo......OOOOOoooooOOOOOOooooooooooo......XXXXX     OOOOOOoooooOOOOOooooooOOOOOooooo      ....",
"OOOOOOOOOOOooooo.....      XXXXXooooo......OOOOOoooooOOOOOOooooooooooo......XXXXX     OOOOOOoooooOOOOOooooooOOOOOooooo      ....",
"OOOOOOOOOOOooooo.....oooooo     oooooooooooooooooooooOOOOOOooooooooooo......ooooo     XXXXXXoooooOOOOOooooooOOOOOooooo......    ",
"OOOOOOOOOOOooooo.....oooooo     oooooooooooooooooooooOOOOOOooooooooooo......ooooo     XXXXXXoooooOOOOOooooooOOOOOooooo......    ",
"OOOOOOOOOOOooooo.....oooooo     oooooooooooooooooooooOOOOOOooooooooooo......ooooo     XXXXXXoooooOOOOOooooooOOOOOooooo......    ",
"OOOOOOOOOOOooooo.....oooooo     oooooooooooooooooooooOOOOOOooooooooooo......ooooo     XXXXXXoooooOOOOOooooooOOOOOooooo......    ",
"OOOOOOOOOOOooooo.....oooooo     oooooooooooooooooooooOOOOOOooooooooooo......ooooo     XXXXXXoooooOOOOOooooooOOOOOooooo......    ",
"OOOOOOOOOOOooooo.....oooooo     OOOOOOOOOOOOOOOOOOOOOOOOOOOooooooooooo......OOOOOOOOOO      OOOOOOOOOOooooooOOOOOoooooXXXXXX    ",
"OOOOOOOOOOOooooo.....oooooo     OOOOOOOOOOOOOOOOOOOOOOOOOOOooooooooooo......OOOOOOOOOO      OOOOOOOOOOooooooOOOOOoooooXXXXXX    ",
"OOOOOOOOOOOooooo.....oooooo     OOOOOOOOOOOOOOOOOOOOOOOOOOOooooooooooo......OOOOOOOOOO      OOOOOOOOOOooooooOOOOOoooooXXXXXX    ",
"OOOOOOOOOOOooooo.....oooooo     OOOOOOOOOOOOOOOOOOOOOOOOOOOooooooooooo......OOOOOOOOOO      OOOOOOOOOOooooooOOOOOoooooXXXXXX    ",
"OOOOOOOOOOOooooo.....oooooo     OOOOOOOOOOOOOOOOOOOOOOOOOOOooooooooooo......OOOOOOOOOO      OOOOOOOOOOooooooOOOOOoooooXXXXXX    ",
"OOOOOOOOOOOooooo.....oooooo     OOOOOOOOOOOOOOOOOOOOOOOOOOOooooooooooo......OOOOOOOOOO      OOOOOOOOOOooooooOOOOOoooooXXXXXX    ",
"OOOOOOOOOOOooooo.....oooooooooooXXXXXoooooooooooooooooooooooooooooooooooooooooooooooooooooooooooooooooooooooOOOOOooooo      XXXX",
"OOOOOOOOOOOooooo.....oooooooooooXXXXXoooooooooooooooooooooooooooooooooooooooooooooooooooooooooooooooooooooooOOOOOooooo      XXXX",
"OOOOOOOOOOOooooo.....oooooooooooXXXXXoooooooooooooooooooooooooooooooooooooooooooooooooooooooooooooooooooooooOOOOOooooo      XXXX",
"OOOOOOOOOOOooooo.....oooooooooooXXXXXoooooooooooooooooooooooooooooooooooooooooooooooooooooooooooooooooooooooOOOOOooooo      XXXX",
"OOOOOOOOOOOooooo.....oooooooooooXXXXXoooooooooooooooooooooooooooooooooooooooooooooooooooooooooooooooooooooooOOOOOooooo      XXXX",
"OOOOOOOOOOOooooo.....oooooooooooXXXXXoooooooooooooooooooooooooooooooooooooooooooooooooooooooooooooooooooooooOOOOOooooo      XXXX",
"OOOOOOOOOOOXXXXX.....ooooooooooooooooooooooooooooooooooooooooooooooooooooooooooooXXXXXooooooooooooooooooooooOOOOOooooo......    ",
"OOOOOOOOOOOXXXXX.....ooooooooooooooooooooooooooooooooooooooooooooooooooooooooooooXXXXXooooooooooooooooooooooOOOOOooooo......    ",
"OOOOOOOOOOOXXXXX.....ooooooooooooooooooooooooooooooooooooooooooooooooooooooooooooXXXXXooooooooooooooooooooooOOOOOooooo......    ",
"OOOOOOOOOOOXXXXX.....ooooooooooooooooooooooooooooooooooooooooooooooooooooooooooooXXXXXooooooooooooooooooooooOOOOOooooo......    ",
"OOOOOOOOOOOXXXXX.....ooooooooooooooooooooooooooooooooooooooooooooooooooooooooooooXXXXXooooooooooooooooooooooOOOOOooooo......    ",
"OOOOOOOOOOO     XXXXXoooooo................................oooooooooooXXXXXX                XXXXX.....ooooooOOOOOooooo......    ",
"OOOOOOOOOOO     XXXXXoooooo................................oooooooooooXXXXXX                XXXXX.....ooooooOOOOOooooo......    ",
"OOOOOOOOOOO     XXXXXoooooo................................oooooooooooXXXXXX                XXXXX.....ooooooOOOOOooooo......    ",
"OOOOOOOOOOO     XXXXXoooooo................................oooooooooooXXXXXX                XXXXX.....ooooooOOOOOooooo......    ",
"OOOOOOOOOOO     XXXXXoooooo................................oooooooooooXXXXXX                XXXXX.....ooooooOOOOOooooo......    ",
"OOOOOOOOOOO     XXXXXoooooo................................oooooooooooXXXXXX                XXXXX.....ooooooOOOOOooooo......    ",
"OOOOOXXXXXX     .....oooooo.....oooooooooooooooooooooOOOOOOooooooooooo......     ooooooooooooooooOOOOOooooooOOOOOoooooXXXXXX    ",
"OOOOOXXXXXX     .....oooooo.....oooooooooooooooooooooOOOOOOooooooooooo......     ooooooooooooooooOOOOOooooooOOOOOoooooXXXXXX    ",
"OOOOOXXXXXX     .....oooooo.....oooooooooooooooooooooOOOOOOooooooooooo......     ooooooooooooooooOOOOOooooooOOOOOoooooXXXXXX    ",
"OOOOOXXXXXX     .....oooooo.....oooooooooooooooooooooOOOOOOooooooooooo......     ooooooooooooooooOOOOOooooooOOOOOoooooXXXXXX    ",
"OOOOOXXXXXX     .....oooooo.....oooooooooooooooooooooOOOOOOooooooooooo......     ooooooooooooooooOOOOOooooooOOOOOoooooXXXXXX    ",
"OOOOOOOOOOO     .....oooooo.....oooooXXXXXX.....oooooOOOOOOooooooooooo      XXXXX     XXXXXXoooooOOOOOooooooOOOOOooooo      XXXX",
"OOOOOOOOOOO     .....oooooo.....oooooXXXXXX.....oooooOOOOOOooooooooooo      XXXXX     XXXXXXoooooOOOOOooooooOOOOOooooo      XXXX",
"OOOOOOOOOOO     .....oooooo.....oooooXXXXXX.....oooooOOOOOOooooooooooo      XXXXX     XXXXXXoooooOOOOOooooooOOOOOooooo      XXXX",
"OOOOOOOOOOO     .....oooooo.....oooooXXXXXX.....oooooOOOOOOooooooooooo      XXXXX     XXXXXXoooooOOOOOooooooOOOOOooooo      XXXX",
"OOOOOOOOOOO     .....oooooo.....oooooXXXXXX.....oooooOOOOOOooooooooooo      XXXXX     XXXXXXoooooOOOOOooooooOOOOOooooo      XXXX",
"OOOOO      XXXXX.....oooooo.....XXXXX      XXXXXoooooOOOOOOoooooooooooXXXXXXooooo     OOOOOOoooooOOOOOooooooOOOOOXXXXX      ....",
"OOOOO      XXXXX.....oooooo.....XXXXX      XXXXXoooooOOOOOOoooooooooooXXXXXXooooo     OOOOOOoooooOOOOOooooooOOOOOXXXXX      ....",
"OOOOO      XXXXX.....oooooo.....XXXXX      XXXXXoooooOOOOOOoooooooooooXXXXXXooooo     OOOOOOoooooOOOOOooooooOOOOOXXXXX      ....",
"OOOOO      XXXXX.....oooooo.....XXXXX      XXXXXoooooOOOOOOoooooooooooXXXXXXooooo     OOOOOOoooooOOOOOooooooOOOOOXXXXX      ....",
"OOOOO      XXXXX.....oooooo.....XXXXX      XXXXXoooooOOOOOOoooooooooooXXXXXXooooo     OOOOOOoooooOOOOOooooooOOOOOXXXXX      ....",
"OOOOO      XXXXX.....oooooo.....XXXXX      XXXXXoooooOOOOOOoooooooooooXXXXXXooooo     OOOOOOoooooOOOOOooooooOOOOOXXXXX      ....",
"OOOOO      ooooo.....oooooo.....ooooo      ooooooooooOOOOOOooooooooooo......oooooXXXXX      oooooOOOOOooooooOOOOOooooo      ....",
"OOOOO      ooooo.....oooooo.....ooooo      ooooooooooOOOOOOooooooooooo......oooooXXXXX      oooooOOOOOooooooOOOOOooooo      ....",
"OOOOO      ooooo.....oooooo.....ooooo      ooooooooooOOOOOOooooooooooo......oooooXXXXX      oooooOOOOOooooooOOOOOooooo      ....",
"OOOOO      ooooo.....oooooo.....ooooo      ooooooooooOOOOOOooooooooooo......oooooXXXXX      oooooOOOOOooooooOOOOOooooo      ....",
"OOOOO      ooooo.....oooooo.....ooooo      ooooooooooOOOOOOooooooooooo......oooooXXXXX      oooooOOOOOooooooOOOOOooooo      ....",
"XXXXX           .....oooooo.....OOOOOXXXXXX     OOOOOOOOOOOooooooooooo......OOOOOOOOOOOOOOOOXXXXXOOOOOooooooOOOOOoooooXXXXXX....",
"XXXXX           .....oooooo.....OOOOOXXXXXX     OOOOOOOOOOOooooooooooo......OOOOOOOOOOOOOOOOXXXXXOOOOOooooooOOOOOoooooXXXXXX....",
"XXXXX           .....oooooo.....OOOOOXXXXXX     OOOOOOOOOOOooooooooooo......OOOOOOOOOOOOOOOOXXXXXOOOOOooooooOOOOOoooooXXXXXX....",
"XXXXX           .....oooooo.....OOOOOXXXXXX     OOOOOOOOOOOooooooooooo......OOOOOOOOOOOOOOOOXXXXXOOOOOooooooOOOOOoooooXXXXXX....",
"XXXXX           .....oooooo.....OOOOOXXXXXX     OOOOOOOOOOOooooooooooo......OOOOOOOOOOOOOOOOXXXXXOOOOOooooooOOOOOoooooXXXXXX....",
"OOOOO      ooooo     XXXXXXoooooooooooooooo     XXXXXoooooooooooooooooooooooooooooooooooooooooooooooooooooooOOOOOooooo..........",
"OOOOO      ooooo     XXXXXXoooooooooooooooo     XXXXXoooooooooooooooooooooooooooooooooooooooooooooooooooooooOOOOOooooo..........",
"OOOOO      ooooo     XXXXXXoooooooooooooooo     XXXXXoooooooooooooooooooooooooooooooooooooooooooooooooooooooOOOOOooooo..........",
"OOOOO      ooooo     XXXXXXoooooooooooooooo     XXXXXoooooooooooooooooooooooooooooooooooooooooooooooooooooooOOOOOooooo..........",
"OOOOO      ooooo     XXXXXXoooooooooooooooo     XXXXXoooooooooooooooooooooooooooooooooooooooooooooooooooooooOOOOOooooo..........",
"OOOOO      ooooo     XXXXXXoooooooooooooooo     XXXXXoooooooooooooooooooooooooooooooooooooooooooooooooooooooOOOOOooooo..........",
"     OOOOOOXXXXX           OOOOOOOOOOOOOOOOOOOOO     OOOOOOXXXXXXOOOOOOOOOOOOOOOOOOOOOOOOOOOOOOOOOOOOO           ooooo..........",
"     OOOOOOXXXXX           OOOOOOOOOOOOOOOOOOOOO     OOOOOOXXXXXXOOOOOOOOOOOOOOOOOOOOOOOOOOOOOOOOOOOOO           ooooo..........",
"     OOOOOOXXXXX           OOOOOOOOOOOOOOOOOOOOO     OOOOOOXXXXXXOOOOOOOOOOOOOOOOOOOOOOOOOOOOOOOOOOOOO           ooooo..........",
"     OOOOOOXXXXX           OOOOOOOOOOOOOOOOOOOOO     OOOOOOXXXXXXOOOOOOOOOOOOOOOOOOOOOOOOOOOOOOOOOOOOO           ooooo..........",
"     OOOOOOXXXXX           OOOOOOOOOOOOOOOOOOOOO     OOOOOOXXXXXXOOOOOOOOOOOOOOOOOOOOOOOOOOOOOOOOOOOOO           ooooo..........",
"     XXXXXXoooooooooo      ooooooooooooooooXXXXX                 oooooooooooooooooooooooooooooooooooooooooooXXXXX     XXXXXX....",
"     XXXXXXoooooooooo      ooooooooooooooooXXXXX                 oooooooooooooooooooooooooooooooooooooooooooXXXXX     XXXXXX....",
"     XXXXXXoooooooooo      ooooooooooooooooXXXXX                 oooooooooooooooooooooooooooooooooooooooooooXXXXX     XXXXXX....",
"     XXXXXXoooooooooo      ooooooooooooooooXXXXX                 oooooooooooooooooooooooooooooooooooooooooooXXXXX     XXXXXX....",
"     XXXXXXoooooooooo      ooooooooooooooooXXXXX                 oooooooooooooooooooooooooooooooooooooooooooXXXXX     XXXXXX....",
"     oooooo..........XXXXXX..........................XXXXXX      XXXXX................................................      ....",
"     oooooo..........XXXXXX..........................XXXXXX      XXXXX................................................      ....",
"     oooooo..........XXXXXX..........................XXXXXX      XXXXX................................................      ....",
"     oooooo..........XXXXXX..........................XXXXXX      XXXXX................................................      ....",
"     oooooo..........XXXXXX..........................XXXXXX      XXXXX................................................      ....",
"     oooooo..........XXXXXX..........................XXXXXX      XXXXX................................................      ....",
"XXXXX............................................................................................................XXXXX      XXXX",
"XXXXX............................................................................................................XXXXX      XXXX",
"XXXXX............................................................................................................XXXXX      XXXX",
"XXXXX............................................................................................................XXXXX      XXXX"
};
