/* XPM */
static char *result[] = {
/* columns rows colors chars-per-pixel */
"128 128 5 1 ",
"  c #3D4B16",
". c #4B4B4B",
"X c #668154",
"o c #838184",
"O c gray63",
/* pixels */
".....oooooooooooooooooooooooooooooooooooooo.....oooooooooooooooooooooooooooooooooooooooooooo     oooooooooooooooooooooooooooOOOO",
".....oooooooooooooooooooooooooooooooooooooo.....oooooooooooooooooooooooooooooooooooooooooooo     oooooooooooooooooooooooooooOOOO",
".....oooooooooooooooooooooooooooooooooooooo.....oooooooooooooooooooooooooooooooooooooooooooo     oooooooooooooooooooooooooooOOOO",
".....oooooooooooooooooooooooooooooooooooooo.....oooooooooooooooooooooooooooooooooooooooooooo     oooooooooooooooooooooooooooOOOO",
".....oooooooooooooooooooooooooooooooooooooo.....oooooooooooooooooooooooooooooooooooooooooooo     oooooooooooooooooooooooooooOOOO",
"OOOOOoooooooooooooooooooooooooooooooooooooo     XXXXX            XXXXXoooooooooooooooooooooo     XXXXXoooooooooooooooo......OOOO",
"OOOOOoooooooooooooooooooooooooooooooooooooo     XXXXX            XXXXXoooooooooooooooooooooo     XXXXXoooooooooooooooo......OOOO",
"OOOOOoooooooooooooooooooooooooooooooooooooo     XXXXX            XXXXXoooooooooooooooooooooo     XXXXXoooooooooooooooo......OOOO",
"OOOOOoooooooooooooooooooooooooooooooooooooo     XXXXX            XXXXXoooooooooooooooooooooo     XXXXXoooooooooooooooo......OOOO",
"OOOOOoooooooooooooooooooooooooooooooooooooo     XXXXX            XXXXXoooooooooooooooooooooo     XXXXXoooooooooooooooo......OOOO",
"OOOOOoooooooooooooooooooooooooooooooooooooo     XXXXX            XXXXXoooooooooooooooooooooo     XXXXXoooooooooooooooo......OOOO",
"ooooooooooooooooooooooooooooooooooooooooooo                ...........XXXXXX.....................           ................OOOO",
"ooooooooooooooooooooooooooooooooooooooooooo                ...........XXXXXX.....................           ................OOOO",
"ooooooooooooooooooooooooooooooooooooooooooo                ...........XXXXXX.....................           ................OOOO",
"ooooooooooooooooooooooooooooooooooooooooooo                ...........XXXXXX.....................           ................OOOO",
"ooooooooooooooooooooooooooooooooooooooooooo                ...........XXXXXX.....................           ................OOOO",
"ooooooooooooooooXXXXXoooooooooooooooooooooo.....oooooOOOOOOOOOOOOOOOOO......XXXXXOOOOOOOOOOOoooooOOOOOOOOOOOOOOOOOOOOO      OOOO",
"ooooooooooooooooXXXXXoooooooooooooooooooooo.....oooooOOOOOOOOOOOOOOOOO......XXXXXOOOOOOOOOOOoooooOOOOOOOOOOOOOOOOOOOOO      OOOO",
"ooooooooooooooooXXXXXoooooooooooooooooooooo.....oooooOOOOOOOOOOOOOOOOO......XXXXXOOOOOOOOOOOoooooOOOOOOOOOOOOOOOOOOOOO      OOOO",
"ooooooooooooooooXXXXXoooooooooooooooooooooo.....oooooOOOOOOOOOOOOOOOOO......XXXXXOOOOOOOOOOOoooooOOOOOOOOOOOOOOOOOOOOO      OOOO",
"ooooooooooooooooXXXXXoooooooooooooooooooooo.....oooooOOOOOOOOOOOOOOOOO......XXXXXOOOOOOOOOOOoooooOOOOOOOOOOOOOOOOOOOOO      OOOO",
"     ooooooooooo.....XXXXXXoooooooooooooooo.....OOOOOooooooooooooooooooooooo.....XXXXXoooooooooooooooooooooooooooooooo      XXXX",
"     ooooooooooo.....XXXXXXoooooooooooooooo.....OOOOOooooooooooooooooooooooo.....XXXXXoooooooooooooooooooooooooooooooo      XXXX",
"     ooooooooooo.....XXXXXXoooooooooooooooo.....OOOOOooooooooooooooooooooooo.....XXXXXoooooooooooooooooooooooooooooooo      XXXX",
"     ooooooooooo.....XXXXXXoooooooooooooooo.....OOOOOooooooooooooooooooooooo.....XXXXXoooooooooooooooooooooooooooooooo      XXXX",
"     ooooooooooo.....XXXXXXoooooooooooooooo.....OOOOOooooooooooooooooooooooo.....XXXXXoooooooooooooooooooooooooooooooo      XXXX",
"     ooooooooooo.....XXXXXXoooooooooooooooo.....OOOOOooooooooooooooooooooooo.....XXXXXoooooooooooooooooooooooooooooooo      XXXX",
"           ..........      .....ooooo...........OOOOOoooooooooooooooooooooooooooo     oooooooooooooooooooooooooooooooo          ",
"           ..........      .....ooooo...........OOOOOoooooooooooooooooooooooooooo     oooooooooooooooooooooooooooooooo          ",
"           ..........      .....ooooo...........OOOOOoooooooooooooooooooooooooooo     oooooooooooooooooooooooooooooooo          ",
"           ..........      .....ooooo...........OOOOOoooooooooooooooooooooooooooo     oooooooooooooooooooooooooooooooo          ",
"           ..........      .....ooooo...........OOOOOoooooooooooooooooooooooooooo     oooooooooooooooooooooooooooooooo          ",
"OOOOOOOOOOOoooooooooo      oooooooooooooooo.....OOOOOoooooooooooo.....ooooooooooo     oooooooooooooooooooooooooooooooo......OOOO",
"OOOOOOOOOOOoooooooooo      oooooooooooooooo.....OOOOOoooooooooooo.....ooooooooooo     oooooooooooooooooooooooooooooooo......OOOO",
"OOOOOOOOOOOoooooooooo      oooooooooooooooo.....OOOOOoooooooooooo.....ooooooooooo     oooooooooooooooooooooooooooooooo......OOOO",
"OOOOOOOOOOOoooooooooo      oooooooooooooooo.....OOOOOoooooooooooo.....ooooooooooo     oooooooooooooooooooooooooooooooo......OOOO",
"OOOOOOOOOOOoooooooooo      oooooooooooooooo.....OOOOOoooooooooooo.....ooooooooooo     oooooooooooooooooooooooooooooooo......OOOO",
"ooooooooooooooooXXXXX      oooooooooooooooo.....OOOOOooooooooooooOOOOOooooooooooo     ooooooooooooooooooooooooooooooooooooooOOOO",
"ooooooooooooooooXXXXX      oooooooooooooooo.....OOOOOooooooooooooOOOOOooooooooooo     ooooooooooooooooooooooooooooooooooooooOOOO",
"ooooooooooooooooXXXXX      oooooooooooooooo.....OOOOOooooooooooooOOOOOooooooooooo     ooooooooooooooooooooooooooooooooooooooOOOO",
"ooooooooooooooooXXXXX      oooooooooooooooo.....OOOOOooooooooooooOOOOOooooooooooo     ooooooooooooooooooooooooooooooooooooooOOOO",
"ooooooooooooooooXXXXX      oooooooooooooooo.....OOOOOooooooooooooOOOOOooooooooooo     ooooooooooooooooooooooooooooooooooooooOOOO",
"ooooooooooooooooXXXXX      oooooooooooooooo.....OOOOOooooooooooooOOOOOooooooooooo     ooooooooooooooooooooooooooooooooooooooOOOO",
"oooooXXXXXX          ......oooooooooooooooo.....OOOOOoooooooooooooooooooooooXXXXX.....oooooooooooooooooooooooooooooooo......OOOO",
"oooooXXXXXX          ......oooooooooooooooo.....OOOOOoooooooooooooooooooooooXXXXX.....oooooooooooooooooooooooooooooooo......OOOO",
"oooooXXXXXX          ......oooooooooooooooo.....OOOOOoooooooooooooooooooooooXXXXX.....oooooooooooooooooooooooooooooooo......OOOO",
"oooooXXXXXX          ......oooooooooooooooo.....OOOOOoooooooooooooooooooooooXXXXX.....oooooooooooooooooooooooooooooooo......OOOO",
"oooooXXXXXX          ......oooooooooooooooo.....OOOOOoooooooooooooooooooooooXXXXX.....oooooooooooooooooooooooooooooooo......OOOO",
"ooooo      .....ooooooooooooooooooooooooooooooooOOOOOoooooooooooooooooXXXXXX.....ooooooooooooooooooooooooooooooooooooo......OOOO",
"ooooo      .....ooooooooooooooooooooooooooooooooOOOOOoooooooooooooooooXXXXXX.....ooooooooooooooooooooooooooooooooooooo......OOOO",
"ooooo      .....ooooooooooooooooooooooooooooooooOOOOOoooooooooooooooooXXXXXX.....ooooooooooooooooooooooooooooooooooooo......OOOO",
"ooooo      .....ooooooooooooooooooooooooooooooooOOOOOoooooooooooooooooXXXXXX.....ooooooooooooooooooooooooooooooooooooo......OOOO",
"ooooo      .....ooooooooooooooooooooooooooooooooOOOOOoooooooooooooooooXXXXXX.....ooooooooooooooooooooooooooooooooooooo......OOOO",
"           oooooooooooooooo.....ooooooooooo.....OOOOOooooooooooooXXXXX      oooooooooooooooooooooooooo......ooooooooooXXXXXX    ",
"           oooooooooooooooo.....ooooooooooo.....OOOOOooooooooooooXXXXX      oooooooooooooooooooooooooo......ooooooooooXXXXXX    ",
"           oooooooooooooooo.....ooooooooooo.....OOOOOooooooooooooXXXXX      oooooooooooooooooooooooooo......ooooooooooXXXXXX    ",
"           oooooooooooooooo.....ooooooooooo.....OOOOOooooooooooooXXXXX      oooooooooooooooooooooooooo......ooooooooooXXXXXX    ",
"           oooooooooooooooo.....ooooooooooo.....OOOOOooooooooooooXXXXX      oooooooooooooooooooooooooo......ooooooooooXXXXXX    ",
"           oooooooooooooooo.....ooooooooooo.....OOOOOooooooooooooXXXXX      oooooooooooooooooooooooooo......ooooooooooXXXXXX    ",
".....ooooooooooooooooooooooOOOOOooooooooooo.....OOOOOXXXXXX           ......ooooooooooooooooooooooooooOOOOOOoooooXXXXX      ....",
".....ooooooooooooooooooooooOOOOOooooooooooo.....OOOOOXXXXXX           ......ooooooooooooooooooooooooooOOOOOOoooooXXXXX      ....",
".....ooooooooooooooooooooooOOOOOooooooooooo.....OOOOOXXXXXX           ......ooooooooooooooooooooooooooOOOOOOoooooXXXXX      ....",
".....ooooooooooooooooooooooOOOOOooooooooooo.....OOOOOXXXXXX           ......ooooooooooooooooooooooooooOOOOOOoooooXXXXX      ....",
".....ooooooooooooooooooooooOOOOOooooooooooo.....OOOOOXXXXXX           ......ooooooooooooooooooooooooooOOOOOOoooooXXXXX      ....",
".....ooooooooooooooooooooooOOOOOooooooooooo.....OOOOOXXXXXX           ......ooooooooooooooooooooooooooOOOOOOoooooXXXXX      ....",
"oooooooooooooooooooooooooooooooooooooXXXXXX          ............oooooooooooooooooooooooooooooooooooooooooooooooo           OOOO",
"oooooooooooooooooooooooooooooooooooooXXXXXX          ............oooooooooooooooooooooooooooooooooooooooooooooooo           OOOO",
"oooooooooooooooooooooooooooooooooooooXXXXXX          ............oooooooooooooooooooooooooooooooooooooooooooooooo           OOOO",
"oooooooooooooooooooooooooooooooooooooXXXXXX          ............oooooooooooooooooooooooooooooooooooooooooooooooo           OOOO",
"oooooooooooooooooooooooooooooooooooooXXXXXX          ............oooooooooooooooooooooooooooooooooooooooooooooooo           OOOO",
"ooooooooooooooooooooooooooooooooXXXXX................oooooooooooooooooooooooooooooooooooooooooooooooooooooooXXXXX...........OOOO",
"ooooooooooooooooooooooooooooooooXXXXX................oooooooooooooooooooooooooooooooooooooooooooooooooooooooXXXXX...........OOOO",
"ooooooooooooooooooooooooooooooooXXXXX................oooooooooooooooooooooooooooooooooooooooooooooooooooooooXXXXX...........OOOO",
"ooooooooooooooooooooooooooooooooXXXXX................oooooooooooooooooooooooooooooooooooooooooooooooooooooooXXXXX...........OOOO",
"ooooooooooooooooooooooooooooooooXXXXX................oooooooooooooooooooooooooooooooooooooooooooooooooooooooXXXXX...........OOOO",
"ooooooooooooooooooooooooooooooooXXXXX................oooooooooooooooooooooooooooooooooooooooooooooooooooooooXXXXX...........OOOO",
"ooooooooooooooooooooooooooo                .....OOOOOoooooooooooooooooXXXXXXoooooooooooooooooooooooooooooooo     ooooo......OOOO",
"ooooooooooooooooooooooooooo                .....OOOOOoooooooooooooooooXXXXXXoooooooooooooooooooooooooooooooo     ooooo......OOOO",
"ooooooooooooooooooooooooooo                .....OOOOOoooooooooooooooooXXXXXXoooooooooooooooooooooooooooooooo     ooooo......OOOO",
"ooooooooooooooooooooooooooo                .....OOOOOoooooooooooooooooXXXXXXoooooooooooooooooooooooooooooooo     ooooo......OOOO",
"ooooooooooooooooooooooooooo                .....OOOOOoooooooooooooooooXXXXXXoooooooooooooooooooooooooooooooo     ooooo......OOOO",
"ooooo...........................     ...........OOOOOooooooooooooooooo......XXXXXoooooooooooooooooooooXXXXXX.....ooooo..........",
"ooooo...........................     ...........OOOOOooooooooooooooooo......XXXXXoooooooooooooooooooooXXXXXX.....ooooo..........",
"ooooo...........................     ...........OOOOOooooooooooooooooo......XXXXXoooooooooooooooooooooXXXXXX.....ooooo..........",
"ooooo...........................     ...........OOOOOooooooooooooooooo......XXXXXoooooooooooooooooooooXXXXXX.....ooooo..........",
"ooooo...........................     ...........OOOOOooooooooooooooooo......XXXXXoooooooooooooooooooooXXXXXX.....ooooo..........",
"OOOOOOOOOOOOOOOO.....OOOOOOOOOOOOOOOOOOOOOO.....OOOOOooooooooooooooooooooooo     ooooooooooooooooooooo......oooooooooo......OOOO",
"OOOOOOOOOOOOOOOO.....OOOOOOOOOOOOOOOOOOOOOO.....OOOOOooooooooooooooooooooooo     ooooooooooooooooooooo......oooooooooo......OOOO",
"OOOOOOOOOOOOOOOO.....OOOOOOOOOOOOOOOOOOOOOO.....OOOOOooooooooooooooooooooooo     ooooooooooooooooooooo......oooooooooo......OOOO",
"OOOOOOOOOOOOOOOO.....OOOOOOOOOOOOOOOOOOOOOO.....OOOOOooooooooooooooooooooooo     ooooooooooooooooooooo......oooooooooo......OOOO",
"OOOOOOOOOOOOOOOO.....OOOOOOOOOOOOOOOOOOOOOO.....OOOOOooooooooooooooooooooooo     ooooooooooooooooooooo......oooooooooo......OOOO",
"OOOOOOOOOOOOOOOO.....OOOOOOOOOOOOOOOOOOOOOO.....OOOOOooooooooooooooooooooooo     ooooooooooooooooooooo......oooooooooo......OOOO",
"oooooooooooooooo.....OOOOOOoooooooooooooooo.....oooooooooooooooooooooooooooo.....XXXXXoooooooooooooooooooooooooooooooo......oooo",
"oooooooooooooooo.....OOOOOOoooooooooooooooo.....oooooooooooooooooooooooooooo.....XXXXXoooooooooooooooooooooooooooooooo......oooo",
"oooooooooooooooo.....OOOOOOoooooooooooooooo.....oooooooooooooooooooooooooooo.....XXXXXoooooooooooooooooooooooooooooooo......oooo",
"oooooooooooooooo.....OOOOOOoooooooooooooooo.....oooooooooooooooooooooooooooo.....XXXXXoooooooooooooooooooooooooooooooo......oooo",
"oooooooooooooooo.....OOOOOOoooooooooooooooo.....oooooooooooooooooooooooooooo.....XXXXXoooooooooooooooooooooooooooooooo......oooo",
"oooooooooooooooo.....OOOOOOoooooooooooooooo     OOOOOoooooooooooooooooooooooooooo.....XXXXXXooooooooooooooooooooo     ......OOOO",
"oooooooooooooooo.....OOOOOOoooooooooooooooo     OOOOOoooooooooooooooooooooooooooo.....XXXXXXooooooooooooooooooooo     ......OOOO",
"oooooooooooooooo.....OOOOOOoooooooooooooooo     OOOOOoooooooooooooooooooooooooooo.....XXXXXXooooooooooooooooooooo     ......OOOO",
"oooooooooooooooo.....OOOOOOoooooooooooooooo     OOOOOoooooooooooooooooooooooooooo.....XXXXXXooooooooooooooooooooo     ......OOOO",
"oooooooooooooooo.....OOOOOOoooooooooooooooo     OOOOOoooooooooooooooooooooooooooo.....XXXXXXooooooooooooooooooooo     ......OOOO",
"oooooooooooooooo.....OOOOOOooooooooooXXXXXX     ......................................           ooooo................      OOOO",
"oooooooooooooooo.....OOOOOOooooooooooXXXXXX     ......................................           ooooo................      OOOO",
"oooooooooooooooo.....OOOOOOooooooooooXXXXXX     ......................................           ooooo................      OOOO",
"oooooooooooooooo.....OOOOOOooooooooooXXXXXX     ......................................           ooooo................      OOOO",
"oooooooooooooooo.....OOOOOOooooooooooXXXXXX     ......................................           ooooo................      OOOO",
"oooooooooooooooo.....OOOOOOooooooooooXXXXXX     ......................................           ooooo................      OOOO",
"     ooooooooooo.....OOOOOOoooooXXXXX           OOOOOOOOOOOOOOOOOoooooOOOOOOOOOOOOOOOO      OOOOOOOOOOOOOOOOOOOOOOOOOO      XXXX",
"     ooooooooooo.....OOOOOOoooooXXXXX           OOOOOOOOOOOOOOOOOoooooOOOOOOOOOOOOOOOO      OOOOOOOOOOOOOOOOOOOOOOOOOO      XXXX",
"     ooooooooooo.....OOOOOOoooooXXXXX           OOOOOOOOOOOOOOOOOoooooOOOOOOOOOOOOOOOO      OOOOOOOOOOOOOOOOOOOOOOOOOO      XXXX",
"     ooooooooooo.....OOOOOOoooooXXXXX           OOOOOOOOOOOOOOOOOoooooOOOOOOOOOOOOOOOO      OOOOOOOOOOOOOOOOOOOOOOOOOO      XXXX",
"     ooooooooooo.....OOOOOOoooooXXXXX           OOOOOOOOOOOOOOOOOoooooOOOOOOOOOOOOOOOO      OOOOOOOOOOOOOOOOOOOOOOOOOO      XXXX",
"           ................                     OOOOOooooooooooooooooooooooooooooooooo      oooooooooooooooooooooooooo          ",
"           ................                     OOOOOooooooooooooooooooooooooooooooooo      oooooooooooooooooooooooooo          ",
"           ................                     OOOOOooooooooooooooooooooooooooooooooo      oooooooooooooooooooooooooo          ",
"           ................                     OOOOOooooooooooooooooooooooooooooooooo      oooooooooooooooooooooooooo          ",
"           ................                     OOOOOooooooooooooooooooooooooooooooooo      oooooooooooooooooooooooooo          ",
"OOOOOOOOOOOoooooOOOOOOOOOOOOOOOOOOOOOOOOOOO.....OOOOOoooooooooooo.....oooooooooooooooo......XXXXXooooooooooooooooooooo......OOOO",
"OOOOOOOOOOOoooooOOOOOOOOOOOOOOOOOOOOOOOOOOO.....OOOOOoooooooooooo.....oooooooooooooooo......XXXXXooooooooooooooooooooo......OOOO",
"OOOOOOOOOOOoooooOOOOOOOOOOOOOOOOOOOOOOOOOOO.....OOOOOoooooooooooo.....oooooooooooooooo......XXXXXooooooooooooooooooooo......OOOO",
"OOOOOOOOOOOoooooOOOOOOOOOOOOOOOOOOOOOOOOOOO.....OOOOOoooooooooooo.....oooooooooooooooo......XXXXXooooooooooooooooooooo......OOOO",
"OOOOOOOOOOOoooooOOOOOOOOOOOOOOOOOOOOOOOOOOO.....OOOOOoooooooooooo.....oooooooooooooooo......XXXXXooooooooooooooooooooo......OOOO",
"OOOOOOOOOOOoooooOOOOOOOOOOOOOOOOOOOOOOOOOOO.....OOOOOoooooooooooo.....oooooooooooooooo......XXXXXooooooooooooooooooooo......OOOO",
"ooooooooooooooooooooooooooooooooooooooooooo.....OOOOOooooooooooooOOOOOoooooooooooooooooooooo     ooooooooooooooooooooo......OOOO",
"ooooooooooooooooooooooooooooooooooooooooooo.....OOOOOooooooooooooOOOOOoooooooooooooooooooooo     ooooooooooooooooooooo......OOOO",
"ooooooooooooooooooooooooooooooooooooooooooo.....OOOOOooooooooooooOOOOOoooooooooooooooooooooo     ooooooooooooooooooooo......OOOO",
"ooooooooooooooooooooooooooooooooooooooooooo.....OOOOOooooooooooooOOOOOoooooooooooooooooooooo     ooooooooooooooooooooo......OOOO"
};
