/* XPM */
static char *_868151ddaca4ae9c5822452f74ba373Pr0kdjom0grHU5KL[] = {
/* columns rows colors chars-per-pixel */
"128 128 4 1 ",
"  c #433927",
". c #4E422D",
"X c #534A3A",
"o c gray25",
/* pixels */
"                                                                                                                                ",
"                                                                                                                                ",
"                                                                                                                                ",
"                                                                                                                                ",
"                                                                                                                                ",
"...........     ...........................     ...........................     ...........................     ................",
"...........     ...........................     ...........................     ...........................     ................",
"...........     ...........................     ...........................     ...........................     ................",
"...........     ...........................     ...........................     ...........................     ................",
"...........     ...........................     ...........................     ...........................     ................",
"...........     ...........................     ...........................     ...........................     ................",
"XXXXXXXXXXX     .....XXXXXXXXXXXXXXXXXXXXXX     .....XXXXXXXXXXXXXXXXXXXXXX     .....XXXXXXXXXXXXXXXXXXXXXX     .....XXXXXXXXXXX",
"XXXXXXXXXXX     .....XXXXXXXXXXXXXXXXXXXXXX     .....XXXXXXXXXXXXXXXXXXXXXX     .....XXXXXXXXXXXXXXXXXXXXXX     .....XXXXXXXXXXX",
"XXXXXXXXXXX     .....XXXXXXXXXXXXXXXXXXXXXX     .....XXXXXXXXXXXXXXXXXXXXXX     .....XXXXXXXXXXXXXXXXXXXXXX     .....XXXXXXXXXXX",
"XXXXXXXXXXX     .....XXXXXXXXXXXXXXXXXXXXXX     .....XXXXXXXXXXXXXXXXXXXXXX     .....XXXXXXXXXXXXXXXXXXXXXX     .....XXXXXXXXXXX",
"XXXXXXXXXXX     .....XXXXXXXXXXXXXXXXXXXXXX     .....XXXXXXXXXXXXXXXXXXXXXX     .....XXXXXXXXXXXXXXXXXXXXXX     .....XXXXXXXXXXX",
"XXXXXXXXXXX     .....XXXXXXoooooXXXXXXXXXXX     .....XXXXXXoooooXXXXXXXXXXX     .....XXXXXXoooooXXXXXXXXXXX     .....XXXXXXooooo",
"XXXXXXXXXXX     .....XXXXXXoooooXXXXXXXXXXX     .....XXXXXXoooooXXXXXXXXXXX     .....XXXXXXoooooXXXXXXXXXXX     .....XXXXXXooooo",
"XXXXXXXXXXX     .....XXXXXXoooooXXXXXXXXXXX     .....XXXXXXoooooXXXXXXXXXXX     .....XXXXXXoooooXXXXXXXXXXX     .....XXXXXXooooo",
"XXXXXXXXXXX     .....XXXXXXoooooXXXXXXXXXXX     .....XXXXXXoooooXXXXXXXXXXX     .....XXXXXXoooooXXXXXXXXXXX     .....XXXXXXooooo",
"XXXXXXXXXXX     .....XXXXXXoooooXXXXXXXXXXX     .....XXXXXXoooooXXXXXXXXXXX     .....XXXXXXoooooXXXXXXXXXXX     .....XXXXXXooooo",
"XXXXXXXXXXX     .....XXXXXXXXXXXXXXXXXXXXXX     .....XXXXXXXXXXXXXXXXXXXXXX     .....XXXXXXXXXXXXXXXXXXXXXX     .....XXXXXXXXXXX",
"XXXXXXXXXXX     .....XXXXXXXXXXXXXXXXXXXXXX     .....XXXXXXXXXXXXXXXXXXXXXX     .....XXXXXXXXXXXXXXXXXXXXXX     .....XXXXXXXXXXX",
"XXXXXXXXXXX     .....XXXXXXXXXXXXXXXXXXXXXX     .....XXXXXXXXXXXXXXXXXXXXXX     .....XXXXXXXXXXXXXXXXXXXXXX     .....XXXXXXXXXXX",
"XXXXXXXXXXX     .....XXXXXXXXXXXXXXXXXXXXXX     .....XXXXXXXXXXXXXXXXXXXXXX     .....XXXXXXXXXXXXXXXXXXXXXX     .....XXXXXXXXXXX",
"XXXXXXXXXXX     .....XXXXXXXXXXXXXXXXXXXXXX     .....XXXXXXXXXXXXXXXXXXXXXX     .....XXXXXXXXXXXXXXXXXXXXXX     .....XXXXXXXXXXX",
"XXXXXXXXXXX     .....XXXXXXXXXXXXXXXXXXXXXX     .....XXXXXXXXXXXXXXXXXXXXXX     .....XXXXXXXXXXXXXXXXXXXXXX     .....XXXXXXXXXXX",
"XXXXXXXXXXX     .....XXXXXXXXXXXXXXXXXXXXXX     .....XXXXXXXXXXXXXXXXXXXXXX     .....XXXXXXXXXXXXXXXXXXXXXX     .....XXXXXXXXXXX",
"XXXXXXXXXXX     .....XXXXXXXXXXXXXXXXXXXXXX     .....XXXXXXXXXXXXXXXXXXXXXX     .....XXXXXXXXXXXXXXXXXXXXXX     .....XXXXXXXXXXX",
"XXXXXXXXXXX     .....XXXXXXXXXXXXXXXXXXXXXX     .....XXXXXXXXXXXXXXXXXXXXXX     .....XXXXXXXXXXXXXXXXXXXXXX     .....XXXXXXXXXXX",
"XXXXXXXXXXX     .....XXXXXXXXXXXXXXXXXXXXXX     .....XXXXXXXXXXXXXXXXXXXXXX     .....XXXXXXXXXXXXXXXXXXXXXX     .....XXXXXXXXXXX",
"XXXXXXXXXXX     .....XXXXXXXXXXXXXXXXXXXXXX     .....XXXXXXXXXXXXXXXXXXXXXX     .....XXXXXXXXXXXXXXXXXXXXXX     .....XXXXXXXXXXX",
"XXXXXXXXXXX     .....XXXXXXXXXXXXXXXXXXXXXX     .....XXXXXXXXXXXXXXXXXXXXXX     .....XXXXXXXXXXXXXXXXXXXXXX     .....XXXXXXXXXXX",
"XXXXXXXXXXX     .....XXXXXXXXXXXXXXXXXXXXXX     .....XXXXXXXXXXXXXXXXXXXXXX     .....XXXXXXXXXXXXXXXXXXXXXX     .....XXXXXXXXXXX",
"XXXXXXXXXXX     .....XXXXXXXXXXXXXXXXXXXXXX     .....XXXXXXXXXXXXXXXXXXXXXX     .....XXXXXXXXXXXXXXXXXXXXXX     .....XXXXXXXXXXX",
"XXXXXXXXXXX     .....XXXXXXXXXXXXXXXXXXXXXX     .....XXXXXXXXXXXXXXXXXXXXXX     .....XXXXXXXXXXXXXXXXXXXXXX     .....XXXXXXXXXXX",
"XXXXXXXXXXX     .....XXXXXXXXXXXXXXXXXXXXXX     .....XXXXXXXXXXXXXXXXXXXXXX     .....XXXXXXXXXXXXXXXXXXXXXX     .....XXXXXXXXXXX",
"XXXXXXXXXXX     .....XXXXXXXXXXXXXXXXXXXXXX     .....XXXXXXXXXXXXXXXXXXXXXX     .....XXXXXXXXXXXXXXXXXXXXXX     .....XXXXXXXXXXX",
"XXXXXXXXXXX     .....XXXXXXXXXXXXXXXXXXXXXX     .....XXXXXXXXXXXXXXXXXXXXXX     .....XXXXXXXXXXXXXXXXXXXXXX     .....XXXXXXXXXXX",
"XXXXXXXXXXX     .....XXXXXXXXXXXXXXXXXXXXXX     .....XXXXXXXXXXXXXXXXXXXXXX     .....XXXXXXXXXXXXXXXXXXXXXX     .....XXXXXXXXXXX",
"XXXXXXXXXXX     .....XXXXXXXXXXXXXXXXXXXXXX     .....XXXXXXXXXXXXXXXXXXXXXX     .....XXXXXXXXXXXXXXXXXXXXXX     .....XXXXXXXXXXX",
"XXXXXXXXXXX     .....XXXXXXXXXXXXXXXXXXXXXX     .....XXXXXXXXXXXXXXXXXXXXXX     .....XXXXXXXXXXXXXXXXXXXXXX     .....XXXXXXXXXXX",
"XXXXXXXXXXX     .....XXXXXXXXXXXXXXXXXXXXXX     .....XXXXXXXXXXXXXXXXXXXXXX     .....XXXXXXXXXXXXXXXXXXXXXX     .....XXXXXXXXXXX",
"XXXXXXXXXXX     .....XXXXXXXXXXXXXXXXXXXXXX     .....XXXXXXXXXXXXXXXXXXXXXX     .....XXXXXXXXXXXXXXXXXXXXXX     .....XXXXXXXXXXX",
"XXXXXXXXXXX     .....XXXXXXXXXXXXXXXXXXXXXX     .....XXXXXXXXXXXXXXXXXXXXXX     .....XXXXXXXXXXXXXXXXXXXXXX     .....XXXXXXXXXXX",
"XXXXXXXXXXX     .....XXXXXXXXXXXXXXXXXXXXXX     .....XXXXXXXXXXXXXXXXXXXXXX     .....XXXXXXXXXXXXXXXXXXXXXX     .....XXXXXXXXXXX",
"XXXXXXXXXXX     .....XXXXXXXXXXXXXXXXXXXXXX     .....XXXXXXXXXXXXXXXXXXXXXX     .....XXXXXXXXXXXXXXXXXXXXXX     .....XXXXXXXXXXX",
"XXXXXXXXXXX     .....XXXXXXXXXXXXXXXXXXXXXX     .....XXXXXXXXXXXXXXXXXXXXXX     .....XXXXXXXXXXXXXXXXXXXXXX     .....XXXXXXXXXXX",
"XXXXXXXXXXX     .....XXXXXXXXXXXXXXXXXXXXXX     .....XXXXXXXXXXXXXXXXXXXXXX     .....XXXXXXXXXXXXXXXXXXXXXX     .....XXXXXXXXXXX",
"XXXXXXXXXXX     .....XXXXXXXXXXXXXXXXXXXXXX     .....XXXXXXXXXXXXXXXXXXXXXX     .....XXXXXXXXXXXXXXXXXXXXXX     .....XXXXXXXXXXX",
"XXXXXXXXXXX     .....XXXXXXXXXXXXXXXXXXXXXX     .....XXXXXXXXXXXXXXXXXXXXXX     .....XXXXXXXXXXXXXXXXXXXXXX     .....XXXXXXXXXXX",
"XXXXXXXXXXX     .....XXXXXXXXXXXXXXXXXXXXXX     .....XXXXXXXXXXXXXXXXXXXXXX     .....XXXXXXXXXXXXXXXXXXXXXX     .....XXXXXXXXXXX",
"XXXXXXXXXXX     .....XXXXXXXXXXXXXXXXXXXXXX     .....XXXXXXXXXXXXXXXXXXXXXX     .....XXXXXXXXXXXXXXXXXXXXXX     .....XXXXXXXXXXX",
"XXXXXXXXXXX     .....XXXXXXXXXXXXXXXXXXXXXX     .....XXXXXXXXXXXXXXXXXXXXXX     .....XXXXXXXXXXXXXXXXXXXXXX     .....XXXXXXXXXXX",
"XXXXXXXXXXX     .....XXXXXXXXXXXXXXXXXXXXXX     .....XXXXXXXXXXXXXXXXXXXXXX     .....XXXXXXXXXXXXXXXXXXXXXX     .....XXXXXXXXXXX",
"XXXXXXXXXXX     .....XXXXXXXXXXXXXXXXXXXXXX     .....XXXXXXXXXXXXXXXXXXXXXX     .....XXXXXXXXXXXXXXXXXXXXXX     .....XXXXXXXXXXX",
"XXXXXXXXXXX     .....XXXXXXXXXXXXXXXXXXXXXX     .....XXXXXXXXXXXXXXXXXXXXXX     .....XXXXXXXXXXXXXXXXXXXXXX     .....XXXXXXXXXXX",
"XXXXXXXXXXX     .....XXXXXXXXXXXXXXXXXXXXXX     .....XXXXXXXXXXXXXXXXXXXXXX     .....XXXXXXXXXXXXXXXXXXXXXX     .....XXXXXXXXXXX",
"XXXXXXXXXXX     .....XXXXXXXXXXXXXXXXXXXXXX     .....XXXXXXXXXXXXXXXXXXXXXX     .....XXXXXXXXXXXXXXXXXXXXXX     .....XXXXXXXXXXX",
"XXXXXXXXXXX     .....XXXXXXXXXXXXXXXXXXXXXX     .....XXXXXXXXXXXXXXXXXXXXXX     .....XXXXXXXXXXXXXXXXXXXXXX     .....XXXXXXXXXXX",
"XXXXXXXXXXX     .....XXXXXXXXXXXXXXXXXXXXXX     .....XXXXXXXXXXXXXXXXXXXXXX     .....XXXXXXXXXXXXXXXXXXXXXX     .....XXXXXXXXXXX",
"XXXXXXXXXXX     .....XXXXXXXXXXXXXXXXXXXXXX     .....XXXXXXXXXXXXXXXXXXXXXX     .....XXXXXXXXXXXXXXXXXXXXXX     .....XXXXXXXXXXX",
"XXXXXXXXXXX     .....XXXXXXXXXXXXXXXXXXXXXX     .....XXXXXXXXXXXXXXXXXXXXXX     .....XXXXXXXXXXXXXXXXXXXXXX     .....XXXXXXXXXXX",
"XXXXXXXXXXX     .....XXXXXXXXXXXXXXXXXXXXXX     .....XXXXXXXXXXXXXXXXXXXXXX     .....XXXXXXXXXXXXXXXXXXXXXX     .....XXXXXXXXXXX",
"XXXXXXXXXXX     .....XXXXXXXXXXXXXXXXXXXXXX     .....XXXXXXXXXXXXXXXXXXXXXX     .....XXXXXXXXXXXXXXXXXXXXXX     .....XXXXXXXXXXX",
"XXXXXXXXXXX     .....XXXXXXXXXXXXXXXXXXXXXX     .....XXXXXXXXXXXXXXXXXXXXXX     .....XXXXXXXXXXXXXXXXXXXXXX     .....XXXXXXXXXXX",
"XXXXXXXXXXX     .....XXXXXXXXXXXXXXXXXXXXXX     .....XXXXXXXXXXXXXXXXXXXXXX     .....XXXXXXXXXXXXXXXXXXXXXX     .....XXXXXXXXXXX",
"XXXXXXXXXXX     .....XXXXXXXXXXXXXXXXXXXXXX     .....XXXXXXXXXXXXXXXXXXXXXX     .....XXXXXXXXXXXXXXXXXXXXXX     .....XXXXXXXXXXX",
"XXXXXXXXXXX     .....XXXXXXXXXXXXXXXXXXXXXX     .....XXXXXXXXXXXXXXXXXXXXXX     .....XXXXXXXXXXXXXXXXXXXXXX     .....XXXXXXXXXXX",
"XXXXXXXXXXX     .....XXXXXXXXXXXXXXXXXXXXXX     .....XXXXXXXXXXXXXXXXXXXXXX     .....XXXXXXXXXXXXXXXXXXXXXX     .....XXXXXXXXXXX",
"XXXXXXXXXXX     .....XXXXXXXXXXXXXXXXXXXXXX     .....XXXXXXXXXXXXXXXXXXXXXX     .....XXXXXXXXXXXXXXXXXXXXXX     .....XXXXXXXXXXX",
"XXXXXXXXXXX     .....XXXXXXXXXXXXXXXXXXXXXX     .....XXXXXXXXXXXXXXXXXXXXXX     .....XXXXXXXXXXXXXXXXXXXXXX     .....XXXXXXXXXXX",
"XXXXXXXXXXX     .....XXXXXXXXXXXXXXXXXXXXXX     .....XXXXXXXXXXXXXXXXXXXXXX     .....XXXXXXXXXXXXXXXXXXXXXX     .....XXXXXXXXXXX",
"XXXXXXXXXXX     .....XXXXXXXXXXXXXXXXXXXXXX     .....XXXXXXXXXXXXXXXXXXXXXX     .....XXXXXXXXXXXXXXXXXXXXXX     .....XXXXXXXXXXX",
"XXXXXXXXXXX     .....XXXXXXXXXXXXXXXXXXXXXX     .....XXXXXXXXXXXXXXXXXXXXXX     .....XXXXXXXXXXXXXXXXXXXXXX     .....XXXXXXXXXXX",
"XXXXXXXXXXX     .....XXXXXXXXXXXXXXXXXXXXXX     .....XXXXXXXXXXXXXXXXXXXXXX     .....XXXXXXXXXXXXXXXXXXXXXX     .....XXXXXXXXXXX",
"XXXXXXXXXXX     .....XXXXXXXXXXXXXXXXXXXXXX     .....XXXXXXXXXXXXXXXXXXXXXX     .....XXXXXXXXXXXXXXXXXXXXXX     .....XXXXXXXXXXX",
"XXXXXXXXXXX     .....XXXXXXXXXXXXXXXXXXXXXX     .....XXXXXXXXXXXXXXXXXXXXXX     .....XXXXXXXXXXXXXXXXXXXXXX     .....XXXXXXXXXXX",
"XXXXXXXXXXX     .....XXXXXXXXXXXXXXXXXXXXXX     .....XXXXXXXXXXXXXXXXXXXXXX     .....XXXXXXXXXXXXXXXXXXXXXX     .....XXXXXXXXXXX",
"XXXXXXXXXXX     .....XXXXXXXXXXXXXXXXXXXXXX     .....XXXXXXXXXXXXXXXXXXXXXX     .....XXXXXXXXXXXXXXXXXXXXXX     .....XXXXXXXXXXX",
"XXXXXXXXXXX     .....XXXXXXXXXXXXXXXXXXXXXX     .....XXXXXXXXXXXXXXXXXXXXXX     .....XXXXXXXXXXXXXXXXXXXXXX     .....XXXXXXXXXXX",
"XXXXXXXXXXX     .....XXXXXXXXXXXXXXXXXXXXXX     .....XXXXXXXXXXXXXXXXXXXXXX     .....XXXXXXXXXXXXXXXXXXXXXX     .....XXXXXXXXXXX",
"XXXXXXXXXXX     .....XXXXXXXXXXXXXXXXXXXXXX     .....XXXXXXXXXXXXXXXXXXXXXX     .....XXXXXXXXXXXXXXXXXXXXXX     .....XXXXXXXXXXX",
"XXXXXXXXXXX     .....XXXXXXXXXXXXXXXXXXXXXX     .....XXXXXXXXXXXXXXXXXXXXXX     .....XXXXXXXXXXXXXXXXXXXXXX     .....XXXXXXXXXXX",
"XXXXXXXXXXX     .....XXXXXXXXXXXXXXXXXXXXXX     .....XXXXXXXXXXXXXXXXXXXXXX     .....XXXXXXXXXXXXXXXXXXXXXX     .....XXXXXXXXXXX",
"XXXXXXXXXXX     .....XXXXXXXXXXXXXXXXXXXXXX     .....XXXXXXXXXXXXXXXXXXXXXX     .....XXXXXXXXXXXXXXXXXXXXXX     .....XXXXXXXXXXX",
"XXXXXXXXXXX     .....XXXXXXXXXXXXXXXXXXXXXX     .....XXXXXXXXXXXXXXXXXXXXXX     .....XXXXXXXXXXXXXXXXXXXXXX     .....XXXXXXXXXXX",
"XXXXXXXXXXX     .....XXXXXXXXXXXXXXXXXXXXXX     .....XXXXXXXXXXXXXXXXXXXXXX     .....XXXXXXXXXXXXXXXXXXXXXX     .....XXXXXXXXXXX",
"XXXXXXXXXXX     .....XXXXXXXXXXXXXXXXXXXXXX     .....XXXXXXXXXXXXXXXXXXXXXX     .....XXXXXXXXXXXXXXXXXXXXXX     .....XXXXXXXXXXX",
"XXXXXXXXXXX     .....XXXXXXXXXXXXXXXXXXXXXX     .....XXXXXXXXXXXXXXXXXXXXXX     .....XXXXXXXXXXXXXXXXXXXXXX     .....XXXXXXXXXXX",
"XXXXXXXXXXX     .....XXXXXXXXXXXXXXXXXXXXXX     .....XXXXXXXXXXXXXXXXXXXXXX     .....XXXXXXXXXXXXXXXXXXXXXX     .....XXXXXXXXXXX",
"XXXXXXXXXXX     .....XXXXXXXXXXXXXXXXXXXXXX     .....XXXXXXXXXXXXXXXXXXXXXX     .....XXXXXXXXXXXXXXXXXXXXXX     .....XXXXXXXXXXX",
"XXXXXXXXXXX     .....XXXXXXXXXXXXXXXXXXXXXX     .....XXXXXXXXXXXXXXXXXXXXXX     .....XXXXXXXXXXXXXXXXXXXXXX     .....XXXXXXXXXXX",
"XXXXXXXXXXX     .....XXXXXXXXXXXXXXXXXXXXXX     .....XXXXXXXXXXXXXXXXXXXXXX     .....XXXXXXXXXXXXXXXXXXXXXX     .....XXXXXXXXXXX",
"XXXXXXXXXXX     .....XXXXXXXXXXXXXXXXXXXXXX     .....XXXXXXXXXXXXXXXXXXXXXX     .....XXXXXXXXXXXXXXXXXXXXXX     .....XXXXXXXXXXX",
"XXXXXXXXXXX     .....XXXXXXXXXXXXXXXXXXXXXX     .....XXXXXXXXXXXXXXXXXXXXXX     .....XXXXXXXXXXXXXXXXXXXXXX     .....XXXXXXXXXXX",
"XXXXXXXXXXX     .....XXXXXXXXXXXXXXXXXXXXXX     .....XXXXXXXXXXXXXXXXXXXXXX     .....XXXXXXXXXXXXXXXXXXXXXX     .....XXXXXXXXXXX",
"XXXXXXXXXXX     .....XXXXXXXXXXXXXXXXXXXXXX     .....XXXXXXXXXXXXXXXXXXXXXX     .....XXXXXXXXXXXXXXXXXXXXXX     .....XXXXXXXXXXX",
"XXXXXXXXXXX     .....XXXXXXXXXXXXXXXXXXXXXX     .....XXXXXXXXXXXXXXXXXXXXXX     .....XXXXXXXXXXXXXXXXXXXXXX     .....XXXXXXXXXXX",
"XXXXXXXXXXX     .....XXXXXXXXXXXXXXXXXXXXXX     .....XXXXXXXXXXXXXXXXXXXXXX     .....XXXXXXXXXXXXXXXXXXXXXX     .....XXXXXXXXXXX",
"XXXXXXXXXXX     .....XXXXXXXXXXXXXXXXXXXXXX     .....XXXXXXXXXXXXXXXXXXXXXX     .....XXXXXXXXXXXXXXXXXXXXXX     .....XXXXXXXXXXX",
"XXXXXXXXXXX     .....XXXXXXXXXXXXXXXXXXXXXX     .....XXXXXXXXXXXXXXXXXXXXXX     .....XXXXXXXXXXXXXXXXXXXXXX     .....XXXXXXXXXXX",
"XXXXXXXXXXX     .....XXXXXXXXXXXXXXXXXXXXXX     .....XXXXXXXXXXXXXXXXXXXXXX     .....XXXXXXXXXXXXXXXXXXXXXX     .....XXXXXXXXXXX",
"XXXXXXXXXXX     .....XXXXXXXXXXXXXXXXXXXXXX     .....XXXXXXXXXXXXXXXXXXXXXX     .....XXXXXXXXXXXXXXXXXXXXXX     .....XXXXXXXXXXX",
"XXXXXXXXXXX     .....XXXXXXXXXXXXXXXXXXXXXX     .....XXXXXXXXXXXXXXXXXXXXXX     .....XXXXXXXXXXXXXXXXXXXXXX     .....XXXXXXXXXXX",
"XXXXXXXXXXX     .....XXXXXXXXXXXXXXXXXXXXXX     .....XXXXXXXXXXXXXXXXXXXXXX     .....XXXXXXXXXXXXXXXXXXXXXX     .....XXXXXXXXXXX",
"XXXXXXXXXXX     .....XXXXXXXXXXXXXXXXXXXXXX     .....XXXXXXXXXXXXXXXXXXXXXX     .....XXXXXXXXXXXXXXXXXXXXXX     .....XXXXXXXXXXX",
"XXXXXXXXXXX     .....XXXXXXXXXXXXXXXXXXXXXX     .....XXXXXXXXXXXXXXXXXXXXXX     .....XXXXXXXXXXXXXXXXXXXXXX     .....XXXXXXXXXXX",
"XXXXXXXXXXX     .....XXXXXXXXXXXXXXXXXXXXXX     .....XXXXXXXXXXXXXXXXXXXXXX     .....XXXXXXXXXXXXXXXXXXXXXX     .....XXXXXXXXXXX",
"XXXXXXXXXXX     .....XXXXXXXXXXXXXXXXXXXXXX     .....XXXXXXXXXXXXXXXXXXXXXX     .....XXXXXXXXXXXXXXXXXXXXXX     .....XXXXXXXXXXX",
"XXXXXXXXXXX     .....XXXXXXXXXXXXXXXXXXXXXX     .....XXXXXXXXXXXXXXXXXXXXXX     .....XXXXXXXXXXXXXXXXXXXXXX     .....XXXXXXXXXXX",
"XXXXXXXXXXX     .....XXXXXXXXXXXXXXXXXXXXXX     .....XXXXXXXXXXXXXXXXXXXXXX     .....XXXXXXXXXXXXXXXXXXXXXX     .....XXXXXXXXXXX",
"XXXXXXXXXXX     .....XXXXXXXXXXXXXXXXXXXXXX     .....XXXXXXXXXXXXXXXXXXXXXX     .....XXXXXXXXXXXXXXXXXXXXXX     .....XXXXXXXXXXX",
"XXXXXXXXXXX     .....XXXXXXXXXXXXXXXXXXXXXX     .....XXXXXXXXXXXXXXXXXXXXXX     .....XXXXXXXXXXXXXXXXXXXXXX     .....XXXXXXXXXXX",
"XXXXXXXXXXX     .....XXXXXXXXXXXXXXXXXXXXXX     .....XXXXXXXXXXXXXXXXXXXXXX     .....XXXXXXXXXXXXXXXXXXXXXX     .....XXXXXXXXXXX",
"XXXXXXXXXXX     .....XXXXXXXXXXXXXXXXXXXXXX     .....XXXXXXXXXXXXXXXXXXXXXX     .....XXXXXXXXXXXXXXXXXXXXXX     .....XXXXXXXXXXX",
"XXXXXXXXXXX     .....XXXXXXXXXXXXXXXXXXXXXX     .....XXXXXXXXXXXXXXXXXXXXXX     .....XXXXXXXXXXXXXXXXXXXXXX     .....XXXXXXXXXXX",
"XXXXXXXXXXX     .....XXXXXXoooooXXXXXXXXXXX     .....XXXXXXoooooXXXXXXXXXXX     .....XXXXXXoooooXXXXXXXXXXX     .....XXXXXXooooo",
"XXXXXXXXXXX     .....XXXXXXoooooXXXXXXXXXXX     .....XXXXXXoooooXXXXXXXXXXX     .....XXXXXXoooooXXXXXXXXXXX     .....XXXXXXooooo",
"XXXXXXXXXXX     .....XXXXXXoooooXXXXXXXXXXX     .....XXXXXXoooooXXXXXXXXXXX     .....XXXXXXoooooXXXXXXXXXXX     .....XXXXXXooooo",
"XXXXXXXXXXX     .....XXXXXXoooooXXXXXXXXXXX     .....XXXXXXoooooXXXXXXXXXXX     .....XXXXXXoooooXXXXXXXXXXX     .....XXXXXXooooo",
"XXXXXXXXXXX     .....XXXXXXoooooXXXXXXXXXXX     .....XXXXXXoooooXXXXXXXXXXX     .....XXXXXXoooooXXXXXXXXXXX     .....XXXXXXooooo",
"XXXXXXXXXXX     .....XXXXXXoooooXXXXXXXXXXX     .....XXXXXXoooooXXXXXXXXXXX     .....XXXXXXoooooXXXXXXXXXXX     .....XXXXXXooooo",
"XXXXXXXXXXX     .....XXXXXXXXXXXXXXXXXXXXXX     .....XXXXXXXXXXXXXXXXXXXXXX     .....XXXXXXXXXXXXXXXXXXXXXX     .....XXXXXXXXXXX",
"XXXXXXXXXXX     .....XXXXXXXXXXXXXXXXXXXXXX     .....XXXXXXXXXXXXXXXXXXXXXX     .....XXXXXXXXXXXXXXXXXXXXXX     .....XXXXXXXXXXX",
"XXXXXXXXXXX     .....XXXXXXXXXXXXXXXXXXXXXX     .....XXXXXXXXXXXXXXXXXXXXXX     .....XXXXXXXXXXXXXXXXXXXXXX     .....XXXXXXXXXXX",
"XXXXXXXXXXX     .....XXXXXXXXXXXXXXXXXXXXXX     .....XXXXXXXXXXXXXXXXXXXXXX     .....XXXXXXXXXXXXXXXXXXXXXX     .....XXXXXXXXXXX",
"XXXXXXXXXXX     .....XXXXXXXXXXXXXXXXXXXXXX     .....XXXXXXXXXXXXXXXXXXXXXX     .....XXXXXXXXXXXXXXXXXXXXXX     .....XXXXXXXXXXX"
};
