/* XPM */
static char *result[] = {
/* columns rows colors chars-per-pixel */
"128 128 7 1 ",
"  c #323236",
". c #433927",
"X c #4E422D",
"o c #534A3A",
"O c #3A136E",
"+ c gray25",
"@ c #FBF236",
/* pixels */
"................................................................................................................................",
"................................................................................................................................",
"................................................................................................................................",
"................................................................................................................................",
"................................................................................................................................",
"XXXXXXXXXXX.....XXXXXXXXXXXXXXXXXXXXXXXXXXX.....XXXXXXXXXXXXXXXXXXXXXXXXXXX.....XXXXXXXXXXXXXXXXXXXXXXXXXXX.....XXXXXXXXXXXXXXXX",
"XXXXXXXXXXX.....XXXXXXXXXXXXXXXXXXXXXXXXXXX.....XXXXXXXXXXXXXXXXXXXXXXXXXXX.....XXXXXXXXXXXXXXXXXXXXXXXXXXX.....XXXXXXXXXXXXXXXX",
"XXXXXXXXXXX.....XXXXXXXXXXXXXXXXXXXXXXXXXXX.....XXXXXXXXXXXXXXXXXXXXXXXXXXX.....XXXXXXXXXXXXXXXXXXXXXXXXXXX.....XXXXXXXXXXXXXXXX",
"XXXXXXXXXXX.....XXXXXXXXXXXXXXXXXXXXXXXXXXX.....XXXXXXXXXXXXXXXXXXXXXXXXXXX.....XXXXXXXXXXXXXXXXXXXXXXXXXXX.....XXXXXXXXXXXXXXXX",
"XXXXXXXXXXX.....XXXXXXXXXXXXXXXXXXXXXXXXXXX.....XXXXXXXXXXXXXXXXXXXXXXXXXXX.....XXXXXXXXXXXXXXXXXXXXXXXXXXX.....XXXXXXXXXXXXXXXX",
"XXXXXXXXXXX.....XXXXXXXXXXXXXXXXXXXXXXXXXXX.....XXXXXXXXXXXXXXXXXXXXXXXXXXX.....XXXXXXXXXXXXXXXXXXXXXXXXXXX.....XXXXXXXXXXXXXXXX",
"ooooooooooo.....XXXXXoooooooooooooooooooooo.....XXXXX                      .....XXXXXoooooooooooooooooooooo.....XXXXXooooooooooo",
"ooooooooooo.....XXXXXoooooooooooooooooooooo.....XXXXX                      .....XXXXXoooooooooooooooooooooo.....XXXXXooooooooooo",
"ooooooooooo.....XXXXXoooooooooooooooooooooo.....XXXXX                      .....XXXXXoooooooooooooooooooooo.....XXXXXooooooooooo",
"ooooooooooo.....XXXXXoooooooooooooooooooooo.....XXXXX                      .....XXXXXoooooooooooooooooooooo.....XXXXXooooooooooo",
"ooooooooooo.....XXXXXoooooooooooooooooooooo.....XXXXX                      .....XXXXXoooooooooooooooooooooo.....XXXXXooooooooooo",
"ooooooooooo.....XXXXXoooooo+++++ooooooooooo.....     oooooo++++++++++oooooo     XXXXXoooooo+++++ooooooooooo.....XXXXXoooooo+++++",
"ooooooooooo.....XXXXXoooooo+++++ooooooooooo.....     oooooo++++++++++oooooo     XXXXXoooooo+++++ooooooooooo.....XXXXXoooooo+++++",
"ooooooooooo.....XXXXXoooooo+++++ooooooooooo.....     oooooo++++++++++oooooo     XXXXXoooooo+++++ooooooooooo.....XXXXXoooooo+++++",
"ooooooooooo.....XXXXXoooooo+++++ooooooooooo.....     oooooo++++++++++oooooo     XXXXXoooooo+++++ooooooooooo.....XXXXXoooooo+++++",
"ooooooooooo.....XXXXXoooooo+++++ooooooooooo.....     oooooo++++++++++oooooo     XXXXXoooooo+++++ooooooooooo.....XXXXXoooooo+++++",
"ooooooooooo.....XXXXXoooooooooooooooooooooo     XXXXXoooooooooooooooooooooo.....     oooooooooooooooooooooo.....XXXXXooooooooooo",
"ooooooooooo.....XXXXXoooooooooooooooooooooo     XXXXXoooooooooooooooooooooo.....     oooooooooooooooooooooo.....XXXXXooooooooooo",
"ooooooooooo.....XXXXXoooooooooooooooooooooo     XXXXXoooooooooooooooooooooo.....     oooooooooooooooooooooo.....XXXXXooooooooooo",
"ooooooooooo.....XXXXXoooooooooooooooooooooo     XXXXXoooooooooooooooooooooo.....     oooooooooooooooooooooo.....XXXXXooooooooooo",
"ooooooooooo.....XXXXXoooooooooooooooooooooo     XXXXXoooooooooooooooooooooo.....     oooooooooooooooooooooo.....XXXXXooooooooooo",
"ooooooooooo.....XXXXXoooooooooooooooooooooo     XXXXXoooooooooooooooooooooo.....     oooooooooooooooooooooo.....XXXXXooooooooooo",
"ooooooooooo.....XXXXXoooooooooooooooo      .....XXXXXoooooooooooooooooooooo.....XXXXX      oooooooooooooooo.....XXXXXooooooooooo",
"ooooooooooo.....XXXXXoooooooooooooooo      .....XXXXXoooooooooooooooooooooo.....XXXXX      oooooooooooooooo.....XXXXXooooooooooo",
"ooooooooooo.....XXXXXoooooooooooooooo      .....XXXXXoooooooooooooooooooooo.....XXXXX      oooooooooooooooo.....XXXXXooooooooooo",
"ooooooooooo.....XXXXXoooooooooooooooo      .....XXXXXoooooooooooooooooooooo.....XXXXX      oooooooooooooooo.....XXXXXooooooooooo",
"ooooooooooo.....XXXXXoooooooooooooooo      .....XXXXXoooooooooooooooooooooo.....XXXXX      oooooooooooooooo.....XXXXXooooooooooo",
"ooooooooooo.....XXXXXooooooooooo................................................................ooooooooooo.....XXXXXooooooooooo",
"ooooooooooo.....XXXXXooooooooooo................................................................ooooooooooo.....XXXXXooooooooooo",
"ooooooooooo.....XXXXXooooooooooo................................................................ooooooooooo.....XXXXXooooooooooo",
"ooooooooooo.....XXXXXooooooooooo................................................................ooooooooooo.....XXXXXooooooooooo",
"ooooooooooo.....XXXXXooooooooooo................................................................ooooooooooo.....XXXXXooooooooooo",
"ooooooooooo.....XXXXXooooooooooooooooOOOOOOOOOOOOOOOOOOOOOOOOOOOOOOOOOOOOOOOOOOOOOOOOOOOOOOoooooooooooooooo.....XXXXXooooooooooo",
"ooooooooooo.....XXXXXooooooooooooooooOOOOOOOOOOOOOOOOOOOOOOOOOOOOOOOOOOOOOOOOOOOOOOOOOOOOOOoooooooooooooooo.....XXXXXooooooooooo",
"ooooooooooo.....XXXXXooooooooooooooooOOOOOOOOOOOOOOOOOOOOOOOOOOOOOOOOOOOOOOOOOOOOOOOOOOOOOOoooooooooooooooo.....XXXXXooooooooooo",
"ooooooooooo.....XXXXXooooooooooooooooOOOOOOOOOOOOOOOOOOOOOOOOOOOOOOOOOOOOOOOOOOOOOOOOOOOOOOoooooooooooooooo.....XXXXXooooooooooo",
"ooooooooooo.....XXXXXooooooooooooooooOOOOOOOOOOOOOOOOOOOOOOOOOOOOOOOOOOOOOOOOOOOOOOOOOOOOOOoooooooooooooooo.....XXXXXooooooooooo",
"ooooooooooo.....XXXXXooooooooooooooooOOOOOOOOOOOOOOOOOOOOOOOOOOOOOOOOOOOOOOOOOOOOOOOOOOOOOOoooooooooooooooo.....XXXXXooooooooooo",
"ooooooooooo.....XXXXXooooooooooooooooOOOOOOOOOOOOOOOOOOOOOOOOOOOOOOOOOOOOOOOOOOOOOOOOOOOOOOoooooooooooooooo.....XXXXXooooooooooo",
"ooooooooooo.....XXXXXooooooooooooooooOOOOOOOOOOOOOOOOOOOOOOOOOOOOOOOOOOOOOOOOOOOOOOOOOOOOOOoooooooooooooooo.....XXXXXooooooooooo",
"ooooooooooo.....XXXXXooooooooooooooooOOOOOOOOOOOOOOOOOOOOOOOOOOOOOOOOOOOOOOOOOOOOOOOOOOOOOOoooooooooooooooo.....XXXXXooooooooooo",
"ooooooooooo.....XXXXXooooooooooooooooOOOOOOOOOOOOOOOOOOOOOOOOOOOOOOOOOOOOOOOOOOOOOOOOOOOOOOoooooooooooooooo.....XXXXXooooooooooo",
"ooooooooooo.....XXXXXooooooooooooooooOOOOOOOOOOOOOOOOOOOOOOOOOOOOOOOOOOOOOOOOOOOOOOOOOOOOOOoooooooooooooooo.....XXXXXooooooooooo",
"ooooooooooo.....XXXXXooooooooooooooooOOOOOOOOOOO@@@@@@@@@@@@@@@@@@@@@@@@@@@@@@@@OOOOOOOOOOOoooooooooooooooo.....XXXXXooooooooooo",
"ooooooooooo.....XXXXXooooooooooooooooOOOOOOOOOOO@@@@@@@@@@@@@@@@@@@@@@@@@@@@@@@@OOOOOOOOOOOoooooooooooooooo.....XXXXXooooooooooo",
"ooooooooooo.....XXXXXooooooooooooooooOOOOOOOOOOO@@@@@@@@@@@@@@@@@@@@@@@@@@@@@@@@OOOOOOOOOOOoooooooooooooooo.....XXXXXooooooooooo",
"ooooooooooo.....XXXXXooooooooooooooooOOOOOOOOOOO@@@@@@@@@@@@@@@@@@@@@@@@@@@@@@@@OOOOOOOOOOOoooooooooooooooo.....XXXXXooooooooooo",
"ooooooooooo.....XXXXXooooooooooooooooOOOOOOOOOOO@@@@@@@@@@@@@@@@@@@@@@@@@@@@@@@@OOOOOOOOOOOoooooooooooooooo.....XXXXXooooooooooo",
"ooooooooooo.....XXXXXooooooooooooooooOOOOOOOOOOOOOOOO@@@@@@OOOOO@@@@@OOOOOOOOOOOOOOOOOOOOOOoooooooooooooooo.....XXXXXooooooooooo",
"ooooooooooo.....XXXXXooooooooooooooooOOOOOOOOOOOOOOOO@@@@@@OOOOO@@@@@OOOOOOOOOOOOOOOOOOOOOOoooooooooooooooo.....XXXXXooooooooooo",
"ooooooooooo.....XXXXXooooooooooooooooOOOOOOOOOOOOOOOO@@@@@@OOOOO@@@@@OOOOOOOOOOOOOOOOOOOOOOoooooooooooooooo.....XXXXXooooooooooo",
"ooooooooooo.....XXXXXooooooooooooooooOOOOOOOOOOOOOOOO@@@@@@OOOOO@@@@@OOOOOOOOOOOOOOOOOOOOOOoooooooooooooooo.....XXXXXooooooooooo",
"ooooooooooo.....XXXXXooooooooooooooooOOOOOOOOOOOOOOOO@@@@@@OOOOO@@@@@OOOOOOOOOOOOOOOOOOOOOOoooooooooooooooo.....XXXXXooooooooooo",
"ooooooooooo.....XXXXXooooooooooooooooOOOOOOOOOOOOOOOO@@@@@@OOOOO@@@@@OOOOOOOOOOOOOOOOOOOOOOoooooooooooooooo.....XXXXXooooooooooo",
"ooooooooooo.....XXXXXooooooooooooooooOOOOOOOOOOOOOOOOOOOOOOOOOOOOOOOOOOOOOO@@@@@OOOOOOOOOOOoooooooooooooooo.....XXXXXooooooooooo",
"ooooooooooo.....XXXXXooooooooooooooooOOOOOOOOOOOOOOOOOOOOOOOOOOOOOOOOOOOOOO@@@@@OOOOOOOOOOOoooooooooooooooo.....XXXXXooooooooooo",
"ooooooooooo.....XXXXXooooooooooooooooOOOOOOOOOOOOOOOOOOOOOOOOOOOOOOOOOOOOOO@@@@@OOOOOOOOOOOoooooooooooooooo.....XXXXXooooooooooo",
"ooooooooooo.....XXXXXooooooooooooooooOOOOOOOOOOOOOOOOOOOOOOOOOOOOOOOOOOOOOO@@@@@OOOOOOOOOOOoooooooooooooooo.....XXXXXooooooooooo",
"ooooooooooo.....XXXXXooooooooooooooooOOOOOOOOOOOOOOOOOOOOOOOOOOOOOOOOOOOOOO@@@@@OOOOOOOOOOOoooooooooooooooo.....XXXXXooooooooooo",
"ooooooooooo.....XXXXXooooooooooooooooOOOOOOOOOOO@@@@@OOOOOO@@@@@OOOOO@@@@@@@@@@@OOOOOOOOOOOoooooooooooooooo.....XXXXXooooooooooo",
"ooooooooooo.....XXXXXooooooooooooooooOOOOOOOOOOO@@@@@OOOOOO@@@@@OOOOO@@@@@@@@@@@OOOOOOOOOOOoooooooooooooooo.....XXXXXooooooooooo",
"ooooooooooo.....XXXXXooooooooooooooooOOOOOOOOOOO@@@@@OOOOOO@@@@@OOOOO@@@@@@@@@@@OOOOOOOOOOOoooooooooooooooo.....XXXXXooooooooooo",
"ooooooooooo.....XXXXXooooooooooooooooOOOOOOOOOOO@@@@@OOOOOO@@@@@OOOOO@@@@@@@@@@@OOOOOOOOOOOoooooooooooooooo.....XXXXXooooooooooo",
"ooooooooooo.....XXXXXooooooooooooooooOOOOOOOOOOO@@@@@OOOOOO@@@@@OOOOO@@@@@@@@@@@OOOOOOOOOOOoooooooooooooooo.....XXXXXooooooooooo",
"ooooooooooo.....XXXXXooooooooooooooooOOOOOOOOOOOOOOOOOOOOOO@@@@@OOOOOOOOOOO@@@@@OOOOOOOOOOOoooooooooooooooo.....XXXXXooooooooooo",
"ooooooooooo.....XXXXXooooooooooooooooOOOOOOOOOOOOOOOOOOOOOO@@@@@OOOOOOOOOOO@@@@@OOOOOOOOOOOoooooooooooooooo.....XXXXXooooooooooo",
"ooooooooooo.....XXXXXooooooooooooooooOOOOOOOOOOOOOOOOOOOOOO@@@@@OOOOOOOOOOO@@@@@OOOOOOOOOOOoooooooooooooooo.....XXXXXooooooooooo",
"ooooooooooo.....XXXXXooooooooooooooooOOOOOOOOOOOOOOOOOOOOOO@@@@@OOOOOOOOOOO@@@@@OOOOOOOOOOOoooooooooooooooo.....XXXXXooooooooooo",
"ooooooooooo.....XXXXXooooooooooooooooOOOOOOOOOOOOOOOOOOOOOO@@@@@OOOOOOOOOOO@@@@@OOOOOOOOOOOoooooooooooooooo.....XXXXXooooooooooo",
"ooooooooooo.....XXXXXooooooooooooooooOOOOOOOOOOOOOOOOOOOOOO@@@@@OOOOOOOOOOO@@@@@OOOOOOOOOOOoooooooooooooooo.....XXXXXooooooooooo",
"ooooooooooo.....XXXXXooooooooooooooooOOOOOOOOOOO@@@@@OOOOOO@@@@@@@@@@OOOOOO@@@@@OOOOOOOOOOOoooooooooooooooo.....XXXXXooooooooooo",
"ooooooooooo.....XXXXXooooooooooooooooOOOOOOOOOOO@@@@@OOOOOO@@@@@@@@@@OOOOOO@@@@@OOOOOOOOOOOoooooooooooooooo.....XXXXXooooooooooo",
"ooooooooooo.....XXXXXooooooooooooooooOOOOOOOOOOO@@@@@OOOOOO@@@@@@@@@@OOOOOO@@@@@OOOOOOOOOOOoooooooooooooooo.....XXXXXooooooooooo",
"ooooooooooo.....XXXXXooooooooooooooooOOOOOOOOOOO@@@@@OOOOOO@@@@@@@@@@OOOOOO@@@@@OOOOOOOOOOOoooooooooooooooo.....XXXXXooooooooooo",
"ooooooooooo.....XXXXXooooooooooooooooOOOOOOOOOOO@@@@@OOOOOO@@@@@@@@@@OOOOOO@@@@@OOOOOOOOOOOoooooooooooooooo.....XXXXXooooooooooo",
"ooooooooooo.....XXXXXooooooooooooooooOOOOOOOOOOO@@@@@OOOOOOOOOOOOOOOOOOOOOOOOOOOOOOOOOOOOOOoooooooooooooooo.....XXXXXooooooooooo",
"ooooooooooo.....XXXXXooooooooooooooooOOOOOOOOOOO@@@@@OOOOOOOOOOOOOOOOOOOOOOOOOOOOOOOOOOOOOOoooooooooooooooo.....XXXXXooooooooooo",
"ooooooooooo.....XXXXXooooooooooooooooOOOOOOOOOOO@@@@@OOOOOOOOOOOOOOOOOOOOOOOOOOOOOOOOOOOOOOoooooooooooooooo.....XXXXXooooooooooo",
"ooooooooooo.....XXXXXooooooooooooooooOOOOOOOOOOO@@@@@OOOOOOOOOOOOOOOOOOOOOOOOOOOOOOOOOOOOOOoooooooooooooooo.....XXXXXooooooooooo",
"ooooooooooo.....XXXXXooooooooooooooooOOOOOOOOOOO@@@@@OOOOOOOOOOOOOOOOOOOOOOOOOOOOOOOOOOOOOOoooooooooooooooo.....XXXXXooooooooooo",
"ooooooooooo.....XXXXXooooooooooooooooOOOOOOOOOOO@@@@@OOOOOO@@@@@OOOOOOOOOOO@@@@@OOOOOOOOOOOoooooooooooooooo.....XXXXXooooooooooo",
"ooooooooooo.....XXXXXooooooooooooooooOOOOOOOOOOO@@@@@OOOOOO@@@@@OOOOOOOOOOO@@@@@OOOOOOOOOOOoooooooooooooooo.....XXXXXooooooooooo",
"ooooooooooo.....XXXXXooooooooooooooooOOOOOOOOOOO@@@@@OOOOOO@@@@@OOOOOOOOOOO@@@@@OOOOOOOOOOOoooooooooooooooo.....XXXXXooooooooooo",
"ooooooooooo.....XXXXXooooooooooooooooOOOOOOOOOOO@@@@@OOOOOO@@@@@OOOOOOOOOOO@@@@@OOOOOOOOOOOoooooooooooooooo.....XXXXXooooooooooo",
"ooooooooooo.....XXXXXooooooooooooooooOOOOOOOOOOO@@@@@OOOOOO@@@@@OOOOOOOOOOO@@@@@OOOOOOOOOOOoooooooooooooooo.....XXXXXooooooooooo",
"ooooooooooo.....XXXXXooooooooooooooooOOOOOOOOOOO@@@@@OOOOOO@@@@@OOOOOOOOOOO@@@@@OOOOOOOOOOOoooooooooooooooo.....XXXXXooooooooooo",
"ooooooooooo.....XXXXXooooooooooooooooOOOOOOOOOOO@@@@@OOOOOO@@@@@@@@@@@@@@@@@@@@@OOOOOOOOOOOoooooooooooooooo.....XXXXXooooooooooo",
"ooooooooooo.....XXXXXooooooooooooooooOOOOOOOOOOO@@@@@OOOOOO@@@@@@@@@@@@@@@@@@@@@OOOOOOOOOOOoooooooooooooooo.....XXXXXooooooooooo",
"ooooooooooo.....XXXXXooooooooooooooooOOOOOOOOOOO@@@@@OOOOOO@@@@@@@@@@@@@@@@@@@@@OOOOOOOOOOOoooooooooooooooo.....XXXXXooooooooooo",
"ooooooooooo.....XXXXXooooooooooooooooOOOOOOOOOOO@@@@@OOOOOO@@@@@@@@@@@@@@@@@@@@@OOOOOOOOOOOoooooooooooooooo.....XXXXXooooooooooo",
"ooooooooooo.....XXXXXooooooooooooooooOOOOOOOOOOO@@@@@OOOOOO@@@@@@@@@@@@@@@@@@@@@OOOOOOOOOOOoooooooooooooooo.....XXXXXooooooooooo",
"ooooooooooo.....XXXXXooooooooooooooooOOOOOOOOOOOOOOOOOOOOOOOOOOOOOOOOOOOOOOOOOOOOOOOOOOOOOOoooooooooooooooo.....XXXXXooooooooooo",
"ooooooooooo.....XXXXXooooooooooooooooOOOOOOOOOOOOOOOOOOOOOOOOOOOOOOOOOOOOOOOOOOOOOOOOOOOOOOoooooooooooooooo.....XXXXXooooooooooo",
"ooooooooooo.....XXXXXooooooooooooooooOOOOOOOOOOOOOOOOOOOOOOOOOOOOOOOOOOOOOOOOOOOOOOOOOOOOOOoooooooooooooooo.....XXXXXooooooooooo",
"ooooooooooo.....XXXXXooooooooooooooooOOOOOOOOOOOOOOOOOOOOOOOOOOOOOOOOOOOOOOOOOOOOOOOOOOOOOOoooooooooooooooo.....XXXXXooooooooooo",
"ooooooooooo.....XXXXXooooooooooooooooOOOOOOOOOOOOOOOOOOOOOOOOOOOOOOOOOOOOOOOOOOOOOOOOOOOOOOoooooooooooooooo.....XXXXXooooooooooo",
"ooooooooooo.....XXXXXooooooooooooooooOOOOOOOOOOOOOOOOOOOOOOOOOOOOOOOOOOOOOOOOOOOOOOOOOOOOOOoooooooooooooooo.....XXXXXooooooooooo",
"ooooooooooo.....XXXXXooooooooooooooooOOOOOOOOOOOOOOOOOOOOOOOOOOOOOOOOOOOOOOOOOOOOOOOOOOOOOOoooooooooooooooo.....XXXXXooooooooooo",
"ooooooooooo.....XXXXXooooooooooooooooOOOOOOOOOOOOOOOOOOOOOOOOOOOOOOOOOOOOOOOOOOOOOOOOOOOOOOoooooooooooooooo.....XXXXXooooooooooo",
"ooooooooooo.....XXXXXooooooooooooooooOOOOOOOOOOOOOOOOOOOOOOOOOOOOOOOOOOOOOOOOOOOOOOOOOOOOOOoooooooooooooooo.....XXXXXooooooooooo",
"ooooooooooo.....XXXXXooooooooooooooooOOOOOOOOOOOOOOOOOOOOOOOOOOOOOOOOOOOOOOOOOOOOOOOOOOOOOOoooooooooooooooo.....XXXXXooooooooooo",
"ooooooooooo.....XXXXXooooooooooooooooOOOOOOOOOOOOOOOOOOOOOOOOOOOOOOOOOOOOOOOOOOOOOOOOOOOOOOoooooooooooooooo.....XXXXXooooooooooo",
"ooooooooooo.....XXXXXooooooooooooooooooooooOOOOOOOOOOOOOOOOOOOOOOOOOOOOOOOOOOOOOOOOOOoooooooooooooooooooooo.....XXXXXooooooooooo",
"ooooooooooo.....XXXXXooooooooooooooooooooooOOOOOOOOOOOOOOOOOOOOOOOOOOOOOOOOOOOOOOOOOOoooooooooooooooooooooo.....XXXXXooooooooooo",
"ooooooooooo.....XXXXXooooooooooooooooooooooOOOOOOOOOOOOOOOOOOOOOOOOOOOOOOOOOOOOOOOOOOoooooooooooooooooooooo.....XXXXXooooooooooo",
"ooooooooooo.....XXXXXooooooooooooooooooooooOOOOOOOOOOOOOOOOOOOOOOOOOOOOOOOOOOOOOOOOOOoooooooooooooooooooooo.....XXXXXooooooooooo",
"ooooooooooo.....XXXXXooooooooooooooooooooooOOOOOOOOOOOOOOOOOOOOOOOOOOOOOOOOOOOOOOOOOOoooooooooooooooooooooo.....XXXXXooooooooooo",
"ooooooooooo.....XXXXXoooooooooooooooooooooo.....OOOOOOOOOOOOOOOOOOOOOOOOOOOOOOOOXXXXXoooooooooooooooooooooo.....XXXXXooooooooooo",
"ooooooooooo.....XXXXXoooooooooooooooooooooo.....OOOOOOOOOOOOOOOOOOOOOOOOOOOOOOOOXXXXXoooooooooooooooooooooo.....XXXXXooooooooooo",
"ooooooooooo.....XXXXXoooooooooooooooooooooo.....OOOOOOOOOOOOOOOOOOOOOOOOOOOOOOOOXXXXXoooooooooooooooooooooo.....XXXXXooooooooooo",
"ooooooooooo.....XXXXXoooooooooooooooooooooo.....OOOOOOOOOOOOOOOOOOOOOOOOOOOOOOOOXXXXXoooooooooooooooooooooo.....XXXXXooooooooooo",
"ooooooooooo.....XXXXXoooooooooooooooooooooo.....OOOOOOOOOOOOOOOOOOOOOOOOOOOOOOOOXXXXXoooooooooooooooooooooo.....XXXXXooooooooooo",
"ooooooooooo.....XXXXXoooooo+++++ooooooooooo.....XXXXXOOOOOOOOOOOOOOOOOOOOOO.....XXXXXoooooo+++++ooooooooooo.....XXXXXoooooo+++++",
"ooooooooooo.....XXXXXoooooo+++++ooooooooooo.....XXXXXOOOOOOOOOOOOOOOOOOOOOO.....XXXXXoooooo+++++ooooooooooo.....XXXXXoooooo+++++",
"ooooooooooo.....XXXXXoooooo+++++ooooooooooo.....XXXXXOOOOOOOOOOOOOOOOOOOOOO.....XXXXXoooooo+++++ooooooooooo.....XXXXXoooooo+++++",
"ooooooooooo.....XXXXXoooooo+++++ooooooooooo.....XXXXXOOOOOOOOOOOOOOOOOOOOOO.....XXXXXoooooo+++++ooooooooooo.....XXXXXoooooo+++++",
"ooooooooooo.....XXXXXoooooo+++++ooooooooooo.....XXXXXOOOOOOOOOOOOOOOOOOOOOO.....XXXXXoooooo+++++ooooooooooo.....XXXXXoooooo+++++",
"ooooooooooo.....XXXXXoooooo+++++ooooooooooo.....XXXXXOOOOOOOOOOOOOOOOOOOOOO.....XXXXXoooooo+++++ooooooooooo.....XXXXXoooooo+++++",
"ooooooooooo.....XXXXXoooooooooooooooooooooo.....XXXXXooooooOOOOOOOOOOoooooo.....XXXXXoooooooooooooooooooooo.....XXXXXooooooooooo",
"ooooooooooo.....XXXXXoooooooooooooooooooooo.....XXXXXooooooOOOOOOOOOOoooooo.....XXXXXoooooooooooooooooooooo.....XXXXXooooooooooo",
"ooooooooooo.....XXXXXoooooooooooooooooooooo.....XXXXXooooooOOOOOOOOOOoooooo.....XXXXXoooooooooooooooooooooo.....XXXXXooooooooooo",
"ooooooooooo.....XXXXXoooooooooooooooooooooo.....XXXXXooooooOOOOOOOOOOoooooo.....XXXXXoooooooooooooooooooooo.....XXXXXooooooooooo",
"ooooooooooo.....XXXXXoooooooooooooooooooooo.....XXXXXooooooOOOOOOOOOOoooooo.....XXXXXoooooooooooooooooooooo.....XXXXXooooooooooo"
};
