/* XPM */
static char *result[] = {
/* columns rows colors chars-per-pixel */
"128 128 9 1 ",
"  c #383125",
". c #433927",
"X c #4E422D",
"o c #534A3A",
"O c gray25",
"+ c #FBF236",
"@ c #C4BF53",
"# c #CCC756",
"$ c #DFDFDF",
/* pixels */
"................................................................................................................................",
"................................................................................................................................",
"................................................................................................................................",
"................................................................................................................................",
"................................................................................................................................",
"XXXXXXXXXXX.....XXXXXXXXXXXXXXXXXXXXXXXXXXX.....XXXXXXXXXXXXXXXXXXXXXXXXXXX.....XXXXXXXXXXXXXXXXXXXXXXXXXXX.....XXXXXXXXXXXXXXXX",
"XXXXXXXXXXX.....XXXXXXXXXXXXXXXXXXXXXXXXXXX.....XXXXXXXXXXXXXXXXXXXXXXXXXXX.....XXXXXXXXXXXXXXXXXXXXXXXXXXX.....XXXXXXXXXXXXXXXX",
"XXXXXXXXXXX.....XXXXXXXXXXXXXXXXXXXXXXXXXXX.....XXXXXXXXXXXXXXXXXXXXXXXXXXX.....XXXXXXXXXXXXXXXXXXXXXXXXXXX.....XXXXXXXXXXXXXXXX",
"XXXXXXXXXXX.....XXXXXXXXXXXXXXXXXXXXXXXXXXX.....XXXXXXXXXXXXXXXXXXXXXXXXXXX.....XXXXXXXXXXXXXXXXXXXXXXXXXXX.....XXXXXXXXXXXXXXXX",
"XXXXXXXXXXX.....XXXXXXXXXXXXXXXXXXXXXXXXXXX.....XXXXXXXXXXXXXXXXXXXXXXXXXXX.....XXXXXXXXXXXXXXXXXXXXXXXXXXX.....XXXXXXXXXXXXXXXX",
"XXXXXXXXXXX.....XXXXXXXXXXXXXXXXXXXXXXXXXXX.....XXXXXXXXXXXXXXXXXXXXXXXXXXX.....XXXXXXXXXXXXXXXXXXXXXXXXXXX.....XXXXXXXXXXXXXXXX",
"ooooooooooo.....XXXXXoooooooooooooooooooooo.....XXXXXoooooooooooooooooooooo.....XXXXXoooooooooooooooooooooo.....XXXXXooooooooooo",
"ooooooooooo.....XXXXXoooooooooooooooooooooo.....XXXXXoooooooooooooooooooooo.....XXXXXoooooooooooooooooooooo.....XXXXXooooooooooo",
"ooooooooooo.....XXXXXoooooooooooooooooooooo.....XXXXXoooooooooooooooooooooo.....XXXXXoooooooooooooooooooooo.....XXXXXooooooooooo",
"ooooooooooo.....XXXXXoooooooooooooooooooooo.....XXXXXoooooooooooooooooooooo.....XXXXXoooooooooooooooooooooo.....XXXXXooooooooooo",
"ooooooooooo.....XXXXXoooooooooooooooooooooo.....XXXXXoooooooooooooooooooooo.....XXXXXoooooooooooooooooooooo.....XXXXXooooooooooo",
"ooooooooooo.....XXXXXooooooOOOOOooooooooooo.....XXXXXooooooOOOOOooooooooooo.....XXXXXooooooOOOOOooooooooooo.....XXXXXooooooOOOOO",
"ooooooooooo.....XXXXXooooooOOOOOooooooooooo.....XXXXXooooooOOOOOooooooooooo.....XXXXXooooooOOOOOooooooooooo.....XXXXXooooooOOOOO",
"ooooooooooo.....XXXXXooooooOOOOOooooooooooo.....XXXXXooooooOOOOOooooooooooo.....XXXXXooooooOOOOOooooooooooo.....XXXXXooooooOOOOO",
"ooooooooooo.....XXXXXooooooOOOOOooooooooooo.....XXXXXooooooOOOOOooooooooooo.....XXXXXooooooOOOOOooooooooooo.....XXXXXooooooOOOOO",
"ooooooooooo.....XXXXXooooooOOOOOooooooooooo.....XXXXXooooooOOOOOooooooooooo.....XXXXXooooooOOOOOooooooooooo.....XXXXXooooooOOOOO",
"ooooooooooo.....XXXXXoooooooooooooooooooooo.....XXXXXooooooooooo+++++oooooo.....XXXXXoooooooooooooooooooooo.....XXXXXooooooooooo",
"ooooooooooo.....XXXXXoooooooooooooooooooooo.....XXXXXooooooooooo+++++oooooo.....XXXXXoooooooooooooooooooooo.....XXXXXooooooooooo",
"ooooooooooo.....XXXXXoooooooooooooooooooooo.....XXXXXooooooooooo+++++oooooo.....XXXXXoooooooooooooooooooooo.....XXXXXooooooooooo",
"ooooooooooo.....XXXXXoooooooooooooooooooooo.....XXXXXooooooooooo+++++oooooo.....XXXXXoooooooooooooooooooooo.....XXXXXooooooooooo",
"ooooooooooo.....XXXXXoooooooooooooooooooooo.....XXXXXooooooooooo+++++oooooo.....XXXXXoooooooooooooooooooooo.....XXXXXooooooooooo",
"ooooooooooo.....XXXXXoooooooooooooooooooooo.....XXXXXooooooooooo+++++oooooo.....XXXXXoooooooooooooooooooooo.....XXXXXooooooooooo",
"ooooooooooo.....XXXXXoooooooooooooooooooooo.....XXXXX++++++ooooo$$$$$oooooo+++++XXXXXoooooooooooooooooooooo.....XXXXXooooooooooo",
"ooooooooooo.....XXXXXoooooooooooooooooooooo.....XXXXX++++++ooooo$$$$$oooooo+++++XXXXXoooooooooooooooooooooo.....XXXXXooooooooooo",
"ooooooooooo.....XXXXXoooooooooooooooooooooo.....XXXXX++++++ooooo$$$$$oooooo+++++XXXXXoooooooooooooooooooooo.....XXXXXooooooooooo",
"ooooooooooo.....XXXXXoooooooooooooooooooooo.....XXXXX++++++ooooo$$$$$oooooo+++++XXXXXoooooooooooooooooooooo.....XXXXXooooooooooo",
"ooooooooooo.....XXXXXoooooooooooooooooooooo.....XXXXX++++++ooooo$$$$$oooooo+++++XXXXXoooooooooooooooooooooo.....XXXXXooooooooooo",
"ooooooooooo.....XXXXXoooooooooooooooooooooo.....XXXXX$$$$$$ooooo@@@@@oooooo$$$$$XXXXXoooooooooooooooooooooo.....XXXXXooooooooooo",
"ooooooooooo.....XXXXXoooooooooooooooooooooo.....XXXXX$$$$$$ooooo@@@@@oooooo$$$$$XXXXXoooooooooooooooooooooo.....XXXXXooooooooooo",
"ooooooooooo.....XXXXXoooooooooooooooooooooo.....XXXXX$$$$$$ooooo@@@@@oooooo$$$$$XXXXXoooooooooooooooooooooo.....XXXXXooooooooooo",
"ooooooooooo.....XXXXXoooooooooooooooooooooo.....XXXXX$$$$$$ooooo@@@@@oooooo$$$$$XXXXXoooooooooooooooooooooo.....XXXXXooooooooooo",
"ooooooooooo.....XXXXXoooooooooooooooooooooo.....XXXXX$$$$$$ooooo@@@@@oooooo$$$$$XXXXXoooooooooooooooooooooo.....XXXXXooooooooooo",
"ooooooooooo.....XXXXXoooooooooooooooooooooo.....XXXXX@@@@@@ooooo@@@@@oooooo@@@@@XXXXXoooooooooooooooooooooo.....XXXXXooooooooooo",
"ooooooooooo.....XXXXXoooooooooooooooooooooo.....XXXXX@@@@@@ooooo@@@@@oooooo@@@@@XXXXXoooooooooooooooooooooo.....XXXXXooooooooooo",
"ooooooooooo.....XXXXXoooooooooooooooooooooo.....XXXXX@@@@@@ooooo@@@@@oooooo@@@@@XXXXXoooooooooooooooooooooo.....XXXXXooooooooooo",
"ooooooooooo.....XXXXXoooooooooooooooooooooo.....XXXXX@@@@@@ooooo@@@@@oooooo@@@@@XXXXXoooooooooooooooooooooo.....XXXXXooooooooooo",
"ooooooooooo.....XXXXXoooooooooooooooooooooo.....XXXXX@@@@@@ooooo@@@@@oooooo@@@@@XXXXXoooooooooooooooooooooo.....XXXXXooooooooooo",
"ooooooooooo.....XXXXXoooooooooooooooooooooo.....XXXXX@@@@@@ooooo@@@@@oooooo@@@@@XXXXXoooooooooooooooooooooo.....XXXXXooooooooooo",
"ooooooooooo.....XXXXXoooooooooooooooooooooo.....XXXXX@@@@@@@@@@@@@@@@@@@@@@@@@@@XXXXXoooooooooooooooooooooo.....XXXXXooooooooooo",
"ooooooooooo.....XXXXXoooooooooooooooooooooo.....XXXXX@@@@@@@@@@@@@@@@@@@@@@@@@@@XXXXXoooooooooooooooooooooo.....XXXXXooooooooooo",
"ooooooooooo.....XXXXXoooooooooooooooooooooo.....XXXXX@@@@@@@@@@@@@@@@@@@@@@@@@@@XXXXXoooooooooooooooooooooo.....XXXXXooooooooooo",
"ooooooooooo.....XXXXXoooooooooooooooooooooo.....XXXXX@@@@@@@@@@@@@@@@@@@@@@@@@@@XXXXXoooooooooooooooooooooo.....XXXXXooooooooooo",
"ooooooooooo.....XXXXXoooooooooooooooooooooo.....XXXXX@@@@@@@@@@@@@@@@@@@@@@@@@@@XXXXXoooooooooooooooooooooo.....XXXXXooooooooooo",
"ooooooooooo.....XXXXXoooooooooooooooooooooo.....XXXXXooooooooooo@@@@@oooooo.....XXXXXoooooooooooooooooooooo.....XXXXXooooooooooo",
"ooooooooooo.....XXXXXoooooooooooooooooooooo.....XXXXXooooooooooo@@@@@oooooo.....XXXXXoooooooooooooooooooooo.....XXXXXooooooooooo",
"ooooooooooo.....XXXXXoooooooooooooooooooooo.....XXXXXooooooooooo@@@@@oooooo.....XXXXXoooooooooooooooooooooo.....XXXXXooooooooooo",
"ooooooooooo.....XXXXXoooooooooooooooooooooo.....XXXXXooooooooooo@@@@@oooooo.....XXXXXoooooooooooooooooooooo.....XXXXXooooooooooo",
"ooooooooooo.....XXXXXoooooooooooooooooooooo.....XXXXXooooooooooo@@@@@oooooo.....XXXXXoooooooooooooooooooooo.....XXXXXooooooooooo",
"ooooooooooo.....XXXXXoooooooooooooooooooooo.....XXXXXooooooooooo@@@@@oooooo.....XXXXXoooooooooooooooooooooo.....XXXXXooooooooooo",
"ooooooooooo.....XXXXXoooooooooooooooooooooo.....XXXXXooooooooooo@@@@@oooooo.....XXXXXoooooooooooooooooooooo.....XXXXXooooooooooo",
"ooooooooooo.....XXXXXoooooooooooooooooooooo.....XXXXXooooooooooo@@@@@oooooo.....XXXXXoooooooooooooooooooooo.....XXXXXooooooooooo",
"ooooooooooo.....XXXXXoooooooooooooooooooooo.....XXXXXooooooooooo@@@@@oooooo.....XXXXXoooooooooooooooooooooo.....XXXXXooooooooooo",
"ooooooooooo.....XXXXXoooooooooooooooooooooo.....XXXXXooooooooooo@@@@@oooooo.....XXXXXoooooooooooooooooooooo.....XXXXXooooooooooo",
"ooooooooooo.....XXXXXoooooooooooooooooooooo.....XXXXXooooooooooo@@@@@oooooo.....XXXXXoooooooooooooooooooooo.....XXXXXooooooooooo",
"ooooooooooo.....XXXXXoooooooooooooooooooooo.....XXXXXoooooo################.....XXXXXoooooooooooooooooooooo.....XXXXXooooooooooo",
"ooooooooooo.....XXXXXoooooooooooooooooooooo.....XXXXXoooooo################.....XXXXXoooooooooooooooooooooo.....XXXXXooooooooooo",
"ooooooooooo.....XXXXXoooooooooooooooooooooo.....XXXXXoooooo################.....XXXXXoooooooooooooooooooooo.....XXXXXooooooooooo",
"ooooooooooo.....XXXXXoooooooooooooooooooooo.....XXXXXoooooo################.....XXXXXoooooooooooooooooooooo.....XXXXXooooooooooo",
"ooooooooooo.....XXXXXoooooooooooooooooooooo.....XXXXXoooooo################.....XXXXXoooooooooooooooooooooo.....XXXXXooooooooooo",
"ooooooooooo.....XXXXXoooooooooooooooooooooo.....XXXXX@@@@@@#####@@@@@######@@@@@XXXXXoooooooooooooooooooooo.....XXXXXooooooooooo",
"ooooooooooo.....XXXXXoooooooooooooooooooooo.....XXXXX@@@@@@#####@@@@@######@@@@@XXXXXoooooooooooooooooooooo.....XXXXXooooooooooo",
"ooooooooooo.....XXXXXoooooooooooooooooooooo.....XXXXX@@@@@@#####@@@@@######@@@@@XXXXXoooooooooooooooooooooo.....XXXXXooooooooooo",
"ooooooooooo.....XXXXXoooooooooooooooooooooo.....XXXXX@@@@@@#####@@@@@######@@@@@XXXXXoooooooooooooooooooooo.....XXXXXooooooooooo",
"ooooooooooo.....XXXXXoooooooooooooooooooooo.....XXXXX@@@@@@#####@@@@@######@@@@@XXXXXoooooooooooooooooooooo.....XXXXXooooooooooo",
"ooooooooooo.....                                                                                           .....XXXXXooooooooooo",
"ooooooooooo.....                                                                                           .....XXXXXooooooooooo",
"ooooooooooo.....                                                                                           .....XXXXXooooooooooo",
"ooooooooooo.....                                                                                           .....XXXXXooooooooooo",
"ooooooooooo.....                                                                                           .....XXXXXooooooooooo",
"ooooooooooo.....                                                                                           .....XXXXXooooooooooo",
"ooooooooooo.....XXXXX      oooooooooooooooo.....XXXXXoooooooooooooooooooooo.....XXXXXooooooooooo     oooooo.....XXXXXooooooooooo",
"ooooooooooo.....XXXXX      oooooooooooooooo.....XXXXXoooooooooooooooooooooo.....XXXXXooooooooooo     oooooo.....XXXXXooooooooooo",
"ooooooooooo.....XXXXX      oooooooooooooooo.....XXXXXoooooooooooooooooooooo.....XXXXXooooooooooo     oooooo.....XXXXXooooooooooo",
"ooooooooooo.....XXXXX      oooooooooooooooo.....XXXXXoooooooooooooooooooooo.....XXXXXooooooooooo     oooooo.....XXXXXooooooooooo",
"ooooooooooo.....XXXXX      oooooooooooooooo.....XXXXXoooooooooooooooooooooo.....XXXXXooooooooooo     oooooo.....XXXXXooooooooooo",
"ooooooooooo.....XXXXX      oooooooooooooooo.....XXXXXoooooooooooooooooooooo.....XXXXXooooooooooo     oooooo.....XXXXXooooooooooo",
"ooooooooooo.....XXXXX      oooooooooooooooo.....XXXXXoooooooooooooooooooooo.....XXXXXooooooooooo     oooooo.....XXXXXooooooooooo",
"ooooooooooo.....XXXXX      oooooooooooooooo.....XXXXXoooooooooooooooooooooo.....XXXXXooooooooooo     oooooo.....XXXXXooooooooooo",
"ooooooooooo.....XXXXX      oooooooooooooooo.....XXXXXoooooooooooooooooooooo.....XXXXXooooooooooo     oooooo.....XXXXXooooooooooo",
"ooooooooooo.....XXXXX      oooooooooooooooo.....XXXXXoooooooooooooooooooooo.....XXXXXooooooooooo     oooooo.....XXXXXooooooooooo",
"ooooooooooo.....XXXXXoooooooooooooooooooooo.....XXXXXoooooooooooooooooooooo.....XXXXXoooooooooooooooooooooo.....XXXXXooooooooooo",
"ooooooooooo.....XXXXXoooooooooooooooooooooo.....XXXXXoooooooooooooooooooooo.....XXXXXoooooooooooooooooooooo.....XXXXXooooooooooo",
"ooooooooooo.....XXXXXoooooooooooooooooooooo.....XXXXXoooooooooooooooooooooo.....XXXXXoooooooooooooooooooooo.....XXXXXooooooooooo",
"ooooooooooo.....XXXXXoooooooooooooooooooooo.....XXXXXoooooooooooooooooooooo.....XXXXXoooooooooooooooooooooo.....XXXXXooooooooooo",
"ooooooooooo.....XXXXXoooooooooooooooooooooo.....XXXXXoooooooooooooooooooooo.....XXXXXoooooooooooooooooooooo.....XXXXXooooooooooo",
"ooooooooooo.....XXXXXoooooooooooooooooooooo.....XXXXXoooooooooooooooooooooo.....XXXXXoooooooooooooooooooooo.....XXXXXooooooooooo",
"ooooooooooo.....XXXXXoooooooooooooooooooooo.....XXXXXoooooooooooooooooooooo.....XXXXXoooooooooooooooooooooo.....XXXXXooooooooooo",
"ooooooooooo.....XXXXXoooooooooooooooooooooo.....XXXXXoooooooooooooooooooooo.....XXXXXoooooooooooooooooooooo.....XXXXXooooooooooo",
"ooooooooooo.....XXXXXoooooooooooooooooooooo.....XXXXXoooooooooooooooooooooo.....XXXXXoooooooooooooooooooooo.....XXXXXooooooooooo",
"ooooooooooo.....XXXXXoooooooooooooooooooooo.....XXXXXoooooooooooooooooooooo.....XXXXXoooooooooooooooooooooo.....XXXXXooooooooooo",
"ooooooooooo.....XXXXXoooooooooooooooooooooo.....XXXXXoooooooooooooooooooooo.....XXXXXoooooooooooooooooooooo.....XXXXXooooooooooo",
"ooooooooooo.....XXXXXoooooooooooooooooooooo.....XXXXXoooooooooooooooooooooo.....XXXXXoooooooooooooooooooooo.....XXXXXooooooooooo",
"ooooooooooo.....XXXXXoooooooooooooooooooooo.....XXXXXoooooooooooooooooooooo.....XXXXXoooooooooooooooooooooo.....XXXXXooooooooooo",
"ooooooooooo.....XXXXXoooooooooooooooooooooo.....XXXXXoooooooooooooooooooooo.....XXXXXoooooooooooooooooooooo.....XXXXXooooooooooo",
"ooooooooooo.....XXXXXoooooooooooooooooooooo.....XXXXXoooooooooooooooooooooo.....XXXXXoooooooooooooooooooooo.....XXXXXooooooooooo",
"ooooooooooo.....XXXXXoooooooooooooooooooooo.....XXXXXoooooooooooooooooooooo.....XXXXXoooooooooooooooooooooo.....XXXXXooooooooooo",
"ooooooooooo.....XXXXXoooooooooooooooooooooo.....XXXXXoooooooooooooooooooooo.....XXXXXoooooooooooooooooooooo.....XXXXXooooooooooo",
"ooooooooooo.....XXXXXoooooooooooooooooooooo.....XXXXXoooooooooooooooooooooo.....XXXXXoooooooooooooooooooooo.....XXXXXooooooooooo",
"ooooooooooo.....XXXXXoooooooooooooooooooooo.....XXXXXoooooooooooooooooooooo.....XXXXXoooooooooooooooooooooo.....XXXXXooooooooooo",
"ooooooooooo.....XXXXXoooooooooooooooooooooo.....XXXXXoooooooooooooooooooooo.....XXXXXoooooooooooooooooooooo.....XXXXXooooooooooo",
"ooooooooooo.....XXXXXoooooooooooooooooooooo.....XXXXXoooooooooooooooooooooo.....XXXXXoooooooooooooooooooooo.....XXXXXooooooooooo",
"ooooooooooo.....XXXXXoooooooooooooooooooooo.....XXXXXoooooooooooooooooooooo.....XXXXXoooooooooooooooooooooo.....XXXXXooooooooooo",
"ooooooooooo.....XXXXXoooooooooooooooooooooo.....XXXXXoooooooooooooooooooooo.....XXXXXoooooooooooooooooooooo.....XXXXXooooooooooo",
"ooooooooooo.....XXXXXoooooooooooooooooooooo.....XXXXXoooooooooooooooooooooo.....XXXXXoooooooooooooooooooooo.....XXXXXooooooooooo",
"ooooooooooo.....XXXXXoooooooooooooooooooooo.....XXXXXoooooooooooooooooooooo.....XXXXXoooooooooooooooooooooo.....XXXXXooooooooooo",
"ooooooooooo.....XXXXXoooooooooooooooooooooo.....XXXXXoooooooooooooooooooooo.....XXXXXoooooooooooooooooooooo.....XXXXXooooooooooo",
"ooooooooooo.....XXXXXoooooooooooooooooooooo.....XXXXXoooooooooooooooooooooo.....XXXXXoooooooooooooooooooooo.....XXXXXooooooooooo",
"ooooooooooo.....XXXXXoooooooooooooooooooooo.....XXXXXoooooooooooooooooooooo.....XXXXXoooooooooooooooooooooo.....XXXXXooooooooooo",
"ooooooooooo.....XXXXXoooooooooooooooooooooo.....XXXXXoooooooooooooooooooooo.....XXXXXoooooooooooooooooooooo.....XXXXXooooooooooo",
"ooooooooooo.....XXXXXoooooooooooooooooooooo.....XXXXXoooooooooooooooooooooo.....XXXXXoooooooooooooooooooooo.....XXXXXooooooooooo",
"ooooooooooo.....XXXXXoooooooooooooooooooooo.....XXXXXoooooooooooooooooooooo.....XXXXXoooooooooooooooooooooo.....XXXXXooooooooooo",
"ooooooooooo.....XXXXXoooooooooooooooooooooo.....XXXXXoooooooooooooooooooooo.....XXXXXoooooooooooooooooooooo.....XXXXXooooooooooo",
"ooooooooooo.....XXXXXooooooOOOOOooooooooooo.....XXXXXooooooOOOOOooooooooooo.....XXXXXooooooOOOOOooooooooooo.....XXXXXooooooOOOOO",
"ooooooooooo.....XXXXXooooooOOOOOooooooooooo.....XXXXXooooooOOOOOooooooooooo.....XXXXXooooooOOOOOooooooooooo.....XXXXXooooooOOOOO",
"ooooooooooo.....XXXXXooooooOOOOOooooooooooo.....XXXXXooooooOOOOOooooooooooo.....XXXXXooooooOOOOOooooooooooo.....XXXXXooooooOOOOO",
"ooooooooooo.....XXXXXooooooOOOOOooooooooooo.....XXXXXooooooOOOOOooooooooooo.....XXXXXooooooOOOOOooooooooooo.....XXXXXooooooOOOOO",
"ooooooooooo.....XXXXXooooooOOOOOooooooooooo.....XXXXXooooooOOOOOooooooooooo.....XXXXXooooooOOOOOooooooooooo.....XXXXXooooooOOOOO",
"ooooooooooo.....XXXXXooooooOOOOOooooooooooo.....XXXXXooooooOOOOOooooooooooo.....XXXXXooooooOOOOOooooooooooo.....XXXXXooooooOOOOO",
"ooooooooooo.....XXXXXoooooooooooooooooooooo.....XXXXXoooooooooooooooooooooo.....XXXXXoooooooooooooooooooooo.....XXXXXooooooooooo",
"ooooooooooo.....XXXXXoooooooooooooooooooooo.....XXXXXoooooooooooooooooooooo.....XXXXXoooooooooooooooooooooo.....XXXXXooooooooooo",
"ooooooooooo.....XXXXXoooooooooooooooooooooo.....XXXXXoooooooooooooooooooooo.....XXXXXoooooooooooooooooooooo.....XXXXXooooooooooo",
"ooooooooooo.....XXXXXoooooooooooooooooooooo.....XXXXXoooooooooooooooooooooo.....XXXXXoooooooooooooooooooooo.....XXXXXooooooooooo",
"ooooooooooo.....XXXXXoooooooooooooooooooooo.....XXXXXoooooooooooooooooooooo.....XXXXXoooooooooooooooooooooo.....XXXXXooooooooooo"
};
