/* XPM */
static char *result[] = {
/* columns rows colors chars-per-pixel */
"128 128 12 1 ",
"  c black",
". c #202020",
"X c #383125",
"o c #3B3324",
"O c #433927",
"+ c #4E422D",
"@ c #5E4F33",
"# c #534A3A",
"$ c #73613F",
"% c gray25",
"& c #86714B",
"* c #868686",
/* pixels */
"OOOOOOOOOOOOOOOOOOOOOOOOOOOOOOOOOOOOOOOOOOOOOOOOOOOOOOOOOOOOOOOOOOOOOOOOOOOOOOOOOOOOOOOOOOOOOOOOOOOOOOOOOOOOOOOOOOOOOOOOOOOOOOOO",
"OOOOOOOOOOOOOOOOOOOOOOOOOOOOOOOOOOOOOOOOOOOOOOOOOOOOOOOOOOOOOOOOOOOOOOOOOOOOOOOOOOOOOOOOOOOOOOOOOOOOOOOOOOOOOOOOOOOOOOOOOOOOOOOO",
"OOOOOOOOOOOOOOOOOOOOOOOOOOOOOOOOOOOOOOOOOOOOOOOOOOOOOOOOOOOOOOOOOOOOOOOOOOOOOOOOOOOOOOOOOOOOOOOOOOOOOOOOOOOOOOOOOOOOOOOOOOOOOOOO",
"OOOOOOOOOOOOOOOOOOOOOOOOOOOOOOOOOOOOOOOOOOOOOOOOOOOOOOOOOOOOOOOOOOOOOOOOOOOOOOOOOOOOOOOOOOOOOOOOOOOOOOOOOOOOOOOOOOOOOOOOOOOOOOOO",
"OOOOOOOOOOOOOOOOOOOOOOOOOOOOOOOOOOOOOOOOOOOOOOOOOOOOOOOOOOOOOOOOOOOOOOOOOOOOOOOOOOOOOOOOOOOOOOOOOOOOOOOOOOOOOOOOOOOOOOOOOOOOOOOO",
"+++++++++++OOOOO+++++++++++++++++++++++++++OOOOO+++++++++++++++++++++++++++OOOOO+++++++++++++++++++++++++++OOOOO++++++++++++++++",
"+++++++++++OOOOO+++++++++++++++++++++++++++OOOOO+++++++++++++++++++++++++++OOOOO+++++++++++++++++++++++++++OOOOO++++++++++++++++",
"+++++++++++OOOOO+++++++++++++++++++++++++++OOOOO+++++++++++++++++++++++++++OOOOO+++++++++++++++++++++++++++OOOOO++++++++++++++++",
"+++++++++++OOOOO+++++++++++++++++++++++++++OOOOO+++++++++++++++++++++++++++OOOOO+++++++++++++++++++++++++++OOOOO++++++++++++++++",
"+++++++++++OOOOO+++++++++++++++++++++++++++OOOOO+++++++++++++++++++++++++++OOOOO+++++++++++++++++++++++++++OOOOO++++++++++++++++",
"+++++++++++OOOOO+++++++++++++++++++++++++++OOOOO+++++++++++++++++++++++++++OOOOO+++++++++++++++++++++++++++OOOOO++++++++++++++++",
"###########OOOOO+++++######################OOOOO+++++######################OOOOO+++++######################OOOOO+++++###########",
"###########OOOOO+++++######################OOOOO+++++######################OOOOO+++++######################OOOOO+++++###########",
"###########OOOOO+++++######################OOOOO+++++######################OOOOO+++++######################OOOOO+++++###########",
"###########OOOOO+++++######################OOOOO+++++######################OOOOO+++++######################OOOOO+++++###########",
"###########OOOOO+++++######################OOOOO+++++######################OOOOO+++++######################OOOOO+++++###########",
"###########OOOOO+++++######%%%%%###########OOOOO+++++######%%%%%###########OOOOO+++++######%%%%%###########OOOOO+++++######%%%%%",
"###########OOOOO+++++######%%%%%###########OOOOO+++++######%%%%%###########OOOOO+++++######%%%%%###########OOOOO+++++######%%%%%",
"###########OOOOO+++++######%%%%%###########OOOOO+++++######%%%%%###########OOOOO+++++######%%%%%###########OOOOO+++++######%%%%%",
"###########OOOOO+++++######%%%%%###########OOOOO+++++######%%%%%###########OOOOO+++++######%%%%%###########OOOOO+++++######%%%%%",
"###########OOOOO+++++######%%%%%###########OOOOO+++++######%%%%%###########OOOOO+++++######%%%%%###########OOOOO+++++######%%%%%",
"###########OOOOO+++++######################OOOOO+++++######################OOOOO+++++######################OOOOO+++++###########",
"###########OOOOO+++++######################OOOOO+++++######################OOOOO+++++######################OOOOO+++++###########",
"###########OOOOO+++++######################OOOOO+++++######################OOOOO+++++######################OOOOO+++++###########",
"###########OOOOO+++++######################OOOOO+++++######################OOOOO+++++######################OOOOO+++++###########",
"###########OOOOO+++++######################OOOOO+++++######################OOOOO+++++######################OOOOO+++++###########",
"###########OOOOO+++++######################OOOOO+++++######################OOOOO+++++######################OOOOO+++++###########",
"###########OOOOO+++++######################OOOOO+++++######################OOOOO+++++######################OOOOO+++++###########",
"###########OOOOO+++++######################OOOOO+++++######################OOOOO+++++######################OOOOO+++++###########",
"###########OOOOO+++++######################OOOOO+++++######################OOOOO+++++######################OOOOO+++++###########",
"###########OOOOO+++++######################OOOOO+++++######################OOOOO+++++######################OOOOO+++++###########",
"###########OOOOO+++++######################OOOOO+++++######################OOOOO+++++######################OOOOO+++++###########",
"###########OOOOO+++++######################OOOOO+++++######################OOOOO+++++######################OOOOO+++++###########",
"###########OOOOO+++++######################OOOOO+++++######################OOOOO+++++######################OOOOO+++++###########",
"###########OOOOO+++++######################OOOOO+++++######################OOOOO+++++######################OOOOO+++++###########",
"###########OOOOO+++++######################OOOOO+++++######################OOOOO+++++######################OOOOO+++++###########",
"###########OOOOO+++++######################OOOOO+++++######################OOOOO+++++######################OOOOO+++++###########",
"###########OOOOO+++++######################OOOOO+++++######################OOOOO+++++######################OOOOO+++++###########",
"###########OOOOO+++++######################OOOOO+++++######################OOOOO+++++######################OOOOO+++++###########",
"###########OOOOO+++++######################OOOOO+++++######################OOOOO+++++######################OOOOO+++++###########",
"###########OOOOO+++++######################OOOOO+++++######################OOOOO+++++######################OOOOO+++++###########",
"###########OOOOO+++++######################OOOOO+++++######################OOOOO+++++######################OOOOO+++++###########",
"###########OOOOO+++++######################OOOOO+++++######################OOOOO+++++######################OOOOO+++++###########",
"###########OOOOO+++++######################OOOOO+++++######################OOOOO+++++######################OOOOO+++++###########",
"###########OOOOO+++++######################OOOOO+++++######################OOOOO+++++######################OOOOO+++++###########",
"###########OOOOO+++++######################OOOOO+++++######################OOOOO+++++######################OOOOO+++++###########",
"###########OOOOO+++++######################OOOOO+++++######################OOOOO+++++######################OOOOO+++++###########",
"###########OOOOO+++++######################OOOOO+++++######################OOOOO+++++######################OOOOO+++++###########",
"###########OOOOO+++++######################OOOOO+++++######&&&&&&&&&&&&&&&&&&&&&+++++######################OOOOO+++++###########",
"###########OOOOO+++++######################OOOOO+++++######&&&&&&&&&&&&&&&&&&&&&+++++######################OOOOO+++++###########",
"###########OOOOO+++++######################OOOOO+++++######&&&&&&&&&&&&&&&&&&&&&+++++######################OOOOO+++++###########",
"###########OOOOO+++++######################OOOOO+++++######&&&&&&&&&&&&&&&&&&&&&+++++######################OOOOO+++++###########",
"###########OOOOO+++++######################OOOOO+++++######&&&&&&&&&&&&&&&&&&&&&+++++######################OOOOO+++++###########",
"###########OOOOO+++++######################OOOOO+++++&&&&&&$$$$$***********$$$$$&&&&&######################OOOOO+++++###########",
"###########OOOOO+++++######################OOOOO+++++&&&&&&$$$$$***********$$$$$&&&&&######################OOOOO+++++###########",
"###########OOOOO+++++######################OOOOO+++++&&&&&&$$$$$***********$$$$$&&&&&######################OOOOO+++++###########",
"###########OOOOO+++++######################OOOOO+++++&&&&&&$$$$$***********$$$$$&&&&&######################OOOOO+++++###########",
"###########OOOOO+++++######################OOOOO+++++&&&&&&$$$$$***********$$$$$&&&&&######################OOOOO+++++###########",
"###########OOOOO+++++######################OOOOO+++++&&&&&&$$$$$***********$$$$$&&&&&######################OOOOO+++++###########",
"###########OOOOO.....................ooooooOOOOO&&&&&@@@@@@                     @@@@@&&&&&&################OOOOO+++++###########",
"###########OOOOO.....................ooooooOOOOO&&&&&@@@@@@                     @@@@@&&&&&&################OOOOO+++++###########",
"###########OOOOO.....................ooooooOOOOO&&&&&@@@@@@                     @@@@@&&&&&&################OOOOO+++++###########",
"###########OOOOO.....................ooooooOOOOO&&&&&@@@@@@                     @@@@@&&&&&&################OOOOO+++++###########",
"###########OOOOO.....................ooooooOOOOO&&&&&@@@@@@                     @@@@@&&&&&&################OOOOO+++++###########",
"###########OOOOOXXXXXXXXXXXXXXXXXXXXXXXXXXXXXXXXXXXXXXXXXXXXXXXXXXXXXXXXXXXXXXXXXXXXXXXXXXXXXXXXXXXXXXXXXXXOOOOO+++++###########",
"###########OOOOOXXXXXXXXXXXXXXXXXXXXXXXXXXXXXXXXXXXXXXXXXXXXXXXXXXXXXXXXXXXXXXXXXXXXXXXXXXXXXXXXXXXXXXXXXXXOOOOO+++++###########",
"###########OOOOOXXXXXXXXXXXXXXXXXXXXXXXXXXXXXXXXXXXXXXXXXXXXXXXXXXXXXXXXXXXXXXXXXXXXXXXXXXXXXXXXXXXXXXXXXXXOOOOO+++++###########",
"###########OOOOOXXXXXXXXXXXXXXXXXXXXXXXXXXXXXXXXXXXXXXXXXXXXXXXXXXXXXXXXXXXXXXXXXXXXXXXXXXXXXXXXXXXXXXXXXXXOOOOO+++++###########",
"###########OOOOOXXXXXXXXXXXXXXXXXXXXXXXXXXXXXXXXXXXXXXXXXXXXXXXXXXXXXXXXXXXXXXXXXXXXXXXXXXXXXXXXXXXXXXXXXXXOOOOO+++++###########",
"###########OOOOO+++++XXXXXX################OOOOO+++++######################OOOOO+++++###########XXXXX######OOOOO+++++###########",
"###########OOOOO+++++XXXXXX################OOOOO+++++######################OOOOO+++++###########XXXXX######OOOOO+++++###########",
"###########OOOOO+++++XXXXXX################OOOOO+++++######################OOOOO+++++###########XXXXX######OOOOO+++++###########",
"###########OOOOO+++++XXXXXX################OOOOO+++++######################OOOOO+++++###########XXXXX######OOOOO+++++###########",
"###########OOOOO+++++XXXXXX################OOOOO+++++######################OOOOO+++++###########XXXXX######OOOOO+++++###########",
"###########OOOOO+++++XXXXXX################OOOOO+++++######################OOOOO+++++###########XXXXX######OOOOO+++++###########",
"###########OOOOO+++++XXXXXX################OOOOO+++++######################OOOOO+++++###########XXXXX######OOOOO+++++###########",
"###########OOOOO+++++XXXXXX################OOOOO+++++######################OOOOO+++++###########XXXXX######OOOOO+++++###########",
"###########OOOOO+++++XXXXXX################OOOOO+++++######################OOOOO+++++###########XXXXX######OOOOO+++++###########",
"###########OOOOO+++++XXXXXX################OOOOO+++++######################OOOOO+++++###########XXXXX######OOOOO+++++###########",
"###########OOOOO+++++XXXXXX################OOOOO+++++######################OOOOO+++++###########XXXXX######OOOOO+++++###########",
"###########OOOOO+++++######################OOOOO+++++######################OOOOO+++++######################OOOOO+++++###########",
"###########OOOOO+++++######################OOOOO+++++######################OOOOO+++++######################OOOOO+++++###########",
"###########OOOOO+++++######################OOOOO+++++######################OOOOO+++++######################OOOOO+++++###########",
"###########OOOOO+++++######################OOOOO+++++######################OOOOO+++++######################OOOOO+++++###########",
"###########OOOOO+++++######################OOOOO+++++######################OOOOO+++++######################OOOOO+++++###########",
"###########OOOOO+++++######################OOOOO+++++######################OOOOO+++++######################OOOOO+++++###########",
"###########OOOOO+++++######################OOOOO+++++######################OOOOO+++++######################OOOOO+++++###########",
"###########OOOOO+++++######################OOOOO+++++######################OOOOO+++++######################OOOOO+++++###########",
"###########OOOOO+++++######################OOOOO+++++######################OOOOO+++++######################OOOOO+++++###########",
"###########OOOOO+++++######################OOOOO+++++######################OOOOO+++++######################OOOOO+++++###########",
"###########OOOOO+++++######################OOOOO+++++######################OOOOO+++++######################OOOOO+++++###########",
"###########OOOOO+++++######################OOOOO+++++######################OOOOO+++++######################OOOOO+++++###########",
"###########OOOOO+++++######################OOOOO+++++######################OOOOO+++++######################OOOOO+++++###########",
"###########OOOOO+++++######################OOOOO+++++######################OOOOO+++++######################OOOOO+++++###########",
"###########OOOOO+++++######################OOOOO+++++######################OOOOO+++++######################OOOOO+++++###########",
"###########OOOOO+++++######################OOOOO+++++######################OOOOO+++++######################OOOOO+++++###########",
"###########OOOOO+++++######################OOOOO+++++######################OOOOO+++++######################OOOOO+++++###########",
"###########OOOOO+++++######################OOOOO+++++######################OOOOO+++++######################OOOOO+++++###########",
"###########OOOOO+++++######################OOOOO+++++######################OOOOO+++++######################OOOOO+++++###########",
"###########OOOOO+++++######################OOOOO+++++######################OOOOO+++++######################OOOOO+++++###########",
"###########OOOOO+++++######################OOOOO+++++######################OOOOO+++++######################OOOOO+++++###########",
"###########OOOOO+++++######################OOOOO+++++######################OOOOO+++++######################OOOOO+++++###########",
"###########OOOOO+++++######################OOOOO+++++######################OOOOO+++++######################OOOOO+++++###########",
"###########OOOOO+++++######################OOOOO+++++######################OOOOO+++++######################OOOOO+++++###########",
"###########OOOOO+++++######################OOOOO+++++######################OOOOO+++++######################OOOOO+++++###########",
"###########OOOOO+++++######################OOOOO+++++######################OOOOO+++++######################OOOOO+++++###########",
"###########OOOOO+++++######################OOOOO+++++######################OOOOO+++++######################OOOOO+++++###########",
"###########OOOOO+++++######################OOOOO+++++######################OOOOO+++++######################OOOOO+++++###########",
"###########OOOOO+++++######################OOOOO+++++######################OOOOO+++++######################OOOOO+++++###########",
"###########OOOOO+++++######################OOOOO+++++######################OOOOO+++++######################OOOOO+++++###########",
"###########OOOOO+++++######################OOOOO+++++######################OOOOO+++++######################OOOOO+++++###########",
"###########OOOOO+++++######################OOOOO+++++######################OOOOO+++++######################OOOOO+++++###########",
"###########OOOOO+++++######################OOOOO+++++######################OOOOO+++++######################OOOOO+++++###########",
"###########OOOOO+++++######################OOOOO+++++######################OOOOO+++++######################OOOOO+++++###########",
"###########OOOOO+++++######################OOOOO+++++######################OOOOO+++++######################OOOOO+++++###########",
"###########OOOOO+++++######################OOOOO+++++######################OOOOO+++++######################OOOOO+++++###########",
"###########OOOOO+++++######################OOOOO+++++######################OOOOO+++++######################OOOOO+++++###########",
"###########OOOOO+++++######%%%%%###########OOOOO+++++######%%%%%###########OOOOO+++++######%%%%%###########OOOOO+++++######%%%%%",
"###########OOOOO+++++######%%%%%###########OOOOO+++++######%%%%%###########OOOOO+++++######%%%%%###########OOOOO+++++######%%%%%",
"###########OOOOO+++++######%%%%%###########OOOOO+++++######%%%%%###########OOOOO+++++######%%%%%###########OOOOO+++++######%%%%%",
"###########OOOOO+++++######%%%%%###########OOOOO+++++######%%%%%###########OOOOO+++++######%%%%%###########OOOOO+++++######%%%%%",
"###########OOOOO+++++######%%%%%###########OOOOO+++++######%%%%%###########OOOOO+++++######%%%%%###########OOOOO+++++######%%%%%",
"###########OOOOO+++++######%%%%%###########OOOOO+++++######%%%%%###########OOOOO+++++######%%%%%###########OOOOO+++++######%%%%%",
"###########OOOOO+++++######################OOOOO+++++######################OOOOO+++++######################OOOOO+++++###########",
"###########OOOOO+++++######################OOOOO+++++######################OOOOO+++++######################OOOOO+++++###########",
"###########OOOOO+++++######################OOOOO+++++######################OOOOO+++++######################OOOOO+++++###########",
"###########OOOOO+++++######################OOOOO+++++######################OOOOO+++++######################OOOOO+++++###########",
"###########OOOOO+++++######################OOOOO+++++######################OOOOO+++++######################OOOOO+++++###########"
};
